<?xml version="1.0" encoding="utf-8"?>
<!-- Generator: Adobe Illustrator 18.1.0, SVG Export Plug-In . SVG Version: 6.00 Build 0)  -->
<svg version="1.1" id="Film" xmlns="http://www.w3.org/2000/svg" xmlns:xlink="http://www.w3.org/1999/xlink" x="0px" y="0px"
	 viewBox="0 0 600 200" enable-background="new 0 0 600 200" xml:space="preserve">
<rect fill="#FF596E" stroke="#231F20" stroke-miterlimit="10" width="600" height="200"/>
<g>
	<defs>
		<rect id="SVGID_1_" width="600" height="200"/>
	</defs>
	<clipPath id="SVGID_2_">
		<use xlink:href="#SVGID_1_"  overflow="visible"/>
	</clipPath>
	
		<rect x="68.6" y="-18.6" transform="matrix(0.8225 0.5688 -0.5688 0.8225 25.8301 -37.866)" clip-path="url(#SVGID_2_)" fill="#E8F6FF" width="10" height="82"/>
	
		<rect x="217.5" y="6.8" transform="matrix(0.9472 -0.3207 0.3207 0.9472 -3.5915 73.8724)" clip-path="url(#SVGID_2_)" fill="#081245" width="10" height="82"/>
	
		<rect x="355.1" y="-15.4" transform="matrix(0.9472 -0.3207 0.3207 0.9472 10.7947 116.8333)" clip-path="url(#SVGID_2_)" fill="#E8F6FF" width="10" height="82"/>
	
		<rect x="552.3" y="147.6" transform="matrix(0.9472 -0.3207 0.3207 0.9472 -31.0369 188.6664)" clip-path="url(#SVGID_2_)" fill="#081245" width="10" height="82"/>
	
		<rect x="526.9" y="-11.7" transform="matrix(0.3365 0.9417 -0.9417 0.3365 380.5352 -481.4032)" clip-path="url(#SVGID_2_)" fill="#081245" width="10" height="82"/>
	
		<rect x="122.9" y="152.8" transform="matrix(0.8628 0.5055 -0.5055 0.8628 115.5395 -38.0547)" clip-path="url(#SVGID_2_)" fill="#081245" width="10" height="82"/>
	
		<rect x="373.1" y="149.8" transform="matrix(0.9925 0.1221 -0.1221 0.9925 26.119 -44.7341)" clip-path="url(#SVGID_2_)" fill="#081245" width="10" height="82"/>
	
		<rect x="-5.8" y="13" transform="matrix(0.8628 0.5055 -0.5055 0.8628 27.2061 7.7945)" clip-path="url(#SVGID_2_)" fill="#081245" width="10" height="82"/>
	
		<rect x="48.1" y="134.1" transform="matrix(0.3365 0.9417 -0.9417 0.3365 200.0712 66.1908)" clip-path="url(#SVGID_2_)" fill="#E8F6FF" width="10" height="82"/>
	
		<rect x="11.6" y="87.5" transform="matrix(-0.1171 0.9931 -0.9931 -0.1171 146.2187 127.1055)" clip-path="url(#SVGID_2_)" fill="#081245" width="10" height="82"/>
	
		<rect x="126" y="24.9" transform="matrix(-0.1171 0.9931 -0.9931 -0.1171 211.7955 -56.4912)" clip-path="url(#SVGID_2_)" fill="#081245" width="10" height="82"/>
	
		<rect x="463" y="126" transform="matrix(0.5895 0.8078 -0.8078 0.5895 327.0102 -309.5176)" clip-path="url(#SVGID_2_)" fill="#E8F6FF" width="10" height="82"/>
	
		<rect x="429.8" y="-25.1" transform="matrix(0.5895 0.8078 -0.8078 0.5895 191.3126 -344.696)" clip-path="url(#SVGID_2_)" fill="#081245" width="10" height="82"/>
	
		<rect x="586.8" y="59.6" transform="matrix(-0.5485 0.8362 -0.8362 -0.5485 1000.5908 -339.0853)" clip-path="url(#SVGID_2_)" fill="#081245" width="10" height="82"/>
	
		<rect x="255" y="152.8" transform="matrix(-0.5485 0.8362 -0.8362 -0.5485 564.6598 82.7617)" clip-path="url(#SVGID_2_)" fill="#081245" width="10" height="82"/>
</g>
</svg>
