<?xml version="1.0" encoding="utf-8"?>
<!-- Generator: Adobe Illustrator 18.1.0, SVG Export Plug-In . SVG Version: 6.00 Build 0)  -->
<svg version="1.1" id="Publishing" xmlns="http://www.w3.org/2000/svg" xmlns:xlink="http://www.w3.org/1999/xlink" x="0px" y="0px"
	 viewBox="0 0 600 200" enable-background="new 0 0 600 200" xml:space="preserve">
<rect fill="#E2DCD0" width="600" height="200"/>
<g>
	<defs>
		<rect id="SVGID_1_" width="600" height="200"/>
	</defs>
	<clipPath id="SVGID_2_">
		<use xlink:href="#SVGID_1_"  overflow="visible"/>
	</clipPath>
	<path clip-path="url(#SVGID_2_)" fill="#3E59F8" d="M553.7,165.3c-0.2,1.3-0.4,2.7-0.6,4.2c-0.2,1.2,0.5,2.4,1.4,2.5
		c0.6,0.1,1.2,0.1,1.8,0.1c4.5-0.4,6.2,1.4,5.3,5.8c-1,4.6,0.6,6.8,5.2,7.2c0.6,0.1,1.3,0.1,1.9,0c5.2-0.3,6.3,0.4,3.3,5.6
		c-1.7,3-2,6.8-2.6,10.3c-0.5,3.1-4.8,6-7.6,4.5c-4-2.1-9.3-2.4-11-7.7c-0.3-1.1-0.7-2.2-0.8-3.3c-0.4-3.7-2.3-5.7-6.1-5.9
		c-0.9,0-1.8,0.2-2.7-0.1c-2.2-0.7-6-1.3-6.1-2.3c-0.4-2.9,0.6-6.1,1.4-9.1c0.1-0.5,2.1-0.7,3.2-0.6c0.4,0,0.7,0.1,1.1,0.2
		c0.6,0.2,0.6-0.5,0.1-1.6c-1.5-3.4-2.9-6.7-4.4-10c-0.5-1.1,0.1-2.1,1.4-2.1c4.6,0,9.3,0,13.9,0C553,163.1,553.8,164.1,553.7,165.3
		z"/>
	<path clip-path="url(#SVGID_2_)" fill="#3E59F8" d="M565,188.8c-0.6-0.2-1.1-0.4-1.7-0.5c-1-0.3-2.2-0.8-3.1-0.6
		c-4.5,0.9-6.5,0.7-9.8-1.7c-1-0.7-1.2-2.2-0.2-2.9c3.2-2.3,9.9-4.7,14.3-5.2c1.2-0.1,2.3,1,2.3,2.2c0,2.3,0,4.7,0,7
		C566.7,188.3,566,189.1,565,188.8z"/>
	<path clip-path="url(#SVGID_2_)" fill="#3E59F8" d="M582.7,10.9c-2.7-0.3-5.5-0.5-8.1-1.1c-3.1-0.8-3.3-2.5-1-4.9
		c2.6-2.9,5.9-2.6,9.1-2.3c1.2,0.1,2.3,1.2,2.3,2.4c0,1.3,0,2.6,0,3.9S584,11.1,582.7,10.9z"/>
	<path clip-path="url(#SVGID_2_)" fill="#3E59F8" d="M580.9,69.1c-0.6-0.4-1.1-0.7-1.7-1c-0.5-0.3-1.3-1-1.3-1.2
		c1.3-2.8,2.1-6.3,4.2-8.2c1.9-1.7,5-0.6,6.9,2c4.1,5.4,7.2,5.5,12.5,0.7c0.9-0.8,2.2-1.7,3.2-1.6c3.7,0.5,7.6,1.1,11,2.5
		c1.4,0.6,3,3.5,2.7,4.9c-1.2,5-2.9,10-5,14.6c-1.8,3.8-4,3.7-7,0.4c-3.6-4-6.7-3.7-9.5,0.9c-2.6,4.3-4.1,4.3-7.4,0.3
		c-0.3-0.4-0.7-0.6-1.2-0.8c-0.7-0.4-1.6-0.1-1.9,0.6c-0.2,0.4-0.4,0.8-0.7,1.2c-0.6,0.8-1.2,1.6-1.8,2.3c-0.8,1-2.1,1-2.9,0.1
		c-0.6-0.7-1.3-1.4-1.9-2.2c-0.9-1-1.7-2.7-2.6-2.7c-1-0.1-2.2,1.2-3.1,2.2c-0.7,0.8-0.9,2.1-1.7,3c-1.7,2.2-3.6,3.1-6.1,0.7
		c-1.2-1.2-2.8-2.4-4.4-2.9c-1.8-0.6-3.6-0.1-3.6,2.5c0,3.9-1.5,5.6-5.5,4.8c-2.1-0.4-4.2-2.1-5.8-3.7c-0.3-0.3,1.2-3,2.3-4.2
		c3.7-4.2,2.9-7.5-2.5-8.8c-3.3-0.8-5.2-2.8-6.4-5.9c-0.5-1.1-2.1-1.8-3.3-2.6c-0.8-0.6-1.6-1.1-2.4-1.7c-1-0.7-1.3-2.1-0.7-3.2
		c0.6-1,1.3-2,2.2-2.4c4.6-2.2,7-1.4,9.4,3.4c1.9,3.7,4.2,6.5,8.5,7.5c1.3,0.3,2.4,2.1,3.2,3.5c1.5,2.6,3.2,3.5,6.3,2.6
		c2.1-0.6,4.4-0.3,6.6-0.4c0.5,0,1.1,0.2,1.5-0.1c3-1.6,6-3.2,9.2-5C581.7,70.6,581.8,69.6,580.9,69.1z"/>
	<path clip-path="url(#SVGID_2_)" fill="#3E59F8" d="M148,195.3c-2.9-2.7-3.1-8.2-0.1-11.8c2.8-3.3,5.7-6.4,8.8-9.3
		c2.1-2,1.5-3.4-0.3-5c-4.1-3.5-8.2-6.9-12.1-10.5c-1.1-1-1.6-2.6-2.1-4c-0.8-2.3-0.9-4.8-2-6.8c-3.8-6.7-1.5-11.2,6.4-12.1
		c5.5-0.6,6.3-0.9,7.9-5.6c0.4-1.2-0.2-2-1.2-1.8c-0.7,0.2-1.3,0.3-1.8,0.1c-1.1-0.3-2.8-1.3-2.9-2.1c-0.1-0.7,0.2-1.4,0.5-2
		c0.5-1.1,1.7-1.7,2.6-1.3c0.6,0.2,1.1,0.4,1.5,0.8c3.6,3.7,3.7,3.8,7.4,0.1c1.6-1.6,3.5-3.9,5.8-2.4c1.9,1.3,3.3,3.7,4.1,5.9
		c0.9,2.5-0.6,4.4-3.3,4.2c-5-0.4-6.8,3.8-9.9,6.1c-1.5,1.2-2.7,2.9-4.4,3.6c-3.4,1.5-5.3,4.3-4.8,7.8c0.9,6.2,5.8,10.7,12.2,11.2
		c1.5,0.1,3,0.4,4.5,0.7c2.8,0.6,3.4,2.7,2.5,4.9c-1.5,3.8-1.7,7.5-1,11.6c0.3,1.6-1.2,3.8-2.4,5.4c-1,1.3-2.9,2-4.1,3.2
		c-0.7,0.8-1.5,2.6-1.1,3.2c0.9,1.3,2.4,2.6,3.8,2.8c1.1,0.1,2.9-1.3,3.4-2.5c1-2,1.2-4.4,1.8-6.5c0.3-0.9,0.7-2.2,1.4-2.5
		s2,0.2,2.7,0.7c1.2,0.9,2.2,2.2,3.3,3.2c2.2,2,1.9,3.8-0.1,5.9"/>
	<path clip-path="url(#SVGID_2_)" fill="#3E59F8" d="M237.1,188.7c-0.7-1.5-1.1-4.2-0.2-5c3.6-3.5,3.2-6.7,0.6-10.5
		c-0.6-0.9,0.3-3.1,1-4.4c2-3.5,1.9-5.1-0.9-6.5c-1.1-0.5-2.4,0.2-2.8,1.4c-1.5,5.1-3,10.1-4.6,15c-0.9,2.9-2.4,4.3-5.6,1.9
		c-3-2.2-4.4,0.7-5.7,2.5c-1.9,2.7-4.2,4.9-7.5,4.1c-4.2-0.9-7.7-3.8-12.2-4.3c-0.7-0.1-1.7-2.4-1.5-3.4c0.2-1.2,1.4-2.6,2.6-3.3
		c2.5-1.6,5.4-2.7,7.9-4.2c3-1.8,6.1-2,9.1-0.3c2.6,1.5,4.8,1,7.1-0.2c2.2-1.2,3.3-2.7,2.3-5.6c-1.8-5-1.3-5.5,3.3-8.5
		c0.7-0.4,1.1-2.1,0.9-2.9c-0.6-1.9-2-3.5-2.7-5.4c-0.7-1.7-1.5-3.6-1.2-5.2c0.3-1.8,2.1-3.3,3.9-1.1c2.3,2.8,4.6,5.7,6.2,9
		c1.9,4.1,5.3,5.1,8.6,2c1.8-1.7,3.4-3.5,5.2-5.1c3.1-2.7,5.3-2.2,8,1.2c2.3,2.9,0.8,4.7-1.5,6.6c-4.1,3.4-9.6,5.7-10.6,11.8
		c-0.4,2.6-0.6,5.6,0.3,7.9c2.4,6.3,1.2,10.2-4.8,13.2"/>
	<path clip-path="url(#SVGID_2_)" fill="#3E59F8" d="M514.3,33c0.6,3.1,1.1,6.1,2.1,8.9c0.7,1.9,2.8,3.3,3.7,5.2
		c0.5,1,0.4,2.7-0.1,3.8c-1.1,2.2-2.5,4.4-4.2,6.2c-1.4,1.5-3.2,2.9-5,3.5c-0.9,0.3-2.5-1.5-3.7-2.5c-0.4-0.3-0.7-1.4-0.4-1.7
		c3.1-3.8,0.9-8.3,1.7-12.5c0.5-2.6-1.1-6.2-2.7-8.7c-2.6-4-2.2-6.7,2.1-8.7c0.7-0.3,1.5-1.2,1.7-2c1.4-4.1,3.1-4.8,6.6-2.6
		c1.1,0.7,2.1,1.5,3.3,1.9c0.8,0.3,2.1,0.1,2.7-0.4c0.6-0.5,1.1-2,0.7-2.5c-2.5-4.3-0.5-7.8,1.9-11.3c1.4-2,3-3.8,4.4-5.8
		c1-1.6,1.7-3.4,2.7-4.9c0.7-1.1,2-3,2.6-2.8c1.5,0.4,2.9,1.5,3.9,2.7c0.5,0.7,0,2.2-0.1,3.3c-0.2,4.1-3.9,7.4-2.3,11.9
		c0.3,0.8-0.6,2.2-1.3,3.1c-4.4,5.3-4.2,11.1,0.9,16.2c2.5,2.5,4.9,4.8,2.2,8.8c-2.2,3.2-8.6,4.9-11.4,2.3c-1-0.9-1.5-3.2-1.2-4.8
		c1.1-7.2,0-8.7-7.2-8.8c-0.7,0-1.4,0-2,0C514.7,30.7,514.1,31.7,514.3,33z"/>
	<path clip-path="url(#SVGID_2_)" fill="#3E59F8" d="M334,200.4c2.7-1.5,2.3-3.5-0.1-5c-1.5-0.9-3.1-1.5-4.8-2.1
		c-2.6-0.9-3.9-2.2-2.4-5.1c0.6-1.2,0.8-3.1,0.2-4.2c-1.8-3.3,0.2-4.5,2.6-5.4c1.5-0.6,3.4-0.5,4.8-1.2c1.6-0.8,3.1-2.1,4.2-3.5
		c1.6-1.9,2.7-4.3,4.2-6.3c1.7-2.2,3.4-4.3,5.4-6.2c0.7-0.6,1.5-1,2.4-1.3c1.2-0.5,2.6,0.1,3.2,1.2c0.6,1,1,2,1,2.9
		c-0.1,3.5-0.4,7.1-1.7,10.3c-0.6,1.6-3.4,2.4-5.2,3.5c-1.9,1.1-3.8,2-5.7,3c-2.1,1-4.2,2.1-6.7,3.3c-1.1,0.5-1.2,1.6-0.2,2.4
		c2.3,1.7,4.3,3.4,6.6,4.6c1,0.6,3-0.3,4.4-0.9c0.6-0.2,0.8-1.3,1.4-1.7c1.9-1.4,4.8-4.3,5.8-3.8c2.7,1.4,5.2,4,6.5,6.7
		c1.2,2.5-0.9,4.9-3.5,5.9c-2.2,0.9-4.6,1.6-6.9,2"/>
	<path clip-path="url(#SVGID_2_)" fill="#3E59F8" d="M66.8,118.3c4.1,0,8.3,0,12.4,0c3.1,0,6.3,4.1,5.8,7.2
		c-0.2,1.4-0.6,2.8-0.4,4.1c0.9,5.1-4.5,11-9,8.8c-4.3-2.1-7.2-0.3-10.3,1.4c-3,1.7-5.9,2.3-9.4,1.5c-5.3-1.3-11.4,5.5-10.2,10.7
		c1,4.1,1.3,8.4,2.1,12.5c0.3,1.6,1.3,3,2.1,4.4c1.5,2.5,2.1,4.9-0.5,7.1c-2.1,1.8-6.7,2.1-8.5,0.5c-0.5-0.5-0.9-1.3-0.9-2
		c0.1-4.9,1-9.8,0.4-14.6c-0.4-3.3-2.5-6.5-4.4-9.4c-3.5-5.2-2.4-8.2,3.4-10.2c2.6-0.9,4.7-3.3,7.3-4.4c1.9-0.8,4.2-1.3,6.2-0.9
		c4,0.8,6.6-1.6,5.8-5.8c-0.1-0.7-0.3-1.5-0.3-2.3C58.2,119.7,59.5,118.2,66.8,118.3z M73.5,132.8c3-1.5,4.4-4.1,3.3-7
		c-0.5-1.3-2.6-3-3.5-2.8c-2.1,0.5-5,1.3-4,4.8c0.4,1.2,0.8,2.4,1.3,3.7C71,132.6,72.3,133.3,73.5,132.8z"/>
	<path clip-path="url(#SVGID_2_)" fill="#3E59F8" d="M-0.4,193.4c-0.1-0.3-0.3-0.6-0.4-0.9c-0.5-1.1,0-2.5,1.1-3.1s2.3-1.1,3.5-1.2
		c3.3-0.3,6.7-2.9,8.6-6.1c2.4-4.1,5.3-8.1,8.5-11.7c1.6-1.9,3.9-1.4,4.6,1.3c0.4,1.5,0.3,3.2,0.2,4.8c-0.2,1.4-1,2.6-1.2,4
		c-0.5,4.7-1.1,9.3-7.8,7.9c-0.1,0-0.3,0-0.4,0.1"/>
	<path clip-path="url(#SVGID_2_)" fill="#3E59F8" d="M299.8,16.4c-2.3-1.1-4.2-2.1-6.1-2.7c-3.7-1.2-4-2-2.7-5.7
		c0.6-1.6,0.2-3.7-0.1-5.5c-0.4-2.5-0.1-3.7,2.9-3.9c5.2-0.2,8.8-2.5,11.2-7.7c1.7-3.7,5.2-6.7,8-9.8c0.6-0.6,2.6-0.8,3-0.3
		c1,1,2,2.6,1.9,3.9c-0.2,3.6-0.7,7.3-1.7,10.8c-0.4,1.2-2.4,2.8-3.7,2.8c-3.3,0.1-5.4,1-7.8,3.5c-1.9,1.9-4.9,2.8-8,4
		c-1.2,0.4-1.4,1-0.5,1.1c0.6,0.1,1.1,0.2,1.6,0.4c1.7,0.8,3.7,1.4,4.7,2.8c1.2,1.8,2.6,3.2,4.5,2.4c1.9-0.9,3.6-2.5,5.2-4
		c1.5-1.3,3.9-4.1,4.1-3.9c2.5,1.9,5.1,4,6.9,6.6c1.3,1.9,0.2,4.3-2.2,5.3c-2.5,1.1-5.1,2.2-7.8,2.7c-4.7,0.8-7.3,3.1-8.1,7.8
		c-0.7,4-1,8-5.6,10c-1.3,0.6-1.8,3.2-2.7,4.9c-0.4,0.9-0.5,2.2-1.1,2.8c-0.6,0.5-1.3,1-2.1,1.4c-1.1,0.6-1.9,0.1-1.8-1.2
		c0.1-0.8,0.2-1.6,0.2-2.4c0.2-2.1,1-4.3,0.5-6.2c-1.6-6,0.4-12.3,5.4-15.8c0.6-0.4,1.1-0.9,2-1.5C301,18,300.9,17,299.8,16.4z"/>
	<path clip-path="url(#SVGID_2_)" fill="#3E59F8" d="M401,166.6c3.1,1.6,5.9,3.2,8.8,4.5c2.2,1,4,0.1,4.7-2.4
		c0.9-3.2,3.2-4.6,6.4-4.1c3.7,0.6,6.3,3.5,6.3,7.1c0.1,3.4-1.9,5.4-5.1,6.3c-2.3,0.6-4.7,1.1-7.1,1.6c-4.4,0.9-7.1,4-7,8.4
		c0,3,0,5.3-3.4,7.2c-2.9,1.6-5.2,4.7-5.3,8.8c0,0.8-1.5,2.2-2.4,2.3c-0.5,0.1-1.1-0.2-1.7-0.5c-0.8-0.5-1.2-1.6-0.9-2.5
		c0.3-0.6,0.5-1.2,1-1.3c2.1-0.9,1.9-2,1.4-3.9c-1.5-5.6-2.3-11.3,2.8-15.9c0.5-0.5,0.9-1.2,1.3-1.9c2.8-4.1,2.6-4.8-2-6.4
		c-5.1-1.8-5.1-1.8-3.7-7.5c0.2-1-0.5-2.2-0.9-3.2c-1.5-3.8-0.6-5.3,3.3-5.4c4.5-0.2,8.1-1.2,10.3-6.2c1.4-3.3,4.9-5.8,7.9-8.2
		c2.1-1.7,5.4,0.6,5.1,3.9c-0.2,3.1-1,6.3-2.3,9.1c-0.5,1.1-3.1,1.2-4.8,1.8c-1.1,0.3-3,0.2-3.3,0.9c-2.1,4.1-5.5,5.4-9.7,5.6
		c-0.3,0-0.6,0.2-1,0.5C399.4,165.3,399.9,166.1,401,166.6z"/>
	<path clip-path="url(#SVGID_2_)" fill="#3E59F8" d="M462.5,75.7c2.6,1.3,4.9,1.2,7.3-0.4c4.1-2.8,8.4-3.3,13-1.8
		c3.2,1,5.6,6,4.6,9.8c-0.6,2.1-4.7,3.9-7.6,2.5c-3.8-1.8-6.6-0.3-9.4,1.9c-0.1,0.1-0.2,0.2-0.3,0.3c-6.6,2.8-7.7,7.6-5.8,14.1
		c0.4,1.3-0.4,2.9-1.1,4.5c-0.5,1.1-1.8,1.7-2.9,1.2c-3.9-1.9-4.1-3.2-4.5-8.1c-0.2-2.6-2.2-5.3-4-7.4c-1.9-2.2-3.2-3.7-1.9-7.1
		c1.5-4.4,2.5-9.1,0.7-14.1c-0.6-1.8,0.7-4.9,2.1-6.8c1.6-2.2,4-1.4,6.1,0.1c0.9,0.6,2.2,0.4,3.2,0.9c1.2,0.6,2.6,1.4,3,2.4
		c0.3,0.8-0.6,2.3-1.3,3.3c-0.5,0.7-1.1,1.4-1.8,2.1C461.3,73.8,461.4,75.2,462.5,75.7z"/>
	<path clip-path="url(#SVGID_2_)" fill="#3E59F8" d="M467.9,115.1c-0.6-0.3-1.2-0.7-1.7-1.2c-0.8-0.8-1.8-2-1.7-2.9
		c0.1-1,1.2-2.4,2.2-2.7c0.9-0.2,2.2,0.7,3.3,1.2c0.2,0.1,0.2,0.4,0.4,0.6c2.6,3.8,4.9,3.7,6.7-0.4c0.9-2,1.4-4.7,4.2-3.9
		c2.2,0.6,4.5,2.1,6,3.8c1.3,1.5,1.7,3.8,2.1,5.9c0.2,0.9-0.5,2.5-1.2,2.9c-0.9,0.5-2.7,0.5-3.3-0.1c-2.2-2-3.6-1.1-5.6,0.5
		c-3.4,2.6-6.2,6.4-11.4,6.2c-0.9-0.1-2.8,2.4-2.9,3.7c-0.2,3.9,0.5,7.8,0.4,11.7c-0.1,2-0.9,4.2-2.2,5.7c-0.5,0.6-3.1,0.1-4.3-0.6
		c-0.9-0.5-1.5-2.3-1.4-3.5c0.1-5.2-0.3-10.1-3.3-14.6c-0.8-1.2-0.8-4.5,0-4.9c2.5-1.4,5.6-2.7,8.3-2.6c2.6,0.1,4.5-0.3,6.1-1.9
		C469.3,117,468.9,115.6,467.9,115.1z"/>
	<path clip-path="url(#SVGID_2_)" fill="#3E59F8" d="M454.1,28.7c-0.8-0.3-1.4-0.5-2-0.9c-1.3-0.7-3.4-1.7-3.4-2.5
		c0.1-2.2,0.6-4.8,3.7-4.8c1.5,0,3,0.6,4.5,0.5c0.6,0,1.1-0.2,1.7-0.4c0.9-0.3,1.2-1.1,0.6-1.8c-0.3-0.4-0.7-0.8-1.1-1.1
		c-0.9-0.7-2.2-1-2.8-1.9c-0.6-0.9-1.1-2.5-0.7-3.4c0.3-0.9,1.7-1.7,2.7-2c3.7-0.9,6.3,1.2,8.8,3.4c2.3,2,4.6,4.1,6.8,6.2
		c2.9,2.7,1.2,5.4-0.8,7.3c-3.7,3.7-7,8-12.4,9.7c-1.1,0.3-2.3,0.9-3.3,0.6c-1.5-0.4-3-1.3-4-2.4c-0.4-0.4,0.8-2.2,1.4-3.3
		c0.2-0.4,0.6-0.8,1.1-1.3C455.7,30,455.3,29.1,454.1,28.7z"/>
	<path clip-path="url(#SVGID_2_)" fill="#3E59F8" d="M431.8,97c-0.5-3.3-1.5-5.4-5-5.7c-0.6,0-1.2-0.3-1.8-0.5
		c-1.1-0.4-2.2-0.8-3.2-1.3c-1.8-0.9-4.3-12-2.7-12.8c1.8-1,4.3-0.9,6.5-1c0.5,0,1.4,0.9,1.6,1.5c1.5,5.5,5.7,8.7,9.4,12.6
		c4.7,4.9,2.7,17.8-3.8,20.1c-2.2,0.8-4.1,1.4-5.7-0.8c-1.6-2.2-0.3-3.7,1.1-5.3c0.9-1,1.7-2,2.5-2.8C431.4,100,432,98.2,431.8,97z"
		/>
	<path clip-path="url(#SVGID_2_)" fill="#3E59F8" d="M552.8,33.7c-3.9-1.2-5.5-5.3-3.4-9c2.4-4.2,4-4.7,8.7-3.8
		c2.6,0.5,5.4,0.4,8,0.1c0.9-0.1,1.9-1.5,2.5-2.4c0.7-0.9,0.9-2.1,1.5-3.1c1.7-2.6,4.5-2.5,6.8-1.6c2.4,1,0.4,3.1,0.5,4.8
		c0.2,7.8-4.4,9.9-10.9,10.9c-3.3,0.5-6.4,2.5-9.6,3.9c-0.3,0.1-0.6,0.2-0.9,0.3C555.4,33.9,554,34,552.8,33.7z"/>
	<path clip-path="url(#SVGID_2_)" fill="#3E59F8" d="M72.6,173.9c0.3-3.8,1.6-4.6,5.7-4.2c2.7,0.3,4.4-0.4,6.3-2.3
		c1.2-1.2,3.2-1.7,4.9-1.9c0.5-0.1,2,2.1,1.8,2.9c-0.4,1.8-1.5,3.4-2.7,4.9c-0.7,1-2.2,1.4-3,2.3c-2.3,2.3-2,4.1,0.8,5.8
		c0.3,0.2,0.7,0.4,1,0.6c2.3,0.9,4.1,2.8,2.9,4.9c-0.9,1.7-3.4,3.2-5.3,3.4c-2.4,0.3-5-0.6-7.4-1.2c-1-0.3-2.3-1.2-2.5-2
		c-0.8-3-1.5-6-2.1-8.6C72.8,177.2,72.5,175.2,72.6,173.9z"/>
	<path clip-path="url(#SVGID_2_)" fill="#3E59F8" d="M353.2,33.3c-2.1-0.7-2.8-2.6-2.1-4.9c0.5-1.9,1-4,0.9-5.9
		c-0.1-2.8-1.2-4.9-4.6-4.9c-3.7,0-3.9-3.2-4.2-5.4c-0.2-1.9,0.6-4.5,1.9-5.9c1.7-1.9,4-1.8,6.4,0.1c3.1,2.5,5.7,4.8,5.9,9.2
		c0.1,1.6,1.8,3.3,3.2,4.6c2.4,2.2,2.3,4.3,0.6,6.7c-1,1.5-1.7,3.4-2.9,4.8c-0.4,0.5-0.9,0.8-1.4,1.1
		C356.1,33.3,354.4,33.7,353.2,33.3z"/>
	<path clip-path="url(#SVGID_2_)" fill="#3E59F8" d="M190.8,30.4c0-4,7.2-8.5,10.8-6.8c4.6,2.1,8.6,0.6,10.7-4.1c1.4-3,3.4-3.9,6-2
		c0.9,0.6,1.5,2.5,1.3,3.6c-0.7,4.2-1.8,8.3-6.7,9.7c-5.7,1.7-11.3,3.5-17,5C193.1,36.6,190.8,34,190.8,30.4z"/>
	<path clip-path="url(#SVGID_2_)" fill="#3E59F8" d="M323,150c-0.7-0.4-1.3-0.8-1.9-1.2c-1.9-1.4-3.3-1.9-4.9,0.7
		c-1.5,2.5-4.1,4.3-7.1,2.2c-2.7-1.9-2.6-4.4-1-7.4c3.2-6.3,3.1-5.6,10.8-6.3c5-0.5,8.2,2.7,12.5,3.5c2.7,0.5,3.1,4.9,0.7,6.5
		c-1.5,1-3.2,1.6-4.9,2.3C325.9,150.7,324.1,150.6,323,150z"/>
	<path clip-path="url(#SVGID_2_)" fill="#3E59F8" d="M170.9,10.2c-0.9,0.9-1.8,1.7-2.8,2c-3.4,1-5.8,2.9-8.4,5.3
		c-3.4,3.1-7.6,5.5-11.8,7.5c-0.8,0.4-2.1-0.5-3.5-1.3c-1.1-0.7-1.5-2.1-1.1-3.3c0.5-1.3,1-2.5,1.9-2.9c5.7-2.4,10-6.3,13.9-10.9
		c2.2-2.6,8.6-3.1,11.2-0.9c0.4,0.3,0.7,0.8,1.2,1.5C172,8,171.8,9.4,170.9,10.2z"/>
	<path clip-path="url(#SVGID_2_)" fill="#3E59F8" d="M202,153.8c0.3,1.4,0.6,2.8,0.8,4.2c0.1,0.6,0.1,1.3,0,1.9
		c-0.2,1.6,3.3,3.6-0.4,4.9c-3.1,1.1-6.4,3.1-9-0.4c-1.9-2.4-2.7-5.5-0.5-8.4c0.7-0.9,1.5-1.7,2.4-2.5c1.4-1.2,1.8-2.3,0.8-4.2
		c-1.9-3.5-0.3-7.7,2.8-9.1c2.7-1.2,6.4,0.4,7.7,3.7c0.4,0.9-0.2,2.6-0.9,3.3c-1,1-2.1,1.7-3.2,2.5c-1,0.7-1.7,1.4-1.4,1.6
		C201.4,151.4,201.8,152.5,202,153.8z"/>
	<path clip-path="url(#SVGID_2_)" fill="#3E59F8" d="M532.4,130.1c-1.3,1.8-2.5,3.4-3.5,5.1c-0.6,1-1,2.4-0.9,3.6
		c0.1,2.1,1.1,4.3,0.8,6.3c-0.3,2.3-0.4,5.4-4,5.6c-3,0.2-6.9-2.6-6.8-5.4c0.1-2.2,1.4-4.3,2.1-6.5c0.4-1.3,1.1-2.9,0.7-3.9
		c-2.1-4.3,1.4-6.3,3.5-8.8c1.9-2.4,4.1-0.8,6.1,0.5c0.5,0.3,0.9,0.5,1.7,0.9C533,127.9,533.2,129.1,532.4,130.1z"/>
	<path clip-path="url(#SVGID_2_)" fill="#3E59F8" d="M467.2,148.1c0.6-2,2.2-3.3,4.2-3.8c3-0.7,6.3-0.7,9.4-0.8
		c0.7,0,1.8,0.8,1.9,1.4c0.1,0.8-0.6,1.7-1,2.6c-0.6,1.6-1.7,3.1-1.7,4.8c-0.1,3.7-2.6,5.5-5.4,6.7c-2.9,1.2-4.4-1.5-5.6-3.4
		c-0.6-0.9-1-1.9-1.4-3C467.3,151.3,466.9,149.3,467.2,148.1z"/>
	<path clip-path="url(#SVGID_2_)" fill="#3E59F8" d="M435.9,22.1c-2.5-0.5-3.3-2.2-3.3-4.6c0-2.3-0.8-4.7-1.4-6.9
		c-1-3.6,0.6-5,4.3-5.1c3.6-0.1,6.8,0.8,7.2,4.3c0.4,3.5-0.6,7.3-1.6,10.9c-0.1,0.5-0.7,0.8-1.3,1.1C438.9,22,437.1,22.4,435.9,22.1
		z"/>
	<path clip-path="url(#SVGID_2_)" fill="#3E59F8" d="M485.2-2.2c0.6-2.1,2.6-2.6,4.1-3c1-0.3,2.9,0.9,3.7,2c1.8,2.6,3.5,5.3,4.5,8.3
		c1.4,4.3-1.4,7.9-5.3,7.5c-1.9-0.2-3.2-0.9-3.5-3.2c-0.2-1.9-1.2-3.8-2-5.6c-0.3-0.6-0.5-1.3-0.8-1.9C485.4,0.8,484.8-1,485.2-2.2z
		"/>
	<path clip-path="url(#SVGID_2_)" fill="#3E59F8" d="M81.7-21c-0.2-0.5-0.4-1-0.6-1.4c-1.5-2.6-0.9-4.3,1.9-5.2
		c3.9-1.3,7.9,1.4,8.4,5.4c0.2,1.3,0.6,2.5,0.7,3.7c0.4,3.4-2.2,7.6-4.8,6.8c-2.3-0.7-3.8-3.7-5.6-5.8c-0.2-0.2-0.2-0.5-0.1-0.9
		c0.1-0.5,0.2-1,0.3-1C82.1-19.5,82-20.2,81.7-21z"/>
	<path clip-path="url(#SVGID_2_)" fill="#3E59F8" d="M51.5,72.4c0.1,4.1-3,6.8-7.7,7c-3.4,0.1-5.7-1.8-5.9-4.5
		c-0.3-3.1,5.7-9.6,9-9.5C49.2,65.4,51.5,68.9,51.5,72.4z"/>
	<path clip-path="url(#SVGID_2_)" fill="#3E59F8" d="M16.2,18c-0.3,0.6-0.6,1.1-1,1.6c-1,1.2-2.3,2.1-3.1,3.4
		c-1.3,2-2.6,3.1-4.9,1.6c-2.2-1.4-4.6-2.8-3.2-6c1.2-2.8,2.3-5.7,4.2-8c0.8-0.9,4.1-1.1,5.1-0.2c1.2,0.9,1.9,2.4,2.7,3.9
		C16.6,15.5,16.7,17.1,16.2,18z"/>
	<path clip-path="url(#SVGID_2_)" fill="#3E59F8" d="M232.8-10.1c1.4,1.3,2.6,2.3,3.3,3.6c0.6,1.1-0.1,3-0.5,4.4
		c-0.4,1.3-1.2,2.5-1.8,3.7c-1.4,2.8-4.8,4.4-7.3,2.9c-2.3-1.4-2.6-3.7-1.7-6.3c0.7-1.9,1-4,2-5.7c0.6-1,1.5-1.7,2.6-2.7
		C230.4-10.9,231.9-10.9,232.8-10.1z"/>
	<path clip-path="url(#SVGID_2_)" fill="#3E59F8" d="M538.9,152.3c-0.2-0.1-0.3-0.2-0.5-0.3c-1.1-0.6-1.4-2-0.8-3
		c0.5-0.9,1.1-1.7,1.8-2.4c2.2-2.4,4.5-4.8,6.9-7c0.8-0.8,2.3-1.7,3.1-1.4c0.9,0.3,1.8,1.8,2,2.9c0.9,5.8-2.6,10.5-8.2,12
		C541.9,153.4,540,152.9,538.9,152.3z"/>
	<path clip-path="url(#SVGID_2_)" fill="#3E59F8" d="M81.8,30.9c0.9-0.6,1.8-1.2,2.5-1.8c1.9-1.6,3.6-0.7,4.4,0.9
		c0.5,1.1,0.3,3-0.3,4.1c-1.1,1.8-2.7,3.3-4.2,4.9c-2.5,2.6-4.3,2.2-6.2-1c-1.2-1.9-3-3.3-4.3-5.1c-0.8-1-1.3-2.3-1.6-3.6
		c-0.1-0.2,1.5-1.2,2.3-1.2c1.2,0,2.6,0.3,3.5,1c0.5,0.3,0.8,0.8,1.1,1.4C79.5,31.5,80.7,31.6,81.8,30.9z"/>
	<path clip-path="url(#SVGID_2_)" fill="#3E59F8" d="M101.5-7.8c0.3-0.5,0.6-1.1,1.1-1.4c0.7-0.4,2.5,0.4,3.6,1
		c2,1.1,3.8,2.4,5.7,3.6c2.6,1.6,3.4,5.2,1.6,7.5c-1.6,2-4.9,2.1-7.2,0.4c-2.4-1.8-4.4-3.9-5.2-7.2C100.8-5.2,101.1-6.9,101.5-7.8z"
		/>
	<path clip-path="url(#SVGID_2_)" fill="#3E59F8" d="M492.3,30.5c-1.6-0.7-3.1-1.5-4.2-2.5c-1-0.9-1.6-3.2-1.2-4.4
		c0.4-1.1,2.5-1.7,3.9-2.2c1.3-0.5,2.8-0.4,4-0.9c2.5-1,4.3-0.5,5.7,1.9c1.5,2.5,0.7,4.3-1.3,5.9c-1,0.7-1.9,1.4-3,2.1
		C495.2,30.9,493.4,31,492.3,30.5z"/>
	<path clip-path="url(#SVGID_2_)" fill="#3E59F8" d="M321.6,175.9c-0.5-0.4-1.1-0.9-1.6-1.5c-1.2-1.3-2.5-2.6-3.1-4.2
		c-0.4-1.2-0.1-3.2,0.7-4c1.2-1.1,3.1-1.8,4.8-2.1c2.7-0.6,6.4,3.6,6.9,7.4c0.2,2-1.4,4.3-3.9,5.3
		C324.3,177.3,322.5,176.7,321.6,175.9z"/>
	<path clip-path="url(#SVGID_2_)" fill="#3E59F8" d="M447.1,144.4c-3,1.3-6.4,1.1-9-0.7c-0.4-0.3-1.1-0.7-1.1-1
		c0.1-1.7-0.2-3.7,0.6-5c1.6-2.7,4.3-4.7,7.5-3.9c1.4,0.4,2.7,2.7,3.4,4.4c0.4,0.8,0.4,1.8,0.5,2.8
		C449,142.2,448.2,143.9,447.1,144.4z"/>
	<path clip-path="url(#SVGID_2_)" fill="#3E59F8" d="M323.3,34c-2.3-0.7-3.3-2.4-2.9-4.4c0.3-1.5,0.4-3.2,1.2-4.3
		c1.1-1.5,2.9-3.5,4.3-3.5c1.9,0,4.4,1.4,5.6,2.9c0.8,1,0.1,3.9-0.9,5.2c-0.9,1.2-2.2,2.2-3.3,3C326.4,33.7,324.5,34.3,323.3,34z"/>
	<path clip-path="url(#SVGID_2_)" fill="#3E59F8" d="M270.8-18.3c1.1,0.7,2,1.2,2.5,2.1c1.5,2.4,3.9,4.9,1.8,8.3
		c-1.6,2.5-4.7,2.6-7.2,0.2c-1-1-1.9-2.1-2.6-3.3c-0.8-1.4-2.2-3.6-1.6-4.4c0.7-1.1,1.9-1.9,3.3-2.8
		C268.1-18.9,269.7-18.9,270.8-18.3z"/>
	<path clip-path="url(#SVGID_2_)" fill="#3E59F8" d="M108.4-15.2c-0.6,0.3-1.3,0.5-2,0.5c-1.7,0.1-3.9,0.2-5.1-0.6
		c-2.9-2.1-2.5-3.4,0.9-4.9c2.5-1.1,5.1-2.3,7.8-2.8c1.9-0.4,4.1,0.1,6,0.6c0.4,0.1,0.8,2.5,0.4,3c-1,1.2-2.3,2.2-3.5,3.1
		c-1,0.8-1.9,1.2-2.2,0.8C110.5-15.8,109.5-15.7,108.4-15.2z"/>
	<path clip-path="url(#SVGID_2_)" fill="#3E59F8" d="M527.9,103.9c1.4,0.5,2.5,1.4,2.6,3.5c0.2,2.9-3.8,7.8-6,7.9
		c-2.3,0.1-5.8-3.8-5.7-6.2c0.1-2.7,1.9-4.8,4.7-5.5C524.7,103.4,526.7,103.5,527.9,103.9z"/>
	<path clip-path="url(#SVGID_2_)" fill="#3E59F8" d="M230,23.7c2.3,1.4,4.6,2.8,6.7,4.4c0.5,0.4,0.1,2.9-0.6,3.9
		c-1.6,2.1-4.3,3.6-6.6,1.9c-2.1-1.6-3.7-4.2-5-6.7c-1.2-2.3-0.5-3.5,1.4-4.2C227.1,22.6,228.9,23,230,23.7z"/>
	<path clip-path="url(#SVGID_2_)" fill="#3E59F8" d="M86.9,95.3c-0.9,0.8-2.3,1.3-3.8,1.5c-2,0.3-6.9-5.3-6.8-7.4
		c0.1-2.6,2.5-5,4.9-4.8c2.5,0.2,5.6,3.2,6.6,6.5C88,92.3,87.8,94.5,86.9,95.3z"/>
	<path clip-path="url(#SVGID_2_)" fill="#3E59F8" d="M30.4,135.4c-3.5,0-7.7-3.9-7.8-7.1c0-2.6,1.1-4.1,3.9-4.1
		c3.3,0,8.1,3.9,8.1,6.5C34.6,133.7,33.1,135.4,30.4,135.4z"/>
	<path clip-path="url(#SVGID_2_)" fill="#3E59F8" d="M98.9,80.4c0-2.6,2.7-5.6,5.1-5.6c3.1-0.1,6.1,2.2,6,4.5
		c-0.1,3.1-3.6,7.3-5.9,7.3C101.3,86.6,98.9,83.8,98.9,80.4z"/>
	<path clip-path="url(#SVGID_2_)" fill="#3E59F8" d="M562.8,176.6c-2.7-0.1-6.8-4.5-6.3-7.4c0.2-1.4,2-3.4,3.4-3.6
		c3.2-0.5,8.2,3.3,8.2,5.5C568.2,174.2,565.8,176.6,562.8,176.6z"/>
	<path clip-path="url(#SVGID_2_)" fill="#3E59F8" d="M489.9,211.2c-0.3,0.6-0.6,1.1-0.8,1c-2.5-0.1-5.4-0.2-7.4-1.4
		c-1.1-0.7-1.5-3.8-1.1-5.5c0.4-1.6,2.1-3.1,3.7-3.9c2.4-1.4,4.4-0.6,5,2.4c0.2,1.2,0.5,2.5,0.8,3.9
		C490.3,209,490.2,210.6,489.9,211.2z"/>
	<path clip-path="url(#SVGID_2_)" fill="#3E59F8" d="M251.7,14.3c1.2,0.4,2.2,0.7,3.1,1.3c1.6,1,1,9.2-0.6,10.3
		c-2,1.3-4.6,0-5.7-2.7c-0.4-1-0.9-2-1.4-3c-0.7-1.3-2.3-3.4-2-3.7c0.7-0.7,1.6-1.3,2.5-1.8C248.7,14.1,250.5,13.9,251.7,14.3z"/>
	<path clip-path="url(#SVGID_2_)" fill="#3E59F8" d="M554.7,206.6c-0.8-0.3-1.6-0.7-1.6-1.1c0-2.5,0.7-5.1,1.8-7.3
		c0.7-1.3,3.2-2.9,4-2.5c1.4,0.7,2.7,2.7,3,4.3c0.8,4.2,0,6.4-3.2,7.1C557.6,207.3,555.7,207,554.7,206.6z"/>
	<path clip-path="url(#SVGID_2_)" fill="#3E59F8" d="M445.5,50.2c-3.1,0-6.5-3.1-5.5-5.8c0.7-1.9,3.4-3.4,5.5-4.2
		c1.9-0.7,5.1,3.1,5.2,5.6C450.8,48.2,448.4,50.2,445.5,50.2z"/>
	<path clip-path="url(#SVGID_2_)" fill="#3E59F8" d="M501.1,124.4c-1.3,1.6-2.4,3-3.5,4.2c-0.8,1-2,0.9-2.8,0
		c-1.6-1.9-3.3-3.9-3.9-6.1c-0.7-2.6,2.6-3.8,4.7-3.5c1.6,0.2,3.1,1.3,4.9,2.4C501.6,122.1,501.9,123.4,501.1,124.4z"/>
	<path clip-path="url(#SVGID_2_)" fill="#3E59F8" d="M59.6,11c3.7,0.6,5.5,2.7,5.3,5.6c-0.3,3.5-4.3,4-5.7,3.5
		c-2.1-0.9-3.8-3.7-4.7-6c-0.2-0.4,0.5-1.1,1.2-1.7C56.6,11.4,58.4,10.8,59.6,11z"/>
	<path clip-path="url(#SVGID_2_)" fill="#3E59F8" d="M177.8,136.9c2.3,0.6,3.6,2.1,3.6,4.2c0,2.6-2.4,4.4-5.6,4.5
		c-3.6,0.1-3.9-2.6-4-4.9c-0.1-1.6,0.3-3.2,1.5-3.9C174.4,136.3,176.6,136.6,177.8,136.9z"/>
	<path clip-path="url(#SVGID_2_)" fill="#3E59F8" d="M228.7,37.9c2.5,0.5,4.7,0.6,4.8,3.9c0.1,2.6-1,4.1-3.7,4.2
		c-3.4,0.1-6.2-2.3-5.8-5.4c0.1-0.6,0.5-1.2,1.1-1.8C225.9,38,227.5,37.6,228.7,37.9z"/>
	<path clip-path="url(#SVGID_2_)" fill="#3E59F8" d="M444.9,39c-1.5-1.1-2.8-2.1-4-3.1c-1-0.8-1-2,0-2.7c1.4-1.1,2.8-2.2,4.3-2.3
		s3.9,2.3,4.5,4.1c0.3,0.8-0.7,2.1-1.7,3.6C447.2,39.5,445.9,39.7,444.9,39z"/>
	<path clip-path="url(#SVGID_2_)" fill="#3E59F8" d="M64.9,39.7c-2.2-0.9-4-2.8-3.8-4.5c0.4-2.8,2.8-3.6,4.8-3s4.6,2.3,5.1,4
		c0.3,1.3-0.3,3-1.7,3.7C68.2,40.5,66.1,40.2,64.9,39.7z"/>
	<path clip-path="url(#SVGID_2_)" fill="#3E59F8" d="M109.8,16.1c-0.3,0.9-0.6,1.6-0.6,2.3c0,3.4-2.2,3.4-4.6,3.4
		c-3-0.1-4.2-2.5-4-4.5c0.2-1.4,2.7-2.9,4.4-3.5c0.9-0.3,2-0.2,3.3,0C109.5,13.9,110.2,15,109.8,16.1z"/>
	<path clip-path="url(#SVGID_2_)" fill="#3E59F8" d="M34.6-7.6C34.8-5,32.9-3.4,31-3.9c-2.1-0.5-5.7-0.7-5.1-4.2
		c0.3-1.8,2-4.2,3.7-4.9C31.5-13.9,34.6-10.2,34.6-7.6z"/>
	<path clip-path="url(#SVGID_2_)" fill="#3E59F8" d="M292.6,192.7c0.6-0.6,1.3-1.1,2.2-1.4c2.1-0.6,5.4,2.8,5,5.2
		c-0.3,1.5-1.7,3.6-3,4c-1.8,0.5-4.2-1.4-5.3-4C291,195.3,291.6,193.5,292.6,192.7z"/>
	<path clip-path="url(#SVGID_2_)" fill="#3E59F8" d="M186.1,28.9c-0.6,2.2-1.6,3.5-3.8,3.1c-2.1-0.4-4.6-2.1-5.5-4
		c-0.9-1.6,3.6-4.7,6.5-4.2c0.6,0.1,1.2,0.6,1.8,1.2C185.9,25.9,186.5,27.7,186.1,28.9z"/>
	<path clip-path="url(#SVGID_2_)" fill="#3E59F8" d="M569.4,1.8c-2.7,0.1-4.9-2.1-4.5-5.2c0.2-1.3,1.8-3.1,3.1-3.5
		c2.5-0.7,4.9,1.8,4.9,4.4C572.9,0,572.5,2,569.4,1.8z"/>
	<path clip-path="url(#SVGID_2_)" fill="#3E59F8" d="M540.7,145.9c-2.7-0.8-3.2-2.9-3.4-4.9c-0.2-2.1,1.2-3.1,3.4-3
		c2.4,0.1,5.7,2.8,5.1,4.8c-0.2,0.7-0.7,1.3-1.2,1.9C543.7,145.5,541.9,146.2,540.7,145.9z"/>
	<path clip-path="url(#SVGID_2_)" fill="#3E59F8" d="M188.9,21.7c-0.6-0.7-1-1.4-0.9-1.8c0.8-2.6,2-5.1,3.5-7.3
		c0.4-0.6,2.4-0.6,3.4-0.2c0.5,0.2,0.8,2,0.5,2.9c-0.6,2-1.5,4-2.6,5.8c-0.2,0.5-0.7,0.8-1.2,1.2C190.8,22.9,189.6,22.6,188.9,21.7z
		"/>
	<path clip-path="url(#SVGID_2_)" fill="#3E59F8" d="M107.1,123.5c-1.2,1-2.3,2-3.4,1.9c-1.3-0.1-2.6-1.2-3.8-2.2
		c-1-0.8-0.9-2,0-2.8c1-0.8,2-1.6,3.1-1.9c1.7-0.5,3.4,0,4.7,1.7C108.5,121.1,108,122.7,107.1,123.5z"/>
	<path clip-path="url(#SVGID_2_)" fill="#3E59F8" d="M106.4-26c1.5,0.4,2.6,1.6,2.3,3.6c-0.2,1.2-3.3,2.4-5.3,2.9
		c-2.3,0.5-3.9-0.9-4-3.4c-0.1-2.3,1-2.9,2.4-3.1C103.1-26.1,105.2-26.3,106.4-26z"/>
	<path clip-path="url(#SVGID_2_)" fill="#3E59F8" d="M107,1.6c-1.4-1.2-2.7-2.2-2.5-2.8c0.4-1.2,1.3-2.3,2.2-3.4
		c0.8-0.9,2.2-0.9,3,0c1.1,1.2,2.1,2.4,2.9,3.7c0.1,0.2-1,1.2-2.3,2.4C109.4,2.4,108,2.4,107,1.6z"/>
	<path clip-path="url(#SVGID_2_)" fill="#3E59F8" d="M33.5,93.2c1.5-1.4,2.7-2.6,3.7-2.5c0.9,0.1,1.8,1,2.6,1.9s0.9,2.4,0.1,3.4
		c-0.8,1-1.7,2-2.7,2.2c-0.9,0.2-2-0.9-3.6-2.2C32.6,95.2,32.6,94,33.5,93.2z"/>
	<path clip-path="url(#SVGID_2_)" fill="#3E59F8" d="M5.2,132.6c-0.6-0.8-1.2-1.4-1.6-2c-0.8-1-0.6-2.4,0.3-3.2c1-0.8,2-1.5,3.1-1.8
		c0.7-0.2,2.8,2.2,2.9,3.5c0,1-0.8,2-2,3.4C7.2,133.5,6,133.5,5.2,132.6z"/>
	<path clip-path="url(#SVGID_2_)" fill="#3E59F8" d="M354.9,134.9c1-0.9,1.9-1.7,2.7-1.7c0.8,0,1.6,0.6,2.4,1.3c1,0.8,1,2.2,0.2,3.1
		c-0.5,0.6-1.1,1.1-1.6,1.7c-0.9,0.9-2.2,0.9-3-0.1c-0.3-0.3-0.6-0.7-0.9-1.1C353.8,137.2,353.9,135.8,354.9,134.9z"/>
	<path clip-path="url(#SVGID_2_)" fill="#3E59F8" d="M312.1,177.4c1.8,0.7,2.4,2,2,3.8c-0.2,0.7-0.6,1.3-1.1,1.9c-0.8,1-2.1,1-3,0.2
		c-1.1-1-2.1-2.1-3-3.3c-0.1-0.1,0.6-0.8,1.4-1.6C309.2,177.5,310.9,176.9,312.1,177.4z"/>
	<path clip-path="url(#SVGID_2_)" fill="#3E59F8" d="M45.8,98.8c0.2-1,0.4-1.8,0.9-2.3s1.2-0.9,1.9-1.2c1.2-0.5,2.3-0.1,2.5,0.9
		c0.1,0.6,0.3,1.2,0.3,1.8c0,1.1-0.2,2.4-0.8,3.2c-0.4,0.5-0.9,1-1.5,1.4c-0.9,0.7-2.2,0.6-2.7-0.2C45.8,101.6,45.5,100,45.8,98.8z"
		/>
	<path clip-path="url(#SVGID_2_)" fill="#3E59F8" d="M9.4,109.9c1.3-1,2.3-1.9,2.8-1.6c1.2,0.5,2.1,1.5,3.1,2.4
		c0.9,0.9,0.9,2.3,0,3.2c-0.7,0.8-1.4,1.4-2,1.3c-1.3-0.3-2.5-1.3-3.9-2.5C8.4,111.9,8.4,110.7,9.4,109.9z"/>
	<path clip-path="url(#SVGID_2_)" fill="#3E59F8" d="M500.2,70.6c1.1,1.2,2,2.2,1.9,3c0,0.8-0.6,1.6-1.3,2.4c-0.8,0.9-2.2,1-3.2,0.2
		s-1.9-1.7-2.4-2.7c-0.2-0.4,0.8-1.5,2.1-2.9C498.1,69.6,499.3,69.6,500.2,70.6z"/>
	<path clip-path="url(#SVGID_2_)" fill="#3E59F8" d="M85.1-11.4c0.2-2,0.6-3.7,3.7-3.9c2.3-0.1,3.8,0.9,3.8,3.2
		c0,2.5-1.6,3.5-5.4,3.3C85.8-9,84.9-10.1,85.1-11.4z"/>
	<path clip-path="url(#SVGID_2_)" fill="#3E59F8" d="M550.1,1.6c-2-0.4-2.5-1.7-2.1-3.4c0.2-0.7,0.6-1.3,1-1.9c0.7-1,2-1,2.9-0.1
		c0.9,1,1.8,1.9,2.4,3c0.1,0.2-0.3,0.8-0.8,1.3C552.9,1.2,551.3,1.8,550.1,1.6z"/>
	<path clip-path="url(#SVGID_2_)" fill="#3E59F8" d="M409.1,9.1c0.2-0.2,0.3-0.3,0.5-0.5c0.9-0.9,2.3-0.9,3.3-0.1
		c0.9,0.8,1.6,1.5,1.5,2.1c-0.2,1-1,1.8-1.8,2.6c-0.9,0.9-2.2,0.8-3-0.2c-0.2-0.2-0.4-0.4-0.6-0.7C408.1,11.5,408.2,10,409.1,9.1z"
		/>
	<path clip-path="url(#SVGID_2_)" fill="#3E59F8" d="M106.1,162.7c-1.9-0.3-3.8-0.3-3.3-3.2c0.2-1.1,2.8-2.8,3.2-2.6
		c1.1,0.7,2.1,1.7,3,2.8c0.8,0.9,1,2.1,0.4,2.7C108.7,163,107.3,162.9,106.1,162.7z"/>
	<path clip-path="url(#SVGID_2_)" fill="#3E59F8" d="M130.5,7.2c1-0.8,1.7-1.3,2.2-1.2c1.1,0.3,2.2,1,3.2,1.7s1,1.8,0,2.5
		c-1.1,0.7-2.1,1.4-3.3,1.6c-0.5,0.1-1.3-0.7-2.4-1.8C129.4,9.2,129.5,8,130.5,7.2z"/>
	<path clip-path="url(#SVGID_2_)" fill="#3E59F8" d="M273.9,132.4c0.9,1.1,1.6,1.8,1.5,2.6c-0.1,1.2-2,3.5-2.5,3.3
		c-1-0.3-1.9-1-2.8-1.6c-1-0.8-1.1-2.1-0.3-3.1c0.3-0.4,0.7-0.8,1.1-1.2C271.8,131.4,273.1,131.4,273.9,132.4z"/>
	<path clip-path="url(#SVGID_2_)" fill="#3E59F8" d="M77,24.4c-0.2-0.2-0.3-0.3-0.4-0.5c-0.8-0.9-0.7-2.3,0.3-3
		c0.9-0.7,1.8-1.3,2.8-1.7c0.4-0.2,2.5,1.9,2.3,2.4c-0.4,1-1.1,1.8-2,2.8C79.2,25.3,77.8,25.3,77,24.4z"/>
	<path clip-path="url(#SVGID_2_)" fill="#3E59F8" d="M560.4,126.8c1,1.2,1.8,2.1,1.6,2.4c-0.5,0.8-1.2,1.5-2,2.2
		c-1,0.8-2.3,0.6-3.1-0.4c-0.5-0.7-0.8-1.4-0.9-2.1c-0.1-0.6,0.6-1.3,1.5-2.2C558.3,125.8,559.6,125.9,560.4,126.8z"/>
	<path clip-path="url(#SVGID_2_)" fill="#3E59F8" d="M442.7,195.4c-1.2,0.8-2,1.5-2.9,1.6c-0.7,0.1-2.4-1.8-2.3-2.5
		c0.3-1.4,1.4-3.2,2.6-3.5c0.6-0.2,1.5,0.6,2.7,1.7C443.8,193.5,443.7,194.6,442.7,195.4z"/>
	<path clip-path="url(#SVGID_2_)" fill="#3E59F8" d="M86.7,6.1c-0.6-1-1-1.8-0.9-2.6c0-0.5,0.4-1,0.9-1.5c0.7-0.7,1.9-0.6,2.7,0.4
		c0.5,0.6,0.9,1.2,1,1.9c0.1,0.5-0.5,1.2-1.2,2.1C88.4,7.3,87.3,7.2,86.7,6.1z"/>
	<path clip-path="url(#SVGID_2_)" fill="#3E59F8" d="M261.6-8.8L261.6-8.8c1.1-0.7,2.4-0.6,3.1,0.2c0.4,0.6,0.8,1.1,0.8,1.7
		c0,0.4-0.4,0.9-0.9,1.4c-0.7,0.7-2,0.5-2.9-0.3c-0.1-0.1-0.2-0.2-0.3-0.2C260.5-6.9,260.6-8.1,261.6-8.8z"/>
	<path clip-path="url(#SVGID_2_)" fill="#3E59F8" d="M174.1,49.5c0.7-0.5,1.4-0.9,2-1c0.3-0.1,0.7,0.4,1.1,1
		c0.5,0.7,0.3,1.8-0.4,2.5c-0.5,0.4-1,0.8-1.5,1c-0.3,0.1-0.9-0.3-1.6-0.9C172.9,51.3,173.1,50.2,174.1,49.5z"/>
</g>
</svg>
