<?xml version="1.0" encoding="utf-8"?>
<!-- Generator: Adobe Illustrator 18.1.0, SVG Export Plug-In . SVG Version: 6.00 Build 0)  -->
<svg version="1.1" id="Technology" xmlns="http://www.w3.org/2000/svg" xmlns:xlink="http://www.w3.org/1999/xlink" x="0px" y="0px"
	 viewBox="0 0 600 200" enable-background="new 0 0 600 200" xml:space="preserve">
<rect x="-0.1" fill="#6396FC" width="600" height="200"/>
<g>
	<defs>
		<rect id="SVGID_1_" x="-0.1" width="600" height="200"/>
	</defs>
	<clipPath id="SVGID_2_">
		<use xlink:href="#SVGID_1_"  overflow="visible"/>
	</clipPath>
	<g id="_x32_xWDGX_1_" clip-path="url(#SVGID_2_)">
		<g>
			<path fill="none" stroke="#081245" stroke-width="2" stroke-linecap="round" stroke-linejoin="round" stroke-miterlimit="10" d="
				M798.2,150.7c-11.3,0-22.7,0-34.5,0c-18.2,18.2-36.8,36.8-55.5,55.5c-13,0-26,0.1-39-0.1c-3.2,0-5,1.6-7,3.6
				c-15.3,15.4-30.7,30.7-46,46c-0.8,0.8-1.1,1.9-1.5,2.6c-9-2.7-13.6,2.4-18.6,7.3c-8.4,8.3-17.1,16.2-26.6,25.1
				c-30.5,0-62.7,0-95.3,0c-18.9,18.9-38.1,38.1-57,57c-6.8,0-13.2,0-19,0c-34.1,34.1-67.9,67.9-102.7,102.7
				c0.4,10.2,0.8,21.5,1.4,34.7c-58.9,58.4-118.7,117.6-178.2,176.6c0,13.9,0,27.2,0,40.5"/>
			<path fill="none" stroke="#081245" stroke-width="2" stroke-linecap="round" stroke-linejoin="round" stroke-miterlimit="10" d="
				M798.2,186.7c-7.7,0-15.3,0-23,0c-18.7,18.7-37.3,37.3-55.8,55.8c-14.2,0-28.2,0-42.5,0c-17.2,17.2-34.3,34.3-51,51
				c-4.3,0-7.7,0-11.5,0c-10.8,10.8-21.9,21.9-33.2,33.2c-27.8,0-55.2,0-82.5,0c-3.5,0-7.1-0.1-10.5,0.6c-2.3,0.5-4.8,1.8-6.5,3.4
				c-14.3,14.1-28.4,28.3-42.6,42.4c-3.6,3.6-7.2,7.2-10.6,10.5c-6.8,0-13.1,0-18.9,0c-30.7,30.8-61.2,61.2-92.4,92.4
				c0.4,9.3,0.8,19.4,1.5,29.6c0.2,3.8-1.1,6.3-3.9,9.1c-23,22.8-45.7,45.9-68.6,68.9c-32.8,32.9-65.7,65.7-98.5,98.5
				c-1.6,1.6-3.3,3-4.5,4c0,6,0,11,0,16"/>
			<path fill="none" stroke="#081245" stroke-width="2" stroke-linecap="round" stroke-linejoin="round" stroke-miterlimit="10" d="
				M798.2-322.8c-1.5,1.8-2.9,3.8-4.5,5.5c-73.5,73.5-147,147-220.5,220.5c-1.6,1.6-3.3,3-4.7,4.3c0,9.6,0,18.4,0,28
				c-10.9,10.9-22.3,22.3-33.8,33.7C520.8-17,507-3.2,493.2,10.7c-2,2-4,3.1-7,3.1c-4.3-0.1-8.6,0.7-13.2,1.2
				c-9.9-9.9-19.8-19.8-29.3-29.3c-3.7,0-6.8,0-10.5,0c-4.8,4.8-10,9.8-14.9,15.1c-1.1,1.1-1.6,3.3-1.5,4.9c0.2,5,0.8,10,1.2,14.3
				c-24.5,24.5-48.5,48.5-72.5,72.5c-6.8,0-13.8,0-21.5,0c-4.8,4.8-10.2,10.2-15.7,15.8c-11.8,0-23.7,0-33.5,0
				c-7.5,6.8-13.7,12.4-20,18c0,8.3,0,16.1,0,24.2c-6.8,0.6-12.2,2.5-14.5,9.3c-1.5,4.4-0.2,11.2,3.6,14.5c4.1,3.6,8.8,4.6,14,2.5
				c4.5-1.8,7.8-7.2,8.1-12c0.5-7.8-4.6-11.2-10.5-14"/>
			<path fill="none" stroke="#081245" stroke-width="2" stroke-linecap="round" stroke-linejoin="round" stroke-miterlimit="10" d="
				M798.2-554.8c-2.8,3.3-5.4,6.9-8.5,10C678.8-434,568-323.2,457.2-212.3c-0.4,0.4-0.8,0.9-0.8,0.9c0,6.4,0,12.3,0,19.8
				c-37,37-75,75-112.5,112.5c-0.5,18.1-1,35.4-1.5,52.5c-32,32-64,64-96.3,96.3c-8.5,0-17.5,0-26.5,0"/>
			<path fill="none" stroke="#081245" stroke-width="2" stroke-linecap="round" stroke-linejoin="round" stroke-miterlimit="10" d="
				M798.2,194.7c-6.5,0.2-13,0.3-19.5,0.6c-1.4,0.1-3,0.6-3.9,1.5c-11.9,11.9-23.7,24-35.6,35.9c-5.3,5.4-10.6,10.8-16.1,15.9
				c-1,1-2.9,1.5-4.4,1.5c-13.2,0.1-26.3,0.1-39.5,0.1c-17.4,17.4-34.6,34.6-51.6,51.6c-8.3-0.5-13.9,3.1-19,8.8
				c-7.6,8.5-16.1,16.3-24.4,24.6c-32.3,0-64.7,0-97,0c-19,19-37.7,37.8-56.7,56.7c-5.2,0.3-10.5,0.4-15.8,0.9
				c-1.7,0.2-3.7,1.2-5,2.5c-29,28.8-57.9,57.8-86.3,86.2c0,12.6,0,24.4,0,35.8C265.2,576,207.1,634.7,148.7,693.7
				c0,2.5,0,5.5,0,8.5"/>
			<path fill="none" stroke="#081245" stroke-width="2" stroke-linecap="round" stroke-linejoin="round" stroke-miterlimit="10" d="
				M798.2-564.8c-2.2,2.8-4,6-6.5,8.5c-112.6,112.5-225.3,225-338,337.5c-1.6,1.6-3.3,3-4.7,4.2c0,6.4,0,12.1,0,17.5
				c-37.7,38-75.1,75.7-113,114c0,17.4,0,35.6,0,53c-23.5,23.5-46.5,46.5-70.2,70.2c-4.7,0-10.3,0-15.7,0c-1.5,1.7-2.9,4-4.9,5.4
				c-3.6,2.6-9.3,0.6-11.4-3.4c-1.8-3.4,0.3-9,4-11c3.6-2,9.3,0.1,11,4c0.5,1.2,0.7,2.7,1,4"/>
			<path fill="none" stroke="#081245" stroke-width="2" stroke-linecap="round" stroke-linejoin="round" stroke-miterlimit="10" d="
				M798.2,133.2c-13.2,0-26.3,0-39.3,0c-18.8,18.8-37.4,37.3-55.6,55.5c-14.2,0-27.9,0-42.1,0c-15,15-30.7,29.8-45.3,45.7
				c-5.5,6.1-11.4,5-18.3,5.3c-10.5,10.5-21.4,21.4-32.9,32.9c-22,0-44.5-0.1-67,0c-8.8,0.1-17.7,0.6-26.5,1
				c-1.2,0.1-2.6,0.7-3.5,1.5c-13.4,13.3-26.7,26.6-40,40c-4.3,4.3-8.4,9-13.1,12.8c-2,1.6-5.5,1.9-8.4,2.1
				c-4.3,0.3-8.7,0.1-13.1,0.1c-35.7,36-71.4,72.2-107.6,108.8c0,9.2,0,19.7,0,31c-15.9,15.9-32.3,32.3-48.7,48.8"/>
			<path fill="none" stroke="#081245" stroke-width="2" stroke-linecap="round" stroke-linejoin="round" stroke-miterlimit="10" d="
				M361.7,201.7c-7.3,0-14.7,0-22.5,0c-2.9,2.9-6.1,6.1-8.5,8.5c-18.7,0-36.3,0-55,0c-5.7,5.7-12.2,12-18.4,18.6
				c-1.3,1.4-2,3.9-2,5.9c-0.2,17.5-0.1,35-0.1,53.5c-19.4,19.4-39.6,39.6-59.5,59.5c0.4,6.5,0.8,12.5,1.2,17.8
				c-16,16-31.5,31.5-47.5,47.5c-28.4,0-57.6,0-87.5,0c-7.2,7.2-15,15-22.8,22.7c-11.6,11.5-23.4,22.9-35,34.5
				c-10.8,10.7-21.3,21.7-32,32.5c-10.6,10.6-21.3,21-32,31.5c-11.2,11.1-22.3,22.3-33.5,33.5c-10.7,10.7-21.3,21.3-32,32
				c-11.8,11.8-23.7,23.7-35.5,35.5c-22.2,22.2-44.3,44.3-66.5,66.5c-0.3,0.3-1,0.4-1.5,0.5"/>
			<path fill="none" stroke="#081245" stroke-width="2" stroke-linecap="round" stroke-linejoin="round" stroke-miterlimit="10" d="
				M342.2-586.8c-1.3,1-2.8,1.9-4,3c-45.5,45.5-91,91-136.5,136.5c-0.4,0.4-0.8,0.9-1,1.2c0,31.6,0,63,0,94.3c0,3.2,0.7,5.7,3,8
				c21.4,21.3,42.7,42.6,64,64c16.4,16.4,32.8,32.8,49,49c0,13-0.1,25.5,0.1,38c0,2.7-0.7,4.7-2.5,6.5c-25,25-50,50-75,75
				c-0.3,0.3-0.4,0.6-0.4,0.8c-0.5,10.9-0.9,21.5-1.4,32.8c-4.9,5.2-10.3,10.8-15.7,16.4"/>
			<path fill="none" stroke="#081245" stroke-width="2" stroke-linecap="round" stroke-linejoin="round" stroke-miterlimit="10" d="
				M798.2-541.8c-0.2,0.5-0.2,1.1-0.5,1.5c-13.5,13.5-27,27-40.5,40.5c-11.2,11.3-22.2,22.8-33.5,34c-10.7,10.6-21.7,21-32.5,31.5
				c-2.8,2.7-5.3,5.7-8,8.5c-38,38-76,76-114,114c-19.3,19.2-38.7,38.3-58,57.5c-16.3,16.3-32.5,32.8-48.5,49c0,6.8,0,13.1,0,19.8
				c-4.8,5-9.8,10.2-15,15.6c-0.4,12.9-0.8,26.2-1.3,39.4c-7.3,7.3-14.6,14.6-22.2,22.2c-5,0-10.5,0-15.5,0
				c-12.1,12.1-23.9,23.9-35.7,35.8c0,3.8,0,7.8,0,11.6c3.3,0.6,6.4,0.7,9.2,1.8c5.8,2.2,9.5,8.4,8.5,13.4c-1.1,5.6-6.2,11-11,11.5
				c-7.4,0.8-13.2-2.6-15.5-9c-1.8-5.1,0.5-11.4,5.5-15c0.9-0.6,1.7-1.3,2.5-2"/>
			<path fill="none" stroke="#081245" stroke-width="2" stroke-linecap="round" stroke-linejoin="round" stroke-miterlimit="10" d="
				M798.2-63.8c-0.8,1.2-1.5,2.5-2.5,3.5c-21.1,21-42.2,42.1-63.5,63c-13.7,13.4-27.8,26.6-42.9,41c-28.2,0-58.9,0-90.2,0
				c-5.1,5.1-10.5,10.6-15.9,16c-26.2,26.2-52.3,52.4-78.6,78.4c-3.8,3.7-5.2,7.6-4.9,12.6c0.1,2.5-0.3,5,0.1,7.5
				c1.4,10.6-1.9,18.6-10.4,25.7c-9.5,7.9-17.7,17.3-26.2,25.8c-4.2,0-7.8,0-12,0c-14.6-14.6-29.4-29.4-44-44c-15,0-29.5,0-44.5,0
				c-3,3-6.2,6.2-9.5,9.5"/>
			<path fill="none" stroke="#081245" stroke-width="2" stroke-linecap="round" stroke-linejoin="round" stroke-miterlimit="10" d="
				M126.7,316.7c4.2,3.8,9,7.2,12.3,11.7c1.8,2.5,1.4,6.8,1.7,10.3c0.3,3.6,0.1,7.3,0.1,9.3c-11.6,12.2-22.4,23.6-33,34.7
				c-23.3,0-46.1,0-69.5,0c-12.5,12.5-25.2,25.3-38,38c-26.1,26-52.4,51.9-78.5,78c-21.9,21.9-43.6,44-65.5,66
				c-19.1,19.1-38.4,38-57.5,57c-25.5,25.5-51,51-76.5,76.5c-1.5,1.5-3.3,2.7-5,4"/>
			<path fill="none" stroke="#081245" stroke-width="2" stroke-linecap="round" stroke-linejoin="round" stroke-miterlimit="10" d="
				M798.2-75.8c-5.5,5.7-10.9,11.4-16.5,17c-30,29.9-60.1,59.6-89.9,89.6c-2.2,2.2-3.9,2.9-6.6,2.9c-25.2,0.3-50.3,0.7-75.5,0.9
				c-8,0.1-14.2,2.3-20.2,8.4c-31.1,31.9-62.8,63.2-94.4,94.6c-2.7,2.7-3.9,5.5-3.9,9.1c0,8.3,0,16.7,0,24
				c-9.7,9.7-27.8,28.3-27.8,28.3l-9.7,0l-5.4-2.4L407,154.7h-41.9"/>
			<path fill="none" stroke="#081245" stroke-width="2" stroke-linecap="round" stroke-linejoin="round" stroke-miterlimit="10" d="
				M-298.8,702.2c3.2-2.7,6.6-5.1,9.5-8C-199.2,604-109,513.8-18.8,423.7c16.1-16.1,32.2-32.2,48-48c23.8,0,47.2,0,70,0
				c8.2-8.2,16.2-16.2,24.5-24.5c-0.2-1.5-0.6-3.5-0.8-5.1c2.8-1.5,6-2.4,8.3-4.5c3.2-2.9,2.7-7.7-0.4-10.9c-2.8-2.8-8.6-2.8-11.5,0
				c-3.1,2.9-3.4,7.7-0.5,11c1,1.1,2.3,2,3.5,3"/>
			<path fill="none" stroke="#081245" stroke-width="2" stroke-linecap="round" stroke-linejoin="round" stroke-miterlimit="10" d="
				M332.2-586.8c-1.3,1-2.8,1.9-4,3c-44.9,44.8-89.7,89.6-134.5,134.5c-0.4,0.4-0.8,0.9-0.7,0.9c-0.5,35.3-0.9,70-1.4,105
				c37,37,74.2,74.2,111.3,111.3c0,13.1,0,25.9,0,39.5c-25.3,25.3-51.2,51.2-76,76c0,10.8,0,20.3,0,31.8c-3,3.2-7.3,7.9-11.8,12.5
				c-5.1,5.1-10.5,9.8-15.3,15.2c-1.3,1.5-0.8,4.5-1.1,6.9"/>
			<path fill="none" stroke="#081245" stroke-width="2" stroke-linecap="round" stroke-linejoin="round" stroke-miterlimit="10" d="
				M225.2-586.8c-1.8,1.5-3.8,2.9-5.5,4.5C185.8-548.5,152.1-514.5,118-481c-4.9,4.8-6.2,9.5-5.9,15.7c0.3,7,0.5,14,0.5,21
				c0.1,19.5-0.1,39,0.1,58.5c0.1,16.5,0.6,33,0.9,49.5c0.1,4.7,0,9.3,0,14.5c26.6,26.6,53.4,53.4,80.5,80.5c0,12.7-0.1,25.3,0,38
				c0,3.1-0.5,5.7-3,8.1c-6.9,6.6-13.6,13.4-20.6,20.4c-8.8,0-17.7-0.2-26.5,0.1c-2.2,0.1-4.8,1.4-6.4,2.9
				c-8.8,8.5-17.4,17.3-26.1,25.9"/>
			<path fill="none" stroke="#081245" stroke-width="2" stroke-linecap="round" stroke-linejoin="round" stroke-miterlimit="10" d="
				M186.7,335.7c-2.2-2.1-6.2-1.6-7.2-6c-1-4.8,0.4-8.4,5.1-10.6c3.5-1.6,8.1,0.7,10,4.5c1.8,3.6-0.5,9.4-4,10.5
				c-1.6,0.5-3.1,1.3-4.3,1.8c0,8.8,0,17,0,24.9c-14.7,14.7-29.3,29.3-44.5,44.5c-28.1,0-56.9,0-86,0c-9.9,9.9-19.8,19.9-29.8,29.7
				c-11.3,11.2-22.7,22.3-34,33.5c-10.9,10.9-21.7,22-32.5,33c-11,11-22,22-33,33c-11.3,11.3-22.7,22.7-34,34
				c-10.2,10.2-20.3,20.4-30.5,30.5c-12,11.9-24.1,23.6-36,35.5c-12.7,12.8-25.3,25.7-38,38.5c-8.5,8.5-17,17-25.5,25.5
				c-1.3,1.3-3,2.4-4.5,3.5"/>
			<path fill="none" stroke="#081245" stroke-width="2" stroke-linecap="round" stroke-linejoin="round" stroke-miterlimit="10" d="
				M798.2-531.8c-1.3,1.7-2.5,3.5-4,5c-18.6,18.5-37.4,36.9-56,55.5c-26.1,26.1-52,52.4-78,78.5c-19.4,19.4-39,38.6-58.5,58
				c-15.3,15.2-30.3,30.7-45.5,46c-15.9,15.9-32,31.7-48,47.5c-12.2,12.1-24.4,24.2-36.4,36.6c-1.6,1.6-2.4,4.5-2.5,6.9
				c-0.2,4.8,0.4,9.7,0.6,14.8c-5.2,5.2-10.3,10.3-15.2,15.2c0,14.3,0,28.2,0,41.5c-8.1,8.1-15.9,15.9-23.5,23.5c-5.8,0-11.7,0-17,0
				c-11.9,11.9-23.8,23.8-35.7,35.7c-0.3-0.2-0.5-0.5-0.8-0.7c0,2.2,0,4.3,0,6.5"/>
			<path fill="none" stroke="#081245" stroke-width="2" stroke-linecap="round" stroke-linejoin="round" stroke-miterlimit="10" d="
				M798.2,23.2c0,0.3,0.1,0.8,0,1c-15.2,15.3-30.5,30.5-45.5,45.5c-3,0-5.5,0-8,0c-4.7,0-8.6,1.2-12.1,4.9
				c-10.8,11.4-22.1,22.3-33.4,33.6c-10,0-20,0-30,0c-8.7,8.7-17.3,17.3-25.5,25.5c-1.5,0-2.5,0-3.5,0c-6.2,0-13.1-1.8-18.3,0.5
				c-5.6,2.4-9.6,8.5-14.2,13c-8.3,8.2-16.5,16.5-24.5,24.5c-16.7,0-32.8,0-49.5,0c-19.1,19.1-38.4,38.4-57.7,57.8
				c-9.2,0-18.2,0-27.5,0c-3.8,3.8-7.7,7.7-10.7,10.8c-14.5,0-28,0-42.5,0c-6.2,6.2-13.1,13.1-20,20"/>
			<path fill="none" stroke="#081245" stroke-width="2" stroke-linecap="round" stroke-linejoin="round" stroke-miterlimit="10" d="
				M626.7,359.7c-7.4,7.4-14.8,14.8-22.2,22.2c-11.6,0-22.9,0-33.5,0c-8.1,8.1-15.7,15.7-23.6,23.6c0.5,9.2,1,19.2,1.5,29.5
				c-43.6,43.6-87.3,87.3-130.7,130.7c-10.7,0-20.8,0.1-31-0.1c-2.7,0-4.7,0.7-6.5,2.5c-18.5,18.5-37,37-55.5,55.5
				c-18.4,18.5-36.6,37-55,55.5c-7.8,7.8-16,15.4-24,23"/>
			<path fill="none" stroke="#081245" stroke-width="2" stroke-linecap="round" stroke-linejoin="round" stroke-miterlimit="10" d="
				M798.2,366.2c-0.5,0.8-0.8,1.8-1.5,2.5c-15.7,15.3-31.5,30.5-48.7,47c-9.5,0-21.1,0-31.8,0c-8.2,8.2-15.7,15.7-23.7,23.7
				c0.4,9.4,0.9,19.6,1.3,28.1c-10.4,11-19.8,21.2-29.6,31.1c-17.7,18-35.7,35.7-53.5,53.5c-14.7,14.8-29.4,29.6-43.9,44.6
				c-2.7,2.8-5.3,3.3-9.1,3.1c-9.5-0.5-19-0.2-29-0.2c-3.2,3.2-6.6,6.6-10,10c-29.5,29.5-59,59-88.5,88.5c-1.5,1.5-3.3,2.7-5,4"/>
			<path fill="none" stroke="#081245" stroke-width="2" stroke-linecap="round" stroke-linejoin="round" stroke-miterlimit="10" d="
				M798.2,85.2c-1.2,1.6-2.4,3.2-3.4,4.5c-16.8,0-33,0-49.6,0c-20.2,20.2-40.8,40.8-61.1,61.1c-18.9-0.4-37.4-0.9-55.2-1.3
				c-12.9,12.9-25.4,25.4-38.5,38.5c3,9.3-4,14.6-9.5,21.4c-6.6,8.3-14.7,2.3-23.1,5.2c-9,9-19.2,19.2-29.4,29.4
				c-24.1,0-47.9,0-72.8,0c-3.4,3.8-7.2,8-10.5,11.8c-12.2,0-23.6,0-35.1,0c-5.7,5.4-11.5,11-17.3,16.5"/>
			<path fill="none" stroke="#081245" stroke-width="2" stroke-linecap="round" stroke-linejoin="round" stroke-miterlimit="10" d="
				M190.2-586.8c-1.3,1-2.8,1.9-4,3c-33.2,33.1-66.4,66.3-99.5,99.5c-0.4,0.4-0.8,0.9-1.1,1.4c0.5,56.3,0.9,112.5,1.4,169.4
				c15.4,15.4,31.3,31.3,47.3,47.3c1.3,1.3,2.5,2.9,4,4c7.6,4.9,8.5,12.5,8.5,20.5c0,1.2,0,2.3-0.8,2.7
				c-19.4,19.9-38.8,39.8-58.2,59.8"/>
			<path fill="none" stroke="#081245" stroke-width="2" stroke-linecap="round" stroke-linejoin="round" stroke-miterlimit="10" d="
				M399.7,316.7c-3.7,0-7.3,0-11.5,0c-13.3,13.3-26.9,26.9-40.5,40.5c-10.8,10.7-21.7,21.3-32.5,32c-75.7,75.6-151.3,151.3-227,227
				c-0.3,0.3-0.6,0.7-1,1c-6.8,4.2-7.8,10.5-7.6,18c0.4,22.3,0.2,44.7,0.2,67"/>
			<path fill="none" stroke="#081245" stroke-width="2" stroke-linecap="round" stroke-linejoin="round" stroke-miterlimit="10" d="
				M798.2,141.7c-12.5,0-25,0-38,0c-7.5,7.5-15.3,15.2-23,23c-9.9,10-19.6,20.1-29.6,29.9c-1.4,1.3-3.9,1.9-5.9,2
				c-12.3,0.6-24.7,1-38.1,1.5c-16.5,17.1-33.6,34.7-49.9,51.6c-4.7-0.5-7.9-1.1-11-0.9c-1.4,0-2.9,1.3-4,2.4
				c-10.4,10.2-20.8,20.6-30.5,30.2c-32.5,0.5-64,1-96.2,1.5c-18.7,18.7-37.9,37.9-56.8,56.8c-6.8,0-13.2,0-19,0
				c-35.1,35.1-69.9,69.9-105.3,105.3c0,9.9,0,20.6,0,31.5c-16.1,16.1-32.2,32.2-48.2,48.2"/>
			<path fill="none" stroke="#081245" stroke-width="2" stroke-linecap="round" stroke-linejoin="round" stroke-miterlimit="10" d="
				M320.7-394.3c0,2.5,0,5,0,8c5.4,5.4,11.1,11.1,16.7,16.7c0.3,4.1,0.6,8,1,13.1c-3.6,3.6-8,8-12.7,12.7c0,3.3,0,7.2,0,11.5
				c-2.9,2.9-6.1,6.1-8.7,8.7c-0.5,8.5-1,16.1-1.5,24.1c25.1,25.1,50.3,50.3,75.7,75.7c0,10.5,0,21,0,32.5
				c-37.1,37.1-74.9,74.9-112.2,112.2c-0.5,15.8-0.9,30.8-1.4,46.4c-16.4,16.4-33.2,33.2-49.9,49.9c-2.7,2.7-5.1,5.7-8.1,7.9
				c-4.5,3.3-5.8,7.4-4.4,12.6"/>
			<path fill="none" stroke="#081245" stroke-width="2" stroke-linecap="round" stroke-linejoin="round" stroke-miterlimit="10" d="
				M798.2-182.8c-16.2,16.3-32.3,32.7-48.5,49c-20,20-40,40-60,60C667.8-52,645.9-30.2,624.2-8.3c-2.7,2.8-5.5,3.5-9.1,3.5
				c-12.8-0.1-25.7-0.1-39.5-0.1c-11.3,11.3-23.4,23.4-35.5,35.5c-12,12-24.3,23.7-35.9,36.1c-4.4,4.8-9.3,5.9-15.1,5.9
				c-24.2,0-48.3,0-73.5,0c-1-1.1-2.5-2.8-4-4.5"/>
			<path fill="none" stroke="#081245" stroke-width="2" stroke-linecap="round" stroke-linejoin="round" stroke-miterlimit="10" d="
				M377.2-586.8c-1.8,1.5-3.8,2.9-5.5,4.5c-30.5,30.5-61,61-91.5,91.5c-16.2,16.2-32.3,32.4-48.6,48.4c-3,2.9-4.2,5.7-4.1,10.1
				c0.4,18.7,0.2,37.3,0.2,56c0,7,0,14,0,21.5c43.2,43.2,86.8,86.8,129.5,129.5c0,9.3,0.1,17.7-0.1,26c0,1.3-1,3-2,4
				c-13.3,13.4-26.6,26.7-40,40c-19.6,19.6-39.2,39.2-58,58c0,13.7,0,26.3,0,40c-14.1,14.1-28.9,28.9-43.5,43.5c0,5.5,0,10.5,0,15.5
				"/>
			<path fill="none" stroke="#081245" stroke-width="2" stroke-linecap="round" stroke-linejoin="round" stroke-miterlimit="10" d="
				M212.2-586.8c-1,0.8-2.1,1.6-3,2.5c-34.7,34.7-69.3,69.3-104,104c-0.9,0.9-2.2,1.5-3.3,2.2c0.5,0.3,1.1,0.6,1.6,0.9
				c0,52.7,0,105.3,0,157.7c27.2,27.2,53.8,53.8,80.8,80.8c0,13.2,0,26.3,0,39.5c-6.1,6.1-12.4,12.4-19,19c-11.8,0-24.2,0-36.5,0"/>
			<path fill="none" stroke="#081245" stroke-width="2" stroke-linecap="round" stroke-linejoin="round" stroke-miterlimit="10" d="
				M178.2-586.8c-8,7.5-16.1,14.9-24,22.5c-11.1,10.9-22,22-33,33c-14.9,14.9-29.8,29.8-44.8,44.8c0.7,58.2,1.4,116.2,2.2,174.6
				c10.1,10.1,20.3,20.4,30.6,30.6c7.4,7.4,15.1,14.6,22.4,22.1c1.1,1.1,1.5,3.2,1.5,4.9c0,3.3-0.4,6.7-0.7,10.8
				c-10.1,10.1-20.6,20.6-31.2,31.2"/>
			<path fill="none" stroke="#081245" stroke-width="2" stroke-linecap="round" stroke-linejoin="round" stroke-miterlimit="10" d="
				M575.7,228.2c2.7-3.8,6.2-5.8,11.1-4.6c1.6,1.4,3.3,2.7,4.3,3.5c1.1,8-0.8,11.7-5.9,12.5c-5.9,1-8.9-2.2-10-10.5
				c-5.1-1-8.6,1.3-12.1,4.9c-9.2,9.7-18.8,18.9-27.4,27.6c-25.2,0-49.3,0-75.1,0c-1.8,1.9-4.6,5-7.4,8c-2.2,2.3-4.7,3.1-8,3.1
				c-10.5-0.2-21-0.1-31.5-0.1c-11.8,11.8-23.7,23.8-36,36c0,2.2,0.2,4.9-0.1,7.5c-0.2,1.9-0.4,4.2-1.5,5.4
				c-5.5,5.9-11.4,11.6-17,17.1c-4.8-0.4-9.1-0.8-14.2-1.3c-3.7-3.7-7.9-7.9-11.8-11.8c-9.6,9.6-18.9,18.9-28.5,28.5
				c0,5.7,0,11.8,0,17.8c-89,89.4-177.9,178.7-267,268.2c0,20.4,0,41.2,0,62"/>
			<path fill="none" stroke="#081245" stroke-width="2" stroke-linecap="round" stroke-linejoin="round" stroke-miterlimit="10" d="
				M798.2-158.8c-0.8,1.3-1.4,2.9-2.5,4c-16.8,16.7-33.7,33.3-50.4,50.1c-15.9,15.9-31.6,32-47.5,48c-14.4,14.4-28.9,28.8-43.5,43
				c-7,6.8-14.3,13.4-23,21.4c-12.8-0.4-28.2-0.9-44-1.4c-31.5,31.5-63.1,63.1-94.2,94.2c-14.2,0.5-27.5,0.8-40.8,1.4
				c-1.7,0.1-3.7,0.9-4.9,2c-3,2.6-5.7,5.6-8.6,8.4"/>
			<path fill="none" stroke="#081245" stroke-width="2" stroke-linecap="round" stroke-linejoin="round" stroke-miterlimit="10" d="
				M430.7,346.7c-3.4,3.4-6.8,6.8-10,10c-6.8,0-13.2,0-19,0c-33.4,33.4-66.6,66.6-100.3,100.3c0,10.4,0,21.6,0,33.5
				c-59,59-118.5,118.5-177.8,177.8c0,11.7,0,22.8,0,34"/>
			<path fill="none" stroke="#081245" stroke-width="2" stroke-linecap="round" stroke-linejoin="round" stroke-miterlimit="10" d="
				M795.2-586.8c-1.8,1.5-3.8,2.9-5.5,4.5c-24.9,24.8-49.7,49.6-74.5,74.5c-30.8,30.8-61.7,61.7-92.5,92.5
				C561.5-354.2,500.3-293,439.2-231.8c-0.6,0.6-0.7,1.6-0.7,1.5c-4.7,0-8,0-11.3,0"/>
			<path fill="none" stroke="#081245" stroke-width="2" stroke-linecap="round" stroke-linejoin="round" stroke-miterlimit="10" d="
				M798.2-307.8c-1.2,1.5-2.2,3.1-3.5,4.5C734.8-243.5,675-183.7,615.2-123.8c-13.3,13.3-26.5,26.5-39.5,39.5
				c0,3.8-0.6,7.3,0.1,10.5c2,9.6-3.3,15.6-9.6,21.6c-10,9.5-19.8,19.2-29.5,29c-7.9,7.9-15.6,16-23.5,24
				c-6.1,6.1-12.6,11.8-18.4,18.1c-2.7,3-5.3,4.1-9.1,4c-8.5-0.2-17-0.1-25.5-0.1"/>
			<path fill="none" stroke="#081245" stroke-width="2" stroke-linecap="round" stroke-linejoin="round" stroke-miterlimit="10" d="
				M435.7,351.7c-2.7,2.7-5.7,5.1-7.9,8.1c-3.7,4.8-8.6,6.3-14.1,5.9c-6.9-0.6-11.7,2-16.6,7c-27.2,27.8-54.6,55.4-82.6,82.4
				c-6.1,5.9-7.8,11.9-7.4,19.7c0.4,7.3,0.1,14.7,0.1,23c-58.4,58.4-117.6,117.6-176.5,176.5c0,9.7,0,18.8,0,28"/>
			<path fill="none" stroke="#081245" stroke-width="2" stroke-linecap="round" stroke-linejoin="round" stroke-miterlimit="10" d="
				M798.2,159.7c-10.3,0-20.7,0-31,0c-18.7,18.7-37.3,37.3-55.8,55.8c-14.3,0-28.3,0-42.5,0c-17.2,17.2-34.3,34.3-51.2,51.2
				c-4.3,0-8.2,0-12.5,0c-10.6,10.6-21.4,21.4-32.1,32.1c-32.2,0.6-64,1.2-96.3,1.8c-14.6,14.6-29.4,29.4-44.1,44.1"/>
			<path fill="none" stroke="#081245" stroke-width="2" stroke-linecap="round" stroke-linejoin="round" stroke-miterlimit="10" d="
				M155.2-586.8c-6.8,6.7-13.7,13.3-20.5,20c-23.5,23.5-47,47-70.5,70.5c-1.6,1.6-3.3,3-4.5,4c0,62.5,0,124,0,186
				c13.8,13.8,27.9,27.9,42,42c1.7,1.7,3.2,3.8,3.9,6c1.4,4,0.1,7-3.3,10.1c-7.9,7.2-15.1,15.2-22.6,22.9"/>
			<path fill="none" stroke="#081245" stroke-width="2" stroke-linecap="round" stroke-linejoin="round" stroke-miterlimit="10" d="
				M200.2-586.8c-1.3,1-2.8,1.9-4,3c-33.9,33.8-67.7,67.6-101.5,101.5c-0.4,0.4-0.8,0.9-1.1,1.3c0.8,54.5,1.6,108.9,2.4,164
				c20.9,20.9,42.4,42.4,63.4,63.4c0,9.8,0,18.8,0,28.1c-5.1,1.1-9.9,3-9.7,9.2c0.1,3.6,2.2,6.3,5.9,7.5c4.9,1.7,7.4-1.3,9.9-4.1
				c1.2-7.1,0.7-8-5.9-12"/>
			<path fill="none" stroke="#081245" stroke-width="2" stroke-linecap="round" stroke-linejoin="round" stroke-miterlimit="10" d="
				M797.9,167.7c-4.2,0.2-8.5,0.4-12.8,0.5c-5.5,0.1-11,0-16.5,0c-18.7,18.7-37.3,37.3-55.2,55.2c-14.4,0.6-27.8,1.2-41.8,1.8
				c-16.9,16.9-34.1,34.1-51.1,51.1c-4.1-0.3-7.7-0.5-11.8-0.7c-10.7,10.7-21.6,21.6-32.6,32.6c-32.3,0-64.7,0-97,0
				c-14,14-27.7,27.7-41.5,41.5"/>
			<path fill="none" stroke="#081245" stroke-width="2" stroke-linecap="round" stroke-linejoin="round" stroke-miterlimit="10" d="
				M285.2-586.8c-3.5,3-7.2,5.8-10.5,9c-12.6,12.4-25.1,24.9-37.5,37.5c-16.2,16.3-32.3,32.7-48.5,49c-9.9,9.9-19.9,19.8-30,29.5
				c-3.8,3.6-5.4,7.1-5.1,12.6c0.5,10-0.2,20-0.3,30c-0.1,21.2,0,42.3,0,63.5c0,8.3,0,16.7,0,26c30,30,60.7,60.7,91.5,91.5"/>
			<path fill="none" stroke="#081245" stroke-width="2" stroke-linecap="round" stroke-linejoin="round" stroke-miterlimit="10" d="
				M322.2,355.7c-1.9,1.9-3.8,3.8-5.3,5.3c-0.4,5.7-0.7,10.7-1.1,16.1c-80.4,80.4-160.9,160.9-241.1,241.1c0,28.3,0,56.2,0,84"/>
			<path fill="none" stroke="#081245" stroke-width="2" stroke-linecap="round" stroke-linejoin="round" stroke-miterlimit="10" d="
				M434.2-586.8c-1.5,1.2-3.1,2.2-4.5,3.5c-19.2,19.3-38.3,38.7-57.5,58c-18.2,18.3-36.7,36.3-55,54.5c-4.3,4.2-8.4,8.6-12.6,12.9
				c0.4,4.5,0.6,8.8,1.2,13.1c0.2,1.3,1.4,2.5,2.4,3.5c5.2,5.3,10.5,10.5,16,16c10.1,0,20.8,0,32,0c6.7,6.7,13.7,13.7,20.3,20.3
				c-0.3,4.8-0.6,9-0.8,13.2c-0.2,3.3-1.3,6.1-3.9,8.6c-8.2,7.8-15.9,16.2-24.2,23.8c-3.8,3.5-4.8,7.5-4.9,12.1c-0.1,4.2,0,8.3,0,13
				c3.9,3.9,8.1,8.1,12,12c0,4.7,0,8.8,0,13.4c5.1,0.9,9.5,3.1,9.4,9.1c-0.1,5.4-4.1,7.6-9.3,8.3c-3.3-1.6-7.1-3.3-7.1-8.3
				c0.1-4.3,2.5-7,6.5-8.5"/>
			<path fill="none" stroke="#081245" stroke-width="2" stroke-linecap="round" stroke-linejoin="round" stroke-miterlimit="10" d="
				M798.2,357.2c-18.1,17.6-36.2,35.1-55.7,54c-8.2,0-18.5-0.1-28.8,0.1c-2,0-4.5,0.7-5.9,2c-6.9,6.5-13.6,13.4-20.1,19.9
				c0,10.2,0,19.8,0,28c-44.3,44.8-87.8,88.8-130.8,132.3c-11.7,0-22.7,0-34.3,0c-9.7,9.5-19.9,19.3-30,29.3
				c-15.6,15.4-31,31-46.5,46.5c-9.6,9.6-19,19.4-28.5,29c-1.6,1.6-3.6,2.7-5.5,4"/>
			<path fill="none" stroke="#081245" stroke-width="2" stroke-linecap="round" stroke-linejoin="round" stroke-miterlimit="10" d="
				M798.2,220.2c-11.2,0-22.3,0-35,0c-12.3,13-25.4,26.8-37.6,39.7c-15.5,0-29.2,0-43.6,0c-16.8,16.8-34.2,34.2-51.2,51.2
				c-4.2-0.2-7.9-0.4-11.9-0.6c-10.9,10.9-21.9,21.9-32.9,32.9c-32,0.5-63.6,1-95.9,1.4c-7.5,7.5-15.5,15.4-23.4,23.4
				c-6,6-12,12-18,18c-3.8,3.8-7.8,7.6-11.5,11.5c-2.5,2.7-5.4,3.9-9,3.5c-1.8-0.2-3.7,0.1-5.5-0.1c-6.3-0.5-11,1.6-15.6,6.4
				c-16.8,17.4-34.1,34.2-51.4,51.1c-9.5,9.3-19.2,18.5-28.2,27c0.6,13,1.2,24.5,1.6,36c0.1,1.8-0.8,4.1-2,5.4
				c-6.3,6.8-12.9,13.5-19.4,20.1c-12.1,12.2-24.3,24.4-36.5,36.5c-11,10.9-22.1,21.6-33,32.5c-11.7,11.8-23.3,23.7-35,35.5
				c-9.6,9.6-19.3,19-29,28.5c-5.5,5.5-11.1,10.9-16.4,16.6c-1.2,1.3-1.4,3.6-2.1,5.4"/>
			<path fill="none" stroke="#081245" stroke-width="2" stroke-linecap="round" stroke-linejoin="round" stroke-miterlimit="10" d="
				M324.2-586.8c-1.5,1.3-3.1,2.6-4.5,4c-42.7,42.7-85.3,85.4-128.1,127.9c-3.4,3.3-4.4,6.7-4.4,11.1c-0.1,14.5-0.3,29-0.5,43.5
				c-0.2,19.2-0.3,38.3-0.5,57.5c0,2.4,0.4,4.1,2.4,6.1c15.5,15.3,30.7,31,46.1,46.4c15.2,15.3,30.7,30.3,46,45.5
				c4.2,4.2,8.2,8.5,12.5,13.1c0,12.6,0,25.3,0,38.9c-25.5,25.5-51.7,51.7-78,78"/>
			<path fill="none" stroke="#081245" stroke-width="2" stroke-linecap="round" stroke-linejoin="round" stroke-miterlimit="10" d="
				M168.2-586.8c-3.5,3-7.2,5.8-10.5,9c-17.2,17.1-34.4,34.3-51.5,51.5c-11.8,11.8-23.7,23.6-35.4,35.6c-1.2,1.3-2,3.6-2,5.4
				c-0.1,34.7-0.1,69.3-0.1,104c0,5.5,0,11,0,16.5c0,18.3,0,36.7,0,54.8c15.9,16.1,31.4,31.9,47,47.7"/>
			<path fill="none" stroke="#081245" stroke-width="2" stroke-linecap="round" stroke-linejoin="round" stroke-miterlimit="10" d="
				M521.7-299.3c-28.5,28.5-56.9,57.1-85.6,85.4c-3.6,3.6-5,7.4-4.9,12.1c0.2,5.6-1.6,9.9-5.9,14.1c-21.9,21.4-43.6,43.1-65.1,64.9
				c-16.4,16.6-32.4,33.6-49.5,51.4c0,16.9,0,35.8,0,55.1c-10,10-20.2,20.2-30.5,30.5c-1.8,1.8-4,3.5-5.4,5.5
				c-3.3,4.6-7.6,5.1-12.6,4"/>
			<path fill="none" stroke="#081245" stroke-width="2" stroke-linecap="round" stroke-linejoin="round" stroke-miterlimit="10" d="
				M166.7,309.2c-6.1,6.1-12.2,12.2-18.2,18.2c0.5,9,1,17.6,1.3,24.3c-13.5,14-25.9,26.9-38,39.5c-21.9,0-43.2,0-64.6,0.1
				c-1.8,0-3.8,1.1-5.5,2c-1.2,0.7-2,1.9-3,2.9C-20.2,455-79,513.9-137.8,572.7c-31.3,31.2-62.7,62.3-94,93.5
				c-11.6,11.6-23,23.3-34.5,35c-0.6,0.6-1.6,0.7-2.5,1"/>
			<path fill="none" stroke="#081245" stroke-width="2" stroke-linecap="round" stroke-linejoin="round" stroke-miterlimit="10" d="
				M798.2,344.2c0,0.3,0.1,0.8,0,1c-19.9,19.9-39.8,39.9-59.5,59.5c-11.8,0-23.2,0-34,0c-8,8-15.7,15.7-23.5,23.5
				c0.5,9.5,1.1,19.5,1.6,28.9c-44,44-87.7,87.7-131.1,131.1c-10.2,0-20.3-0.1-30.5,0.1c-2.7,0-5,1.2-7.1,3.4
				c-12.2,12.5-24.6,24.7-36.9,37.1c-21.5,21.5-43,43-64.5,64.5c-3,3-6,5.8-9,8.8"/>
			<path fill="none" stroke="#081245" stroke-width="2" stroke-linecap="round" stroke-linejoin="round" stroke-miterlimit="10" d="
				M632.7,438.7c-2-1.5-4-3-6.6-5c-2.9,0-6.9,0-11.5,0c-4.8,4.8-10.2,9.6-14.8,15.1c-2.5,3-5,4.1-8.6,3.9c-4.8-0.2-9.7,0-15,0
				c-13.3,13.3-26.9,26.9-40.5,40.5c-14.1,14-28.3,28.1-42.5,42c-2.3,2.2-2.5,4.7-2.5,7.5c0.1,10.3,0,20.7,0,31
				c0.6,0.3,1.3,0.6,1.9,0.9c-1,0.5-2.1,0.9-2.9,1.7c-41.4,41.3-82.7,82.6-124,124c-0.8,0.7-1.7,1.3-2.5,2"/>
			<path fill="none" stroke="#081245" stroke-width="2" stroke-linecap="round" stroke-linejoin="round" stroke-miterlimit="10" d="
				M526.7,430.7c0.2,3,0.5,6,0.4,9c-0.1,3-0.9,5.7-3.4,8.1c-21.5,21.2-42.7,42.6-64.1,63.9c-16.1,16.1-32.2,32.2-47.5,47.5
				c-9.8,0-18.7-0.1-27.5,0.1c-1.3,0-3,1-4,2c-17.9,17.8-35.7,35.7-53.5,53.5c-28.3,28.2-56.7,56.3-85,84.5c-1.2,1.2-2.6,2-4,3"/>
			<path fill="none" stroke="#081245" stroke-width="2" stroke-linecap="round" stroke-linejoin="round" stroke-miterlimit="10" d="
				M476.7,449.2c-1.2-1.2-2.3-2.3-3-3c-11.3,0-22.2,0-33,0c-13,13-25.8,25.7-38.4,38.6c-1.2,1.2-2,3.3-2,4.9
				c0.4,14.2,1,28.3,1.5,42.6c-2.6,3-5.1,5.9-7.3,8.4c-4.8,0-8.8,0-13.3,0c-9.5,9.5-19.2,19.3-29,29c-16,15.9-32,31.6-48,47.5
				c-10.8,10.7-21.3,21.7-32,32.5c-10.9,10.9-22,21.7-33,32.5c-5.7,5.6-11.3,11.4-17,17c-1.2,1.2-2.6,2-4,3"/>
			<path fill="none" stroke="#081245" stroke-width="2" stroke-linecap="round" stroke-linejoin="round" stroke-miterlimit="10" d="
				M798.2-43.8c-8.8,9-17.7,18-26.5,27c-11.5,11.7-23,23.4-34.5,35c-13.1,13.2-26.3,26.4-39.5,39.5c-0.7,0.7-1.9,0.9-3,1
				c-3.3,0.3-6.7,0.5-10,0.5c-20.3,0-40.7,0-61,0c-5.7,5.7-11.3,10.9-16.4,16.6c-1.8,2.1-3,5.1-3.5,7.9c-1.5,8.5-5.5,15.2-12.7,20
				c-8.8,0-17.6,0-25.9,0c-14.9,14.9-29.6,29.6-44.7,44.7c0.2,3.7,0.4,8,0.7,12.3"/>
			<path fill="none" stroke="#081245" stroke-width="2" stroke-linecap="round" stroke-linejoin="round" stroke-miterlimit="10" d="
				M637.7,360.2c-1.7,2-3.2,4.1-5,6c-7.9,8-15.8,15.9-24,24c-10.5,0-21-0.1-31.5,0.1c-1.7,0-3.8,0.4-4.9,1.5
				c-7.1,6.9-13.9,14.1-20.3,20.7c0,10.1,0,19.4,0,29.5c-43.3,43.3-87.2,87.2-130.5,130.5c-11.7,0-22.7,0-35,0
				c-7.1,7.2-14.8,15.3-22.7,23.2c-10.6,10.6-21.4,21-32,31.5c-19.4,19.3-38.7,38.7-58,58c-5.8,5.7-11.7,11.3-17.5,17"/>
			<path fill="none" stroke="#081245" stroke-width="2" stroke-linecap="round" stroke-linejoin="round" stroke-miterlimit="10" d="
				M724.7-586.3c-10.7,10.5-21.4,21-32,31.5c-17.7,17.6-35.3,35.3-53,53c-45.7,45.7-91.3,91.3-137,137c-8.6,8.6-17.2,17.2-25.5,25.5
				c-11,0-21.5,0-33.1,0c-3.6-4.3-7.8-9.1-11.5-13.5c-6.9,0-12.4,0-17.9,0"/>
			<path fill="none" stroke="#081245" stroke-width="2" stroke-linecap="round" stroke-linejoin="round" stroke-miterlimit="10" d="
				M316.2,236.2c-6,0-12,0-18,0c-5.6,5.6-11.4,11.4-17.1,17.1c-0.5,12.4-0.9,24.9-1.5,37.4c-0.1,1.7-0.8,3.8-2,4.9
				c-13.4,13.4-26.9,26.8-40.5,40c-8.8,8.5-17.9,16.8-26.6,25c0.5,7.5,0.9,14,1.3,19.9c-16.2,16.2-32,32-47.6,47.6
				c-8.7,0-17.3,0-26,0c-11.7,0-23.3-0.1-35,0.1c-2,0-4.5,1.1-5.9,2.5c-11.1,10.9-22.1,21.9-33.1,32.9C42,486,19.9,508.4-2.3,530.7
				c-23,23-46,46-69,69c-19.8,19.7-39.6,39.4-59.5,59c-14.7,14.5-29.3,29-44,43.5"/>
			<path fill="none" stroke="#081245" stroke-width="2" stroke-linecap="round" stroke-linejoin="round" stroke-miterlimit="10" d="
				M662.7,451.7c0,4.5,0,9,0,13c-38.7,38.7-77.2,77.2-115.7,115.7c-9.3,0-18.8,0-28.3,0c-0.3-0.4-0.7-0.8-1-1.2
				c-1.5,2-2.8,4.2-4.5,6c-37.6,37.7-75.3,75.4-113,113c-1.5,1.5-3.3,2.7-5,4"/>
			<path fill="none" stroke="#081245" stroke-width="2" stroke-linecap="round" stroke-linejoin="round" stroke-miterlimit="10" d="
				M798.2-576.8c-0.5,0.8-0.9,1.8-1.5,2.5c-19.5,19.7-38.9,39.4-58.5,59c-18.4,18.4-37,36.6-55.5,55c-53,53-106,106-159,159"/>
			<path fill="none" stroke="#081245" stroke-width="2" stroke-linecap="round" stroke-linejoin="round" stroke-miterlimit="10" d="
				M334.7,217.7c-15.3,0-30.7,0.1-46-0.1c-3.7-0.1-6.5,1-9,3.6c-5.4,5.6-11,11-16.7,16.8c0,18.9,0,38.1,0,57.5
				c-19.8,19.8-39.7,39.7-59.5,59.5c0.3,6.2,0.7,12.2,1,18c-16,15.8-32,31.6-49,48.5c-23.5,0-48.9,0-75,0
				c-8.4,8.4-17.3,17.4-26.3,26.2c-8,7.9-16,15.7-24,23.5"/>
			<path fill="none" stroke="#081245" stroke-width="2" stroke-linecap="round" stroke-linejoin="round" stroke-miterlimit="10" d="
				M705.2-586.8c-74.2,74-148.3,148-222.5,222c-1.6,1.6-3,3.3-4.2,4.7c-7.8,0-14.8,0-22,0c-3.6-3.6-7.2-7.2-10.7-10.8"/>
			<path fill="none" stroke="#081245" stroke-width="2" stroke-linecap="round" stroke-linejoin="round" stroke-miterlimit="10" d="
				M642.7-246.3c-12,12.2-24,24.4-36.1,36.4c-1,1-2.9,1.5-4.4,1.5c-11-0.3-22-0.9-32.1-1.3c-10.3,10.3-20,20-29.6,29.6
				c0,3.4,0,7.1,0,11.5c-15.1,15.1-30.7,30.7-46.2,46.2c-9.7,9.7-19.3,19.4-29,29c-2.2,2.2-3,4.2-2.7,7.5c0.6,5.6,0.2,11.3,0.2,19
				c-13,12.5-27,26-41,39.5"/>
			<path fill="none" stroke="#081245" stroke-width="2" stroke-linecap="round" stroke-linejoin="round" stroke-miterlimit="10" d="
				M393.7,202.2c-0.2,4-0.4,8-0.6,12.5c-6.3,6.5-12.8,13.3-19.5,19.9c-1.1,1.1-2.9,1.9-4.4,2c-9,0.2-18,0.1-27.5,0.1
				c-11.7,11.7-23.6,23.6-35.5,35.5c-1.5,1.5-2.8,3.3-4.5,4.4c-5.2,3.4-6.6,8.1-6,14.1c0.4,4.3,0.1,8.7,0.1,14.2
				c-4.8,4.8-10.3,10.6-16,16.3c-5.1,5.1-10.5,9.9-15.4,15.1c-1.2,1.3-1.1,3.9-1.6,5.9c-0.4,2-0.8,4-1.4,6.9
				c-37.3,37.3-75.2,75.2-113.1,113.1"/>
			<path fill="none" stroke="#081245" stroke-width="2" stroke-linecap="round" stroke-linejoin="round" stroke-miterlimit="10" d="
				M469.7,478.7c-14,14.2-28,28.3-42,42.5c-7.3,7.4-15.1,14.3-21.8,22.1c-4,4.6-8.1,6.3-13.6,4.8c-3.5-0.9-6-0.2-8.6,2.5
				c-10.5,10.8-21.2,21.4-31.9,32.1c-8.8,8.7-17.7,17.3-26.5,26c-18.4,18.4-36.6,37.1-55,55.5c-12.9,12.8-26,25.4-39,38"/>
			<path fill="none" stroke="#081245" stroke-width="2" stroke-linecap="round" stroke-linejoin="round" stroke-miterlimit="10" d="
				M798.2,74.2c-4.4,6.9-11.1,7.8-18.5,7.6c-11.5-0.3-23-0.1-34-0.1c-12.6,12.6-24.4,24.4-36.5,36.5c-12.5,0-25,0-37.5,0
				c-8.1,8.1-15.9,15.9-23.2,23.3c-8.4,0-16.1,0-24.5,0c-8.1,8.1-16.7,16.7-25.2,25.2c-6.8,6.8-13.7,13.7-20.5,20.5
				c-2.4,2.4-5.1,3.3-8.5,3.1c-3.5-0.2-7,0.2-10.5,0.4"/>
			<path fill="none" stroke="#081245" stroke-width="2" stroke-linecap="round" stroke-linejoin="round" stroke-miterlimit="10" d="
				M629.2-215.8c-3-0.4-5.5,0.4-7.6,2.9c-2.7,3.2-5.8,6.2-9,9c-1.1,1-2.9,1.5-4.4,1.5c-10.8-0.3-21.7-0.8-31.7-1.2
				c-10.2,10.2-19.9,19.9-29.8,29.8c0-0.3,0-0.2,0,0c1.8,8.6-2.6,14.4-8.4,20.1c-16.1,15.6-31.7,31.6-47.6,47.4
				c-6.3,6.2-12.6,12.4-19,18.5c-2.2,2.1-3.4,4.4-3,7.5c0.2,1.8-0.2,3.7,0.1,5.5c1.3,9.3-1.9,15.9-9.3,22.3
				c-11.3,9.6-21.2,20.8-31.7,31.3"/>
			<path fill="none" stroke="#081245" stroke-width="2" stroke-linecap="round" stroke-linejoin="round" stroke-miterlimit="10" d="
				M297.2-586.8c-1.7,1.3-3.5,2.5-5,4c-40.7,40.6-81.3,81.4-122.1,121.9c-3.1,3.1-3.9,6.1-3.9,10.1c-0.1,25-0.2,50-0.5,75
				c-0.1,12.2-0.6,24.3-1,36.5c-0.1,2.5,0.6,4.2,2.5,6.1c11.8,11.5,23.4,23.2,35.1,34.9c11,11.1,22,22.4,33,33.5
				c8.1,8.1,16.3,16.1,24.5,24c1.6,1.6,3.6,2.7,5,3.7c0,6.3,0,11.3,0,16.3"/>
			<path fill="none" stroke="#081245" stroke-width="2" stroke-linecap="round" stroke-linejoin="round" stroke-miterlimit="10" d="
				M798.2,97.7c-16,0-32,0-48.5,0c-20.2,20.2-40.8,40.8-60.5,60.5c-19.5,0-38,0-57.5,0c-11.3,11.3-23.7,23.2-35.3,35.7
				c-2.5,2.7-2.4,7.7-3.5,11.6c0.3,0.2,0.7,0.3,1,0.5c-4.6,4.6-8.9,9.5-13.9,13.6c-2,1.7-5.5,1.7-8.4,2.1c-2.6,0.3-5.3,0.1-8.5,0.1
				c-9.9,9.9-20.1,20.1-30.5,30.5c-24.3,0-48.7,0-70.9,0c-5.4,4.5-9.4,7.9-13.7,11.5c-10.7,0-22.1,0-34.9,0
				c-6.2,6.2-13.1,13.1-20.6,20.6c0.4-4.6,3.1-9.1-1-12.5c-1.6-1.3-3.9-2.3-5.9-2.5c-5.2-0.3-8,3.7-8,10.9c5.2,6.4,7.1,6.8,14.9,3.8
				c-2.7,4.8-7.2,8.2-10.9,12.1c-3.8,4-7.8,7.9-11.3,11.3c-3.4,0.3-6,0.5-8.7,0.7"/>
			<path fill="none" stroke="#081245" stroke-width="2" stroke-linecap="round" stroke-linejoin="round" stroke-miterlimit="10" d="
				M675.2-216.3c-38.6,38.6-77.2,77.2-115.8,115.8c0.4,10.4,0.9,20.5,1.3,30.2c-22,22-43.9,43.9-65.9,65.9c-3.8,0-8.2,0-12.5,0"/>
			<path fill="none" stroke="#081245" stroke-width="2" stroke-linecap="round" stroke-linejoin="round" stroke-miterlimit="10" d="
				M354.2-586.8c-12.7,12.5-25.4,24.9-38,37.5C281-514.2,245.8-479,210.7-443.8c-0.4,0.4-0.8,0.9-1,1.2c0,22.3,0,44.3,0,66.3
				c0,5.3-0.3,10.7-0.5,16c-0.3,11.7-0.3,11.7,8.5,20.5c35.8,35.8,71.7,71.7,107.5,107.5c1.6,1.6,3.3,3,4.5,4c0,4.8,0,8.7,0,12.5"/>
			<path fill="none" stroke="#081245" stroke-width="2" stroke-linecap="round" stroke-linejoin="round" stroke-miterlimit="10" d="
				M689.7-586.3c-8.8,8.7-17.7,17.3-26.5,26c-21.5,21.3-43.1,42.6-64.5,64c-14.6,14.6-28.9,29.4-43.5,44
				c-24.9,24.8-49.9,49.5-74.8,74.2c-2.5,0.3-4.8,0.6-7.2,0.8"/>
			<path fill="none" stroke="#081245" stroke-width="2" stroke-linecap="round" stroke-linejoin="round" stroke-miterlimit="10" d="
				M17.7,483.7c-13.3,13.3-26.7,26.6-40,40c-15.5,15.6-31,31.4-46.5,47c-10.1,10.1-20.4,20-30.5,30c-11.7,11.6-23.3,23.3-35,35
				c-22.2,22.2-44.3,44.3-66.5,66.5c-0.2,0.2-0.6,0-1,0"/>
			<path fill="none" stroke="#081245" stroke-width="2" stroke-linecap="round" stroke-linejoin="round" stroke-miterlimit="10" d="
				M526.2-219.3c-4.7,4.7-9.1,9.6-14.1,13.9c-2.9,2.6-3.9,5.6-3.9,9.1c-0.1,4,0,8,0,12.5c-13.6,13.6-27.4,27.4-40.8,40.7
				c0,9.4,0,18.1,0,27.5c-8,8-16.5,16.5-24.8,24.7c0,6.8,0,13.2,0,19c-20.6,20.6-40.9,40.9-61.3,61.3c0.3,7.1,0.6,13.9,1,22
				c-4.5,4.5-9.9,9.9-15.2,15.2"/>
			<path fill="none" stroke="#081245" stroke-width="2" stroke-linecap="round" stroke-linejoin="round" stroke-miterlimit="10" d="
				M798.2-51.8c-1.7,2.2-3.1,4.6-5,6.5c-16.1,16.1-32.4,32-48.4,48.1c-14.8,14.7-29.4,29.6-44,44.5c-1.6,1.6-3,3.3-4.5,5
				c-0.2-0.3-0.3-0.7-0.5-1c-30.2,0-60.3,0-91.9,0c-8.1,8.5-17.1,18-26.1,27.5"/>
			<path fill="none" stroke="#081245" stroke-width="2" stroke-linecap="round" stroke-linejoin="round" stroke-miterlimit="10" d="
				M277.2-586.8c-10.2,9.8-20.4,19.6-30.5,29.5c-11.2,11.1-22.4,22.3-33.5,33.5c-20.8,20.8-41.4,41.9-62.7,62.3
				c-5.6,5.4-7.2,10.9-7,18.2c0.4,14.3,0.3,28.7,0.1,43c-0.3,25.7-0.9,51.3-1.4,77.1c8.4,8.4,16.7,16.7,24.9,24.9
				c20.3,20.3,40.6,40.8,61.1,60.9c3.6,3.6,5.2,6.9,4.6,12.1c-0.8,7.3-0.2,14.6-0.2,22.6c3.1,2.9,6.6,6.1,10,9.4"/>
			<path fill="none" stroke="#081245" stroke-width="2" stroke-linecap="round" stroke-linejoin="round" stroke-miterlimit="10" d="
				M417.2-586.8c-3.8,3.3-7.9,6.5-11.5,10c-17.7,17.6-35.4,35.3-53,53c-22.3,22.3-44.6,44.7-67,67c-5.4,5.4-11,10.6-16.5,15.9
				c0,8.6,0,16.6,0,25.6c7.5,7.5,15.6,15.9,24.1,23.9c4.2,4,7.5,7.8,6.5,14.1c-0.2,1.6,0.6,3.3,0.8,4.5
				c-5.9,6.4-11.7,12.7-17.9,19.4c0,2.4,0,5.7,0,9.3c4.3,2.2,9.9,3.2,9.1,10.2c-0.6,5.1-4.2,6.2-8.1,7.5c-6.9-2.5-8.2-4.2-8.1-9.5
				c0.1-4.5,3.9-5.5,6.6-7.5"/>
			<path fill="none" stroke="#081245" stroke-width="2" stroke-linecap="round" stroke-linejoin="round" stroke-miterlimit="10" d="
				M798.2-170.8c-0.7,1-1.2,2.1-2,3c-25.5,25.4-51,50.6-76.5,76c-14.9,14.9-29.7,30-44.5,45c-14.3,14.4-28.7,28.6-42.9,43.1
				c-3.6,3.6-7.3,5.3-12.5,5.1c-12.5-0.4-25-0.1-39-0.1c-25.1,25.1-51.2,51.2-77,77c-35.7,0-71.3,0-108,0c-3.2,3.2-7.1,7.1-11,11"/>
			<path fill="none" stroke="#081245" stroke-width="2" stroke-linecap="round" stroke-linejoin="round" stroke-miterlimit="10" d="
				M128.2,482.2C56.3,554-15.5,625.8-87.4,697.6c-1.7,1.7-3.6,3-5.5,4.5"/>
			<path fill="none" stroke="#081245" stroke-width="2" stroke-linecap="round" stroke-linejoin="round" stroke-miterlimit="10" d="
				M748.2-586.8c-1.8,1.5-3.8,2.9-5.5,4.5c-29.2,29.1-58.4,58.3-87.5,87.5c-28.8,28.8-57.7,57.7-86.5,86.5c-12,12-24,24-36,36"/>
			<path fill="none" stroke="#081245" stroke-width="2" stroke-linecap="round" stroke-linejoin="round" stroke-miterlimit="10" d="
				M604.7,501.2c-22.9,22.9-45.8,45.8-68.9,68.9c-3.4-0.5-6.7-1.2-10.1-1.3c-1.6-0.1-3.5,0.7-5,1.5c-1.2,0.6-2,1.9-3,2.9
				c-41.5,41.5-83,83-124.5,124.5c-1.6,1.6-3.3,3-5,4.5"/>
			<path fill="none" stroke="#081245" stroke-width="2" stroke-linecap="round" stroke-linejoin="round" stroke-miterlimit="10" d="
				M389.2-586.8c-9,8.8-18,17.7-27,26.5c-10.7,10.5-21.4,21-32,31.5c-10,10-20,20-30,30c-18,18-36,36-54,54
				c-3.3,3.3-6.5,6.5-9.8,9.8c0,26.2,0,52.2,0,79c44.2,44.2,88.8,88.8,133.7,133.7c0,9.5,0,19,0,29.5
				c-33.7,33.7-68.3,68.2-102.5,102.5c0,12.7,0,24.8,0,37.2c-11.6,11.8-23.3,23.8-35,35.8"/>
			<path fill="none" stroke="#081245" stroke-width="2" stroke-linecap="round" stroke-linejoin="round" stroke-miterlimit="10" d="
				M404.2-586.8c-10.7,10.3-21.4,20.6-32,31c-13.4,13.2-26.7,26.6-40,40c-12.3,12.3-24.7,24.7-37,37c-10.2,10.2-19.9,20.8-30.7,30.3
				c-5.5,4.9-5.5,10.6-5.8,16.7c-0.3,6.8-0.1,13.7-0.1,21c4.5,4.5,9.4,9.1,13.9,14.1c1.2,1.3,1.4,3.6,2.1,5.4"/>
			<path fill="none" stroke="#081245" stroke-width="2" stroke-linecap="round" stroke-linejoin="round" stroke-miterlimit="10" d="
				M329.7-197.3c0,4.2,0,8.3,0,12c-27.3,27.7-54.4,55.2-81.7,82.9c0,13.6,0,27.6,0,41.9c-17.7,17.7-35.5,35.5-53.2,53.2"/>
			<path fill="none" stroke="#081245" stroke-width="2" stroke-linecap="round" stroke-linejoin="round" stroke-miterlimit="10" d="
				M798.2-125.8c-13.2,13.3-26.3,26.7-39.5,40c-2.5,2.5-4.7,5.5-7.6,7.4c-8.4,5.7-9.6,14-9.5,23.1c0.1,9,0,18,0,25.5
				c-19.6,19.6-37.9,37.9-56.2,56.2c-29.9,0-90.9,0-90.9,0l-61.9,61.2l-26,26.5l-36.5,36c0,0-0.6,0.4,0,0c-13.3,0-38,0-38,0
				l-20.7-15.3h-40l-29-13.5c0,0-15.8,15.8-24.2,24.2c0.5,4.2,1,8.4,1.5,12.5"/>
			<path fill="none" stroke="#081245" stroke-width="2" stroke-linecap="round" stroke-linejoin="round" stroke-miterlimit="10" d="
				M240.7,526.7c-10.5,10.3-21.1,20.6-31.5,31c-12.9,12.9-25.6,26-38.5,39c-17.8,17.9-35.6,35.7-53.5,53.5c-1.8,1.8-3.8,3.5-5.5,5
				c0,16,0,31.5,0,47"/>
			<path fill="none" stroke="#081245" stroke-width="2" stroke-linecap="round" stroke-linejoin="round" stroke-miterlimit="10" d="
				M234.7,520.7c-42.8,42.8-85.5,85.5-128.5,128.5c0,17.7,0,35.3,0,53"/>
			<path fill="none" stroke="#081245" stroke-width="2" stroke-linecap="round" stroke-linejoin="round" stroke-miterlimit="10" d="
				M354.7-290.8c0,3.3,0,6.7,0,10.5c15.9,15.9,32.1,32.1,48.2,48.2c-0.5,15.9-0.9,31.6-1.4,47.9c-23,23-46.4,46.4-69.9,69.9"/>
			<path fill="none" stroke="#081245" stroke-width="2" stroke-linecap="round" stroke-linejoin="round" stroke-miterlimit="10" d="
				M721.7,443.7c-0.3,2.8-0.6,5.7-0.9,9.3c-50.3,50.4-101.1,101.1-152.1,152.2c-11.3,0-22.7,0-34.7,0
				c-12.7,13.1-25.4,26.4-38.3,39.5c-10.6,10.8-21.2,21.4-32,32c-8.7,8.6-17.6,17-26.5,25.5"/>
			<path fill="none" stroke="#081245" stroke-width="2" stroke-linecap="round" stroke-linejoin="round" stroke-miterlimit="10" d="
				M798.2,115.7c-15,0-30,0-46.3,0c-10.5,11.1-21.1,22.3-31.7,33.5c-5.9,6.2-12.1,12.3-18,18.5c-2.7,2.8-5.4,4.2-9.5,4.1
				c-12.2-0.4-24.3-0.1-37-0.1c-7.3,7.3-14.9,14.9-22.5,22.5"/>
			<path fill="none" stroke="#081245" stroke-width="2" stroke-linecap="round" stroke-linejoin="round" stroke-miterlimit="10" d="
				M123.2-586.8c-1.8,1.5-3.8,2.9-5.5,4.5c-18.7,18.6-37.4,37.3-56,56c-9.8,9.8-19.5,19.5-28,28c0,52.8,0,104.2,0,155.5"/>
			<path fill="none" stroke="#081245" stroke-width="2" stroke-linecap="round" stroke-linejoin="round" stroke-miterlimit="10" d="
				M425.7-19.3c-5.7,5.8-11.5,11.5-17,17c0,6,0,11.5,0,16.5c-22.2,22.2-44.2,44.2-67.5,67.5c-4,0-9.5,0-15,0c-4.3,0-8,0.7-11.1,4.4
				c-3.8,4.6-8.4,8.6-11.9,12.1c-9.7,0-18.3,0-27,0"/>
			<path fill="none" stroke="#081245" stroke-width="2" stroke-linecap="round" stroke-linejoin="round" stroke-miterlimit="10" d="
				M420.7-26.3C415-20,409.3-13.7,402.6-6.4c0.3,4.1,0.7,10.1,1.2,16.4c-16.3,16.3-32.7,32.7-49.1,49.1c-4.7,4.7-9.5,9.2-13.9,14.1
				c-2.3,2.5-5,3.4-8.1,3.4c-6,0.1-12,0-18.1,0c-5.8,5.9-11.5,11.6-16.8,17c-7.4,0-14.2,0-21,0"/>
			<path fill="none" stroke="#081245" stroke-width="2" stroke-linecap="round" stroke-linejoin="round" stroke-miterlimit="10" d="
				M798.2-138.8c-3,3.5-5.8,7.2-9,10.5c-17.8,17.9-35.6,35.7-53.5,53.5c-0.6,0.6-1.4,1-2.3,1.6c-0.4,12.7-0.7,25.6-1.3,38.4
				c-0.1,1.7-0.8,3.8-2,4.9C713.6-13.2,697,3.3,680.4,19.9c-30.6,0-92,0-92,0l-59.7,59.7l-31,31l-31.8,33l-31.1-0.1l-20.6-15
				l-40.5,0.1l-31.9-15.4l-22.9,24.5c0,0-17,5.9-18.6,5.9c-3.2,3.2-6.6,6.6-10,10"/>
			<path fill="none" stroke="#081245" stroke-width="2" stroke-linecap="round" stroke-linejoin="round" stroke-miterlimit="10" d="
				M798.2-491.8c-0.7,1-1.2,2.1-2,3c-24.5,24.4-49,48.7-73.5,73c-21.5,21.5-43,43-64.5,64.5c-0.7,0.8-1.3,1.7-2,2.5"/>
			<path fill="none" stroke="#081245" stroke-width="2" stroke-linecap="round" stroke-linejoin="round" stroke-miterlimit="10" d="
				M563.7,479.7c-9.4,9.4-18.8,18.8-28.1,28.1c0.6,14.6,1.1,28.7,1.6,42.9c0,0.8,0.2,1.7,0,2.5c-1.5,4.5-9.1,9-14,8.6
				c-2.1-0.2-4.3,0.3-6.5,0.4c-0.3-0.3-0.7-0.6-1-1c-1.5,2-2.8,4.2-4.5,6c-43.6,43.7-87.3,87.4-131,131c-1.5,1.5-3.3,2.7-5,4"/>
			<path fill="none" stroke="#081245" stroke-width="2" stroke-linecap="round" stroke-linejoin="round" stroke-miterlimit="10" d="
				M586.2,422.2c-0.2,2.7-0.4,5.3-0.7,8c0.3,0.3,0.6,0.5,0.9,0.8c-51.2,51.2-102.3,102.3-153.2,153.2c-11.8,0-22.7,0-34,0
				c-1.5,1.6-2.9,3.4-4.5,5c-36.2,36.2-72.3,72.3-108.5,108.5c-1.6,1.6-3.3,3-5,4.5"/>
			<path fill="none" stroke="#081245" stroke-width="2" stroke-linecap="round" stroke-linejoin="round" stroke-miterlimit="10" d="
				M798.2,13.2c0,0.3,0.1,0.8,0,1c-16.2,16.3-32.5,32.5-48.2,48.3c-5.8,0.4-10.8,0.8-16.2,1.2c-12.2,12.2-24.8,24.8-37.2,37.2
				c-10.8,0-21.2,0-32.5,0c-8,8-16.5,16.5-24.7,24.8c-7.8,0-15.2,0-23.7,0c-6.2,6.6-19.8,21-19.8,21l-1,1c0,0-8.9,9.4-13.6,13.9
				c-1.2,1.2-3.3,2-4.9,2c-14,0.2-42,0.1-42,0.1s-2.7-0.3-4.4-0.5c-19.3,19.3-38.8,38.8-58.3,58.3c-9.2,0-18.2,0-27.5,0
				c-3.8,3.8-7.7,7.7-11.3,11.3c-13.9-0.5-27.4-0.9-38.9-1.3c-8.9,8.3-16.7,15.5-24.5,22.7"/>
			<path fill="none" stroke="#081245" stroke-width="2" stroke-linecap="round" stroke-linejoin="round" stroke-miterlimit="10" d="
				M313.2,292.7c-2.1-2.3-4.1-4.6-5.7-6.3c1.6-8.2,4.7-9.3,9.2-9.5c5.1-0.3,6.8,3.7,8,7.9c-3,8.1-2.6,7.2-10.8,8.6
				c0,0.6-0.2,1.3-0.1,1.9c0.3,8.6-2.5,15.3-9.4,21.2c-9.2,7.8-17.3,17-25.7,25.3c0,6.8,0,13.2,0,20c-19.3,19.3-38.9,38.9-58.5,58.5
				"/>
			<path fill="none" stroke="#081245" stroke-width="2" stroke-linecap="round" stroke-linejoin="round" stroke-miterlimit="10" d="
				M338.7,570.7c-1.2,1.2-2.3,2.3-3.5,3.5c-19.7,19.5-39.4,39-59,58.5c-5.3,5.2-10.3,10.7-15.5,16c-17.3,17.4-34.6,34.7-52,52
				c-0.7,0.7-1.6,1-2.5,1.5"/>
			<path fill="none" stroke="#081245" stroke-width="2" stroke-linecap="round" stroke-linejoin="round" stroke-miterlimit="10" d="
				M664.2-93.3c-2.3,0-4.7,0-7.5,0c-25.6,25.6-51.4,51.4-77.5,77.5c-6.6,0-13.3,0-20,0c-8.3,8.3-16.4,16.4-24.5,24.5"/>
			<path fill="none" stroke="#081245" stroke-width="2" stroke-linecap="round" stroke-linejoin="round" stroke-miterlimit="10" d="
				M147.2-489.8c-5.3,5.3-10.5,10.5-15.5,15.5c0,25,0,49.5,0,74.2c-4.5,2-9.8,3.4-9.1,10.3c0.5,5.1,4.2,6.2,9.2,7.9
				c1.9-1.9,4.9-3.7,6.2-6.5c2.2-4.6,0.5-7.1-5.8-10.9"/>
			<path fill="none" stroke="#081245" stroke-width="2" stroke-linecap="round" stroke-linejoin="round" stroke-miterlimit="10" d="
				M798.2-250.8c-1.3,1.7-2.5,3.5-4,5c-35.8,35.9-71.6,71.7-107.5,107.5"/>
			<path fill="none" stroke="#081245" stroke-width="2" stroke-linecap="round" stroke-linejoin="round" stroke-miterlimit="10" d="
				M643.7-336.3c-9.5,9.3-19.1,18.6-28.5,28c-25,25-50,50-75,75c-0.6,0.6-1,1.3-1.5,2"/>
			<path fill="none" stroke="#081245" stroke-width="2" stroke-linecap="round" stroke-linejoin="round" stroke-miterlimit="10" d="
				M798.2-339.8c-1.5,1.7-2.9,3.4-4.5,5c-35,35-70,70-105,105"/>
			<path fill="none" stroke="#081245" stroke-width="2" stroke-linecap="round" stroke-linejoin="round" stroke-miterlimit="10" d="
				M497.2,417.2c-1.5-1.5-3-3-4.5-4.5c-4.3,0-8.7,0-13.5,0c-6.2,6.2-12.8,12.8-19,19c-6.8,0-13.2,0-20,0c-16.8,16.8-33.9,33.9-51,51
				"/>
			<path fill="none" stroke="#081245" stroke-width="2" stroke-linecap="round" stroke-linejoin="round" stroke-miterlimit="10" d="
				M490.7-330.3c-1.3,1.5-2.6,3.1-3.4,4c-11.6,0-22.1,0-33.1,0c-15.6,15.6-31.4,31.4-47,47c0,3.5,0,6.5,0,9.5"/>
			<path fill="none" stroke="#081245" stroke-width="2" stroke-linecap="round" stroke-linejoin="round" stroke-miterlimit="10" d="
				M330.7-113.3c-11.9,11.9-23.8,23.8-35.5,35.5c0,11,0.2,21.5-0.1,32c-0.1,5.3-0.9,10.7-1.4,16"/>
			<path fill="none" stroke="#081245" stroke-width="2" stroke-linecap="round" stroke-linejoin="round" stroke-miterlimit="10" d="
				M116.7-261.3c1,0.8,2.1,1.6,2.9,2.2c-0.3,1.6-0.9,3-0.8,4.3c0.4,3.9-1.4,6.4-4,9.1C89.8-221,65-196.2,40.2-171.3"/>
			<path fill="none" stroke="#081245" stroke-width="2" stroke-linecap="round" stroke-linejoin="round" stroke-miterlimit="10" d="
				M501.2-586.8c-7.3,7.2-14.7,14.3-22,21.5c-20.4,20.3-40.7,40.7-61,61"/>
			<path fill="none" stroke="#081245" stroke-width="2" stroke-linecap="round" stroke-linejoin="round" stroke-miterlimit="10" d="
				M245.2-586.8c-1.8,1.5-3.8,2.9-5.5,4.5c-26.7,26.6-53.4,53.3-80,80"/>
			<path fill="none" stroke="#081245" stroke-width="2" stroke-linecap="round" stroke-linejoin="round" stroke-miterlimit="10" d="
				M798.2-16.8c-3.5,3.8-6.9,7.8-10.5,11.5c-15,15.1-30.1,30.2-44.7,44.8c-4.2,0-7.7,0-10.5,0c-12.7,12.7-25.2,25.2-36.2,36.2
				c-17.5,0-32.5,0-47.5,0"/>
			<path fill="none" stroke="#081245" stroke-width="2" stroke-linecap="round" stroke-linejoin="round" stroke-miterlimit="10" d="
				M187.2,288.7c3.5-3.5,7.3-6.8,10.4-10.6c1.5-1.8,2.4-4.5,2.5-6.9c0.3-6.8,0.1-13.7,0.1-21c1.1-0.5,2.9-1.1,4.5-2
				c3.5-2,5-5.7,4-9.5c-1-3.5-3.7-5.3-7-5.9c-3.1-0.6-7.2,2.5-8.5,5.9c-1.4,3.8,0.1,6.7,3,9c0.9,0.7,2,1.3,3,2"/>
			<path fill="none" stroke="#081245" stroke-width="2" stroke-linecap="round" stroke-linejoin="round" stroke-miterlimit="10" d="
				M629.7-215.3c1,6.5,3.4,12,10.5,14c6.6,1.8,13.6-1.4,15.9-8c1.9-5.7,0.9-12.1-5.4-16c-5.8-3.6-12.7-2.7-16.9,2.5
				c-1.7,2.1-2.7,4.6-4.1,7"/>
			<path fill="none" stroke="#081245" stroke-width="2" stroke-linecap="round" stroke-linejoin="round" stroke-miterlimit="10" d="
				M219.2,69.2c-1.9-6.2-4.2-11.5-12-12.7c-6.4-1-13.8,3.6-15.1,10.7c-1.1,6.1,2.8,13.1,9.1,15c6.5,2,13.5-0.6,16.5-7.5
				c0.7-1.6,1-3.3,1.5-5"/>
			<path fill="none" stroke="#081245" stroke-width="2" stroke-linecap="round" stroke-linejoin="round" stroke-miterlimit="10" d="
				M648.2,75.2c-1.4-4.4-4.2-7.7-8.5-9.5c-6.8-2.7-14.1,0.7-17,7.5c-2.9,7,0.4,14.4,6,17c7.1,3.3,14.6,1,17.9-6.1
				c1.2-2.5,1.1-5.6,1.6-8.5"/>
			<path fill="none" stroke="#081245" stroke-width="2" stroke-linecap="round" stroke-linejoin="round" stroke-miterlimit="10" d="
				M664.7-92.8c1.8,10.7,7.5,15.2,17,13.5c5.8-1,10.3-7.1,10-13.5c-0.3-6.6-5.4-12.1-11.5-12.5c-8.1-0.5-11.1,1.9-15.5,12"/>
			<path fill="none" stroke="#081245" stroke-width="2" stroke-linecap="round" stroke-linejoin="round" stroke-miterlimit="10" d="
				M274.2-390.8c-9.3,1.4-13.6,6-13.5,14.5c0,6.6,5.1,11.8,12,12.5c6.4,0.6,12.9-4.2,14-10.5c1.5-8.3-1.9-13-12-16.5"/>
			<path fill="none" stroke="#081245" stroke-width="2" stroke-linecap="round" stroke-linejoin="round" stroke-miterlimit="10" d="
				M394.2,201.7c4-1.8,8.1-2.8,10.7-7.4c3.3-5.8,2-15.1-6.2-18.6c-7.2-3.1-14.5,0.4-17.6,6.9c-3.9,8.2,2.6,16.8,9.1,18.1
				c1.2,0.2,2.3,0.7,3.5,1"/>
			<path fill="none" stroke="#081245" stroke-width="2" stroke-linecap="round" stroke-linejoin="round" stroke-miterlimit="10" d="
				M632.2,439.2c-6.7,4.7-9,11.9-5.5,18c3.9,6.6,10.1,8.3,16.4,6.4c6.5-1.9,10.3-10.9,8.1-16.9c-2.9-7.7-10.5-10.8-18-8"/>
			<path fill="none" stroke="#081245" stroke-width="2" stroke-linecap="round" stroke-linejoin="round" stroke-miterlimit="10" d="
				M198.2-49.8c-4.3,0.6-8.3,1.4-11.6,4.9c-5.3,5.8-4.1,15.1,2.1,19.5c5.5,3.9,13.9,3.7,19-3.4c3.6-5,2.8-14.6-4-18.5
				c-1.6-0.9-3.3-1.7-5-2.5"/>
			<path fill="none" stroke="#081245" stroke-width="2" stroke-linecap="round" stroke-linejoin="round" stroke-miterlimit="10" d="
				M219.7,419.7c-9-4.6-14.1-3.9-19.5,2.5c-3.5,4.1-3.5,12.4,0.5,16.6c5,5.2,11.2,6.5,17,3c5.5-3.3,7.9-10.3,5.5-16
				c-0.7-1.7-1.7-3.3-2.5-5"/>
			<path fill="none" stroke="#081245" stroke-width="2" stroke-linecap="round" stroke-linejoin="round" stroke-miterlimit="10" d="
				M87.2-179.3c-8.2-4.6-13.5-4.2-19,1.5c-3.8,4-4.6,10.8-1,15.5c4.7,6.1,11.7,8.1,17.5,5c5.3-2.8,8.5-10.5,6.4-16
				c-0.8-2-2.3-3.7-3.4-5.5"/>
			<path fill="none" stroke="#081245" stroke-width="2" stroke-linecap="round" stroke-linejoin="round" stroke-miterlimit="10" d="
				M242.7-192.8c-6.5,11.7,3.1,21.3,12,20.5c4.7-0.4,10.5-4.6,12-9c1.6-5.1-0.5-11.5-5-15c-3.9-3-11-3.3-15-0.5
				c-1.3,0.9-2.3,2-3.5,3"/>
			<path fill="none" stroke="#081245" stroke-width="2" stroke-linecap="round" stroke-linejoin="round" stroke-miterlimit="10" d="
				M376.2,495.7c-6.9,6.9-13.8,13.8-20.5,20.5c0,12.7,0,24.8,0,37.5c-5.2,5.2-10.6,10.6-16,16"/>
			<path fill="none" stroke="#081245" stroke-width="2" stroke-linecap="round" stroke-linejoin="round" stroke-miterlimit="10" d="
				M276.2,93.7c-3-10-7.7-13.6-16-12c-6.8,1.3-11.6,7.2-11,13.5c0.7,7.2,6.4,12.5,13.5,12.5c7,0,12.4-5,13-12c0-0.5,0.3-1,0.5-1.5"
				/>
			<path fill="none" stroke="#081245" stroke-width="2" stroke-linecap="round" stroke-linejoin="round" stroke-miterlimit="10" d="
				M368.7,253.7c-4.6-1.6-9.3-1.7-13.5,1c-4.9,3.2-6.7,8.8-5,15c1.5,5.6,6.1,9.3,12,9.5c5.6,0.2,10.8-3.2,13-8.5
				c2.1-5.2,0.1-11-5.5-16"/>
			<path fill="none" stroke="#081245" stroke-width="2" stroke-linecap="round" stroke-linejoin="round" stroke-miterlimit="10" d="
				M34.2-324.3c0,5.7,0,11.3,0,17.5C45.9-295.1,57.9-283.1,70-271c-0.5,3-0.9,5.8-1.4,8.6"/>
			<path fill="none" stroke="#081245" stroke-width="2" stroke-linecap="round" stroke-linejoin="round" stroke-miterlimit="10" d="
				M354.2,39.7c-5.8,5.8-11.5,11.5-17,17c-9.1-0.4-17.8-0.8-27.7-1.3c-4.3,4.7-9,10-13.7,15.2"/>
			<path fill="none" stroke="#081245" stroke-width="2" stroke-linecap="round" stroke-linejoin="round" stroke-miterlimit="10" d="
				M496.7,417.7c-7.2,5.9-9.1,13.5-5,19.5c4.1,5.9,10.7,7.4,18,4c5.2-2.4,7.7-8.8,6-15c-1.8-6.5-7.5-10.2-14.5-9.5
				c-1.2,0.1-2.3,0.3-3.5,0.5"/>
			<path fill="none" stroke="#081245" stroke-width="2" stroke-linecap="round" stroke-linejoin="round" stroke-miterlimit="10" d="
				M612.7,470.7c-1-1.5-2-3-3-4.5c-0.3,0.5-0.7,1-1,1.5c-11,0-22,0-34.5,0c-2.9,3.3-6.2,7.2-9.5,11"/>
			<path fill="none" stroke="#081245" stroke-width="2" stroke-linecap="round" stroke-linejoin="round" stroke-miterlimit="10" d="
				M643.7-246.8c6.2,3.3,10.5,2.7,13-2c1.9-3.6,1.4-7.6-1.5-10c-2.9-2.4-6.1-2.9-9.5-1c-3.3,1.9-5.1,6.5-4,10c0.3,1.1,1,2,1.5,3"/>
			<path fill="none" stroke="#081245" stroke-width="2" stroke-linecap="round" stroke-linejoin="round" stroke-miterlimit="10" d="
				M481.2-38.8c-2.6,1.8-5.3,3.6-8.5,5.8c1.1,3,1.9,5.7,3,8.2c1.6,3.5,5.2,3.8,7.9,2.8c2.4-0.9,5-3.4,5.8-5.8c1.1-3.2,0.6-7-3.3-8.9
				c-1.5-0.7-3-1.3-4.5-2"/>
			<path fill="none" stroke="#081245" stroke-width="2" stroke-linecap="round" stroke-linejoin="round" stroke-miterlimit="10" d="
				M384.2-444.3c-3.5,1.5-7.3,2.6-7.5,7.5c-0.2,5.1,2,8.5,6.5,9.5c3.1,0.7,8.6-2.8,9.5-6c1-3.4-1.4-8.2-5-10c-0.9-0.5-2-0.7-3-1"/>
			<path fill="none" stroke="#081245" stroke-width="2" stroke-linecap="round" stroke-linejoin="round" stroke-miterlimit="10" d="
				M321.2-394.8c7.5-3.9,9.1-11.8,2.9-15.3c-2.2-1.2-5.8-0.8-8.3,0c-3.4,1.1-4.3,4.4-4,7.8c0.3,3.8,2.8,5.7,6,7c0.9,0.4,2,0.4,3,0.5
				"/>
			<path fill="none" stroke="#081245" stroke-width="2" stroke-linecap="round" stroke-linejoin="round" stroke-miterlimit="10" d="
				M569.2,126.2c1,4,3,7,7.5,7.5c3.5,0.4,6.2-0.8,8-4c2.3-4.1,0.9-8.7-3.5-11c-4.5-2.3-8.8-0.9-11,3.5c-0.5,1.1-0.7,2.3-1,3.5"/>
			<path fill="none" stroke="#081245" stroke-width="2" stroke-linecap="round" stroke-linejoin="round" stroke-miterlimit="10" d="
				M362.2,202.2c0.5,1.7,0.6,3.6,1.6,4.9c2.2,2.8,5.3,4.7,8.9,4c3.2-0.6,6.8-5.5,6.5-8.4c-0.4-3.4-1.6-6.4-5.4-7.5
				c-4.3-1.3-7.6-0.2-10,3.5c-0.6,0.9-1,2-1.5,3"/>
			<path fill="none" stroke="#081245" stroke-width="2" stroke-linecap="round" stroke-linejoin="round" stroke-miterlimit="10" d="
				M232.2-17.3c-6.6-1.9-7.5-1.6-12.5,4.5c-1,8.6,4.2,11.1,8.5,11c3.3-0.1,5.8-1.8,7-5c1.4-3.8,0.7-7.2-2.5-10"/>
			<path fill="none" stroke="#081245" stroke-width="2" stroke-linecap="round" stroke-linejoin="round" stroke-miterlimit="10" d="
				M213.2,2.2c-0.8,0.5-1.7,1-2.5,1.5c-3.1,2-5.4,4.5-5,8.5c0.4,3.6,3.2,5.9,8.5,7.5c4.4-1,7.9-3.4,7.8-8c-0.1-2.7-2.2-5.5-3.9-7.9
				c-0.8-1-2.9-1.1-4.4-1.6"/>
			<path fill="none" stroke="#081245" stroke-width="2" stroke-linecap="round" stroke-linejoin="round" stroke-miterlimit="10" d="
				M527.2,430.2c1.3-0.8,2.6-1.7,4-2.5c3.7-2.1,4.2-5.3,3-9c-1.3-3.8-4.5-6-8.5-5.5c-3.5,0.5-6.1,2.4-7,6c-1,4.2,0.8,7.7,4.5,9.5
				c1.1,0.6,2.3,1,3.5,1.5"/>
			<path fill="none" stroke="#081245" stroke-width="2" stroke-linecap="round" stroke-linejoin="round" stroke-miterlimit="10" d="
				M528.2-111.3c3.1,2.2,6.2,3.6,10,1.1c3.9-2.6,4.7-5.9,3.2-10.3c-4.7-5.2-7.7-6.1-11.7-3.2c-4.6,3.4-5.2,6.6-2,12.5"/>
			<path fill="none" stroke="#081245" stroke-width="2" stroke-linecap="round" stroke-linejoin="round" stroke-miterlimit="10" d="
				M295.2,70.7c-5.1-4.3-10.9-1.3-13,4c-1.9,4.8,1.3,7.4,3.7,9.6c5,1.6,8.3,1,10.9-3.1c2.4-3.8,1.6-6.9-1.1-10"/>
			<path fill="none" stroke="#081245" stroke-width="2" stroke-linecap="round" stroke-linejoin="round" stroke-miterlimit="10" d="
				M344.7,262.2c-0.7-1.5-1.1-3.2-2-4.5c-2.2-3.1-6.5-4.3-9.5-3c-3.7,1.6-6.1,5.4-5.5,9c0.8,4.1,3.7,6.1,7.5,7
				c3.3,0.7,6.9-1.7,8.5-5.5c0.4-0.8,0.7-1.7,1-2.5"/>
			<path fill="none" stroke="#081245" stroke-width="2" stroke-linecap="round" stroke-linejoin="round" stroke-miterlimit="10" d="
				M128.2-180.8c-2.5-6.5-5-8.4-10-7.5c-4.3,0.8-6.8,3.4-7,7.5c-0.2,4,2,6.6,5.5,7.9c3.6,1.3,6.9,0.8,9-2.9c0.8-1.5,1.7-3,2.5-4.5"
				/>
			<path fill="none" stroke="#081245" stroke-width="2" stroke-linecap="round" stroke-linejoin="round" stroke-miterlimit="10" d="
				M659.2,343.7c2.2-1.5,4.9-2.6,6.4-4.6c2-2.7,2-6.4-0.5-8.8c-2-1.9-5.6-3.9-7.8-3.3c-3.2,0.8-7.1,2.8-6.6,7.7c0.1,1.2,0,2.3,0,4.7
				c2.3,1.3,5.2,2.8,8,4.3"/>
			<path fill="none" stroke="#081245" stroke-width="2" stroke-linecap="round" stroke-linejoin="round" stroke-miterlimit="10" d="
				M-3.3-298.3c2.9-3,3.2-6.5,1.4-10c-1.8-3.4-7.6-5.1-10.4-3.5c-4,2.2-6.1,6.9-4.5,10.5c2,4.6,5.7,6.4,10.5,5
				c0.9-0.3,1.7-1,2.5-1.5"/>
			<path fill="none" stroke="#081245" stroke-width="2" stroke-linecap="round" stroke-linejoin="round" stroke-miterlimit="10" d="
				M15.2-214.3c7,2.2,8.5,4.2,8.5,12.7c-1.2,1.2-3.1,3.1-4.3,4.3c-7.5,0-10.7-1.8-11.7-6c-1.1-4.5,1.1-8,6.5-10.5"/>
			<path fill="none" stroke="#081245" stroke-width="2" stroke-linecap="round" stroke-linejoin="round" stroke-miterlimit="10" d="
				M457.7,56.7c2.5,4.1,11,5.1,11,5.1l27-0.1l6-5l2-2l12-12c0,0,0-23,0-34c11.1-11.1,22.4-22.4,34-34c7.5,0,15.5,0,24,0
				c33.3-33.3,66.9-66.9,100.5-100.5"/>
			<path fill="none" stroke="#081245" stroke-width="2" stroke-linecap="round" stroke-linejoin="round" stroke-miterlimit="10" d="
				M376.7,495.7c7.1,3.8,11.5,3,14-2.5c1.5-3.3,0.5-7.9-2.5-9.9c-2.7-1.8-5.9-2.4-8.9-0.5c-3.5,2.2-4.9,6.3-3.5,10
				c0.3,0.8,0.7,1.7,1,2.5"/>
			<path fill="none" stroke="#081245" stroke-width="2" stroke-linecap="round" stroke-linejoin="round" stroke-miterlimit="10" d="
				M214.7-114.8c-6.2-3.1-10.2-1.8-13.1,3.5c-2.3,4.2,0.1,7,2.6,9.5c2.6,2.5,5.8,2.3,8.9,0.6c3.6-2,4.5-5.3,3.9-9
				c-0.2-1.4-1.3-2.7-1.9-4"/>
			<path fill="none" stroke="#081245" stroke-width="2" stroke-linecap="round" stroke-linejoin="round" stroke-miterlimit="10" d="
				M397.7-483.8c-1,0.8-2.1,1.6-3,2.5c-3.4,3.6-6.8,7.2-10,10.7c0,8.8,0,17.3,0,25.8"/>
			<path fill="none" stroke="#081245" stroke-width="2" stroke-linecap="round" stroke-linejoin="round" stroke-miterlimit="10" d="
				M77.7-223.3c-6.2,5.5-12.3,11-18.5,16.5c0.3,0.5,0.7,1,1,1.5c-5,0-10,0-15,0"/>
			<path fill="none" stroke="#081245" stroke-width="2" stroke-linecap="round" stroke-linejoin="round" stroke-miterlimit="10" d="
				M494.7-78.3c-4.4,4.4-8.9,8.8-13,12.9c0,9.1,0,17.6,0,26.1"/>
			<path fill="none" stroke="#081245" stroke-width="2" stroke-linecap="round" stroke-linejoin="round" stroke-miterlimit="10" d="
				M569.6,124.6c-3.3,0.3-6.7,0.6-10,1c-1.4,0.2-3,0.6-4,1.5c-11.4,11.2-22.7,22.6-34,34"/>
			<path fill="none" stroke="#081245" stroke-width="2" stroke-linecap="round" stroke-linejoin="round" stroke-miterlimit="10" d="
				M515.2-97.8c3.4,4.8,5,9.8,2,15.5c-3.8,7.4-11.8,8.7-18,5.9c-6.5-3.1-9.4-10.8-6-17.8c3.7-7.7,12.1-8.8,18.4-6c1.1,0.5,2,1.3,3,2
				"/>
			<path fill="none" stroke="#081245" stroke-width="2" stroke-linecap="round" stroke-linejoin="round" stroke-miterlimit="10" d="
				M148.2,462.7c4.6,7.1,4.8,13.8,0.5,18.5c-4.7,5.2-12.5,6.1-18,2c-4.8-3.5-6.8-12.2-4-17c3.8-6.5,11.2-8.8,18-5.5c1,0.5,2,1,3,1.5
				"/>
			<path fill="none" stroke="#081245" stroke-width="2" stroke-linecap="round" stroke-linejoin="round" stroke-miterlimit="10" d="
				M437.2,12.7c-0.2,1-0.4,2-0.5,3c-0.5,6.2-0.9,12.3-1.3,18.7c3.3,3.3,6.5,6.5,9.8,9.8"/>
			<path fill="none" stroke="#081245" stroke-width="2" stroke-linecap="round" stroke-linejoin="round" stroke-miterlimit="10" d="
				M-3.3-297.3c6.1,6.1,12.2,12.2,18.5,18.5c0,6.3,0,12.7,0,19"/>
			<path fill="none" stroke="#081245" stroke-width="2" stroke-linecap="round" stroke-linejoin="round" stroke-miterlimit="10" d="
				M15.7-259.3c7.4,0.8,12.4,5,13,11c0.9,8.6-2.2,12.4-13.5,16.5c-9.6-4-13.8-9.1-13-15.5c0.8-6.6,5.4-11,12.5-12"/>
			<path fill="none" stroke="#081245" stroke-width="2" stroke-linecap="round" stroke-linejoin="round" stroke-miterlimit="10" d="
				M690.7-222.3c-1.2-2.3-1.9-5.1-3.6-6.9c-2.7-2.8-6.3-2.8-9.3-0.5c-2.8,2.1-4.9,4.9-3.6,8.9c1.2,3.7,4.7,7,8,6.3
				c3.2-0.6,7.1-1.2,7.6-5.8c0.1-0.5,0.6-1,1-1.5"/>
			<path fill="none" stroke="#081245" stroke-width="2" stroke-linecap="round" stroke-linejoin="round" stroke-miterlimit="10" d="
				M670.7,442.7c-1.9-5.8-5.1-8.8-9-8.5c-3.4,0.3-7.2,3.6-8,7c-0.7,2.9,2.1,7.4,5.5,9c1.1,0.5,2.3,0.7,3.5,1c4-1.3,6.9-3.8,8-8"/>
			<path fill="none" stroke="#081245" stroke-width="2" stroke-linecap="round" stroke-linejoin="round" stroke-miterlimit="10" d="
				M639.7,357.7c0.3-1.8,0.6-3.7,1-5.9c-1.6-4-3.6-7.7-9.5-7.2c-5.4,0.5-6.3,4.6-7.6,8.3c2.2,8.3,8.3,11.1,18,4.2
				c4.9-3.5,8.8-8.5,13.1-12.9"/>
			<path fill="none" stroke="#081245" stroke-width="2" stroke-linecap="round" stroke-linejoin="round" stroke-miterlimit="10" d="
				M632.7,193.7c-5.4-5.7-10.7-5.3-14,1c-2.3,4.4-0.5,8.8,4.5,11c0.8,0.4,1.7,0.7,2.5,1c6.5-1.9,9.6-5,8-12"/>
			<path fill="none" stroke="#081245" stroke-width="2" stroke-linecap="round" stroke-linejoin="round" stroke-miterlimit="10" d="
				M520.2-359.8c-9.2,9.2-18.3,18.3-27.5,27.5"/>
			<path fill="none" stroke="#081245" stroke-width="2" stroke-linecap="round" stroke-linejoin="round" stroke-miterlimit="10" d="
				M457.2,56.2c0.8-2,2.2-3.9,2.4-6c0.6-5.1-2.5-8.3-7.4-8.5c-4.9-0.2-8.3,2.8-8.5,7.5c-0.2,5,3,8.5,8,8.4c1.7,0,3.3-0.6,5-0.9"/>
			<path fill="none" stroke="#081245" stroke-width="2" stroke-linecap="round" stroke-linejoin="round" stroke-miterlimit="10" d="
				M532.7-371.8c2.9,2.6,3.9,5.8,2.5,9.5c-1.1,2.9-3.2,4.8-6.5,5c-3.5,0.3-6.2-0.8-8-4c-1.9-3.4-1.4-6.7,1-9.5
				c2.8-3.2,6.3-3.5,10-1.5c0.1,0.1,0.3,0,0.5,0"/>
			<path fill="none" stroke="#081245" stroke-width="2" stroke-linecap="round" stroke-linejoin="round" stroke-miterlimit="10" d="
				M33.7-342.3c-1.7,0.7-3.5,1.1-5,2.1c-3.2,2.2-3.9,6.1-2.6,10c1.4,3.9,4.7,5,8.1,5.4c2.9,0.3,6.9-4.1,7.5-7.4
				c0.6-3.6-1.6-7.3-5.5-9c-0.7-0.3-1.3-0.7-2-1"/>
			<path fill="none" stroke="#081245" stroke-width="2" stroke-linecap="round" stroke-linejoin="round" stroke-miterlimit="10" d="
				M397.2-352.8c0.8,4.1,2.3,7.6,7,8.5c4.1,0.7,8.3-1.8,9.5-5.5c1.1-3.4-1.1-8.5-4.5-10c-3.1-1.3-8.3-1-10.5,3.5c-0.5,1-1,2-1.5,3"
				/>
			<path fill="none" stroke="#081245" stroke-width="2" stroke-linecap="round" stroke-linejoin="round" stroke-miterlimit="10" d="
				M656.7-348.3c3.2,5,3.3,8,0.5,11c-3.7,3.9-5.7,4-13,0.5c-2.3-5.5-2.1-8.8,1-11.5c3.2-2.8,6.7-3.2,10.5-1"/>
			<path fill="none" stroke="#081245" stroke-width="2" stroke-linecap="round" stroke-linejoin="round" stroke-miterlimit="10" d="
				M329.7-215.3c-2,1.2-4.5,1.9-5.9,3.6c-3.8,4.4-2.9,8.8,1.9,11.9c1.2,0.8,2.6,1.4,3.9,2c4.2-1.1,7.8-2.9,8.1-8
				c0.2-5.2-1.1-7-7.5-9.5"/>
			<path fill="none" stroke="#081245" stroke-width="2" stroke-linecap="round" stroke-linejoin="round" stroke-miterlimit="10" d="
				M159.2-502.3c-5.1-2.8-8.3-2.7-11.5,0.5c-2.2,2.2-2.7,7.2-1,10c2.1,3.4,8.3,4.7,11.5,2.5c4.2-2.9,4.8-7.4,1.5-12.5"/>
			<path fill="none" stroke="#081245" stroke-width="2" stroke-linecap="round" stroke-linejoin="round" stroke-miterlimit="10" d="
				M538.7-230.8c3.5,4.8,2.7,9.7-2,12.5c-3.8,2.2-8.9,0.8-11-3c-2.4-4.5-0.7-9.5,4-11.5c3.1-1.3,6-0.7,8.5,1.5"/>
			<path fill="none" stroke="#081245" stroke-width="2" stroke-linecap="round" stroke-linejoin="round" stroke-miterlimit="10" d="
				M686.7-137.8c3.2,2.7,3,6.2,1.4,9.5c-1.4,3-4,4.7-7.4,4.5c-3.6-0.2-6.2-2-7.5-5.5c-1-2.8-0.7-5.2,1.4-7.5
				c2.1-2.3,4.4-3.9,7.5-3.4c1.4,0.2,2.7,1.3,4,1.9"/>
			<path fill="none" stroke="#081245" stroke-width="2" stroke-linecap="round" stroke-linejoin="round" stroke-miterlimit="10" d="
				M29.7,471.2c-2.8-0.7-5.6-1.4-7.8-2c-8.1,5.3-8.1,11.6-0.7,16.5c10.3,0,13.5-5,9-14"/>
			<path fill="none" stroke="#081245" stroke-width="2" stroke-linecap="round" stroke-linejoin="round" stroke-miterlimit="10" d="
				M338.7,182.2c1.4,4.1,3.3,7.6,8.5,7.5c4.4-0.1,6.2-1.7,8.5-8c-2.3-6.8-4.1-8.3-9.5-8c-5.1,0.3-6.2,4.2-7.5,8"/>
			<path fill="none" stroke="#081245" stroke-width="2" stroke-linecap="round" stroke-linejoin="round" stroke-miterlimit="10" d="
				M241.7-230.8c2.7,6.7,7.5,9.5,11.9,6.4c2.3-1.6,3.9-4.2,5.4-5.9c-3.1-8.4-5.3-9.9-10.9-9c-4.8,0.8-5.3,4.6-6.5,8.1"/>
			<path fill="none" stroke="#081245" stroke-width="2" stroke-linecap="round" stroke-linejoin="round" stroke-miterlimit="10" d="
				M472.7-377.3c-1.8-4.2-4.6-7.2-9.5-6.9c-3.5,0.2-7.4,4.7-7.5,7.9c-0.2,3.5,2.4,7,6,8c4.6,1.3,7.9,0.1,9.9-4
				c0.7-1.3,0.7-3,1.1-4.5"/>
			<path fill="none" stroke="#081245" stroke-width="2" stroke-linecap="round" stroke-linejoin="round" stroke-miterlimit="10" d="
				M396.7-353.3c-5,0.2-10,0.3-15,0.5"/>
			<path fill="none" stroke="#081245" stroke-width="2" stroke-linecap="round" stroke-linejoin="round" stroke-miterlimit="10" d="
				M15.2-231.3c-0.2,5.7-0.3,11.3-0.5,17"/>
			<path fill="none" stroke="#081245" stroke-width="2" stroke-linecap="round" stroke-linejoin="round" stroke-miterlimit="10" d="
				M527.2-110.8c-4,4.2-8,8.3-12,12.5"/>
			<path fill="none" stroke="#081245" stroke-width="2" stroke-linecap="round" stroke-linejoin="round" stroke-miterlimit="10" d="
				M329.2,268.7c-2.7,3-5.3,6-8,9"/>
			<path fill="none" stroke="#081245" stroke-width="2" stroke-linecap="round" stroke-linejoin="round" stroke-miterlimit="10" d="
				M197.2-1.3c-2,0-4,0-6,0"/>
			<path fill="none" stroke="#081245" stroke-width="2" stroke-linecap="round" stroke-linejoin="round" stroke-miterlimit="10" d="
				M460.7,373.2c-0.5,0.7-1,1.3-1.5,2"/>
			<path fill="none" stroke="#081245" stroke-width="2" stroke-linecap="round" stroke-linejoin="round" stroke-miterlimit="10" d="
				M551.7,464.2c-0.5,0.7-1,1.3-1.5,2"/>
			<path fill="none" stroke="#081245" stroke-width="2" stroke-linecap="round" stroke-linejoin="round" stroke-miterlimit="10" d="
				M403.7,52.7c-4,1.7-6.5,4.4-6,9c0.3,3.5,2.4,5.8,5.5,7c4.1,1.5,9.4-1.1,10.5-5c1.4-4.7-1.8-10.1-6.5-11c-1-0.2-2,0-3,0"/>
			<path fill="none" stroke="#081245" stroke-width="2" stroke-linecap="round" stroke-linejoin="round" stroke-miterlimit="10" d="
				M376.7,87.7c-6.9,3.8-8.6,9.8-4,14c2.8,2.5,5.9,2.7,9.5,1.1c4.1-1.8,5-5.1,4.3-8.6c-0.7-3.5-3.1-6.4-7.3-6.5c-0.7,0-1.3,0-2,0"/>
			<path fill="none" stroke="#081245" stroke-width="2" stroke-linecap="round" stroke-linejoin="round" stroke-miterlimit="10" d="
				M281.7,152.7c-6.6,3.3-8.3,10-3.5,14c2.6,2.2,7.6,2.7,10,1c2.6-1.8,4.7-7.2,3.4-10c-1.5-3.2-3.8-5.7-7.9-5c-0.5,0.1-1,0-1.5,0"/>
			<path fill="none" stroke="#081245" stroke-width="2" stroke-linecap="round" stroke-linejoin="round" stroke-miterlimit="10" d="
				M178.2,286.2c-6.7,0.2-11.7,2.9-14,9.5c-1.9,5.7,1.3,12.3,5.9,15.1c5,3,11.7,2.6,16-1.6c4.7-4.4,5.9-10.4,3-15.5
				c-0.9-1.6-2-3-3.1-4.7c-2.4-0.9-4.9-1.9-7.4-2.9"/>
			<path fill="none" stroke="#081245" stroke-width="2" stroke-linecap="round" stroke-linejoin="round" stroke-miterlimit="10" d="
				M358.2,24.2c-5.7,1.6-7.4,5.5-6.3,11.2c4.6,5.6,6.1,6.2,10.3,4.3c4.8-2.3,6.4-4.9,5.5-9.5c-0.7-3.5-3.9-5.7-9-6"/>
			<path fill="none" stroke="#081245" stroke-width="2" stroke-linecap="round" stroke-linejoin="round" stroke-miterlimit="10" d="
				M404.7-507.3c-2,1.3-4.3,2.4-5.9,4.1c-4.1,4-5.3,9.8-3,14.4c2.5,5.1,6.8,8,12.5,7.9c5.4-0.1,9.8-2.2,12.5-8.4
				c3.6-8.4-2.8-17.9-12-18c-1.2,0-2.3,0-3.5,0"/>
			<path fill="none" stroke="#081245" stroke-width="2" stroke-linecap="round" stroke-linejoin="round" stroke-miterlimit="10" d="
				M94.2-213.8c-7.6,2-7.9,5.2-7.5,10c0.4,4.4,3.9,6.5,11.7,6.5c1.2-1.2,3.1-3.1,4.3-4.3c0-8.9-1.2-10.5-8-12.2"/>
		</g>
	</g>
</g>
</svg>
