<?xml version="1.0" encoding="utf-8"?>
<!-- Generator: Adobe Illustrator 18.1.0, SVG Export Plug-In . SVG Version: 6.00 Build 0)  -->
<svg version="1.1" id="Theater" xmlns="http://www.w3.org/2000/svg" xmlns:xlink="http://www.w3.org/1999/xlink" x="0px" y="0px"
	 viewBox="0 0 600 200" enable-background="new 0 0 600 200" xml:space="preserve">
<rect fill="#FF7D5F" width="599.9" height="200"/>
<g>
	<defs>
		<rect id="SVGID_1_" width="599.9" height="200"/>
	</defs>
	<clipPath id="SVGID_2_">
		<use xlink:href="#SVGID_1_"  overflow="visible"/>
	</clipPath>
	
		<path clip-path="url(#SVGID_2_)" fill="none" stroke="#2BDE73" stroke-width="6" stroke-linecap="round" stroke-linejoin="round" stroke-miterlimit="10" d="
		M145.3,270.9c-3.8-7.9,8.8-14,4.9-21.9c-3.8-7.9-16.4-1.8-20.2-9.7s8.7-14,4.9-21.9s-16.4-1.8-20.2-9.7c-3.8-7.9,8.7-14,4.9-21.9
		c-3.8-7.9-16.4-1.8-20.2-9.8"/>
	
		<path clip-path="url(#SVGID_2_)" fill="none" stroke="#DEF7E0" stroke-width="6" stroke-linecap="round" stroke-linejoin="round" stroke-miterlimit="10" d="
		M183.2,41.5c-13.7,0-24.8-11.1-24.8-24.8s11.1-24.8,24.8-24.8"/>
	
		<polyline clip-path="url(#SVGID_2_)" fill="none" stroke="#3E59F8" stroke-width="6" stroke-linecap="round" stroke-linejoin="round" stroke-miterlimit="10" points="
		60.2,108.2 76.5,104.4 68.6,89.7 84.9,85.9 77,71.2 93.3,67.4 85.4,52.7 101.7,48.9 93.9,34.2 	"/>
	
		<polyline clip-path="url(#SVGID_2_)" fill="none" stroke="#FFFB78" stroke-width="6" stroke-linecap="round" stroke-linejoin="round" stroke-miterlimit="10" points="
		207.2,133.1 189.1,115.4 170.9,133.1 	"/>
	
		<line clip-path="url(#SVGID_2_)" fill="none" stroke="#FF3642" stroke-width="6" stroke-linecap="round" stroke-linejoin="round" stroke-miterlimit="10" x1="208.5" y1="192" x2="219.1" y2="176.2"/>
	
		<line clip-path="url(#SVGID_2_)" fill="none" stroke="#FF3642" stroke-width="6" stroke-linecap="round" stroke-linejoin="round" stroke-miterlimit="10" x1="270.9" y1="89.8" x2="262.6" y2="72.7"/>
	
		<line clip-path="url(#SVGID_2_)" fill="none" stroke="#FF3642" stroke-width="6" stroke-linecap="round" stroke-linejoin="round" stroke-miterlimit="10" x1="43" y1="204" x2="59.9" y2="195.3"/>
	
		<line clip-path="url(#SVGID_2_)" fill="none" stroke="#FF3642" stroke-width="6" stroke-linecap="round" stroke-linejoin="round" stroke-miterlimit="10" x1="32.5" y1="42" x2="20.4" y2="27.4"/>
	
		<path clip-path="url(#SVGID_2_)" fill="none" stroke="#2BDE73" stroke-width="6" stroke-linecap="round" stroke-linejoin="round" stroke-miterlimit="10" d="
		M281-48.8c3.8,7.9-8.8,14-4.9,21.9c3.8,7.9,16.4,1.8,20.2,9.7c3.8,7.9-8.7,14-4.9,21.9c3.8,7.9,16.4,1.8,20.2,9.7
		c3.8,7.9-8.7,14-4.9,21.9c3.8,7.9,16.4,1.8,20.2,9.8"/>
	
		<path clip-path="url(#SVGID_2_)" fill="none" stroke="#DEF7E0" stroke-width="6" stroke-linecap="round" stroke-linejoin="round" stroke-miterlimit="10" d="
		M276.2,164c13.7,0,24.8,11.1,24.8,24.8s-11.1,24.8-24.8,24.8"/>
	
		<polyline clip-path="url(#SVGID_2_)" fill="none" stroke="#3E59F8" stroke-width="6" stroke-linecap="round" stroke-linejoin="round" stroke-miterlimit="10" points="
		569.4,-18.2 558.1,-5.9 572.9,1.8 561.6,14.1 576.4,21.8 565.1,34.1 579.9,41.8 568.6,54.1 583.4,61.8 	"/>
	
		<polyline clip-path="url(#SVGID_2_)" fill="none" stroke="#FFFB78" stroke-width="6" stroke-linecap="round" stroke-linejoin="round" stroke-miterlimit="10" points="
		448.7,183.3 466.8,201 484.9,183.3 	"/>
	
		<line clip-path="url(#SVGID_2_)" fill="none" stroke="#FF3642" stroke-width="6" stroke-linecap="round" stroke-linejoin="round" stroke-miterlimit="10" x1="255" y1="-108.5" x2="244.4" y2="-92.8"/>
	
		<line clip-path="url(#SVGID_2_)" fill="none" stroke="#FF3642" stroke-width="6" stroke-linecap="round" stroke-linejoin="round" stroke-miterlimit="10" x1="353.6" y1="184.9" x2="365.7" y2="199.6"/>
	
		<line clip-path="url(#SVGID_2_)" fill="none" stroke="#FF3642" stroke-width="6" stroke-linecap="round" stroke-linejoin="round" stroke-miterlimit="10" x1="543.9" y1="124.6" x2="552.2" y2="141.7"/>
	
		<path clip-path="url(#SVGID_2_)" fill="none" stroke="#2BDE73" stroke-width="6" stroke-linecap="round" stroke-linejoin="round" stroke-miterlimit="10" d="
		M525.3,279.9c0.9-8.7,14.8-7.3,15.7-16.1c0.9-8.7-13-10.2-12.1-18.9s14.8-7.3,15.7-16.1c0.9-8.7-13-10.2-12.1-18.9
		s14.8-7.3,15.7-16.1c0.9-8.7-13-10.2-12.1-18.9"/>
	
		<path clip-path="url(#SVGID_2_)" fill="none" stroke="#DEF7E0" stroke-width="6" stroke-linecap="round" stroke-linejoin="round" stroke-miterlimit="10" d="
		M509.9,59.2c-13.7,0-24.8-11.1-24.8-24.8s11.1-24.8,24.8-24.8"/>
	
		<polyline clip-path="url(#SVGID_2_)" fill="none" stroke="#3E59F8" stroke-width="6" stroke-linecap="round" stroke-linejoin="round" stroke-miterlimit="10" points="
		396.1,161.3 412.4,157.6 404.5,142.8 420.8,139.1 413,124.4 429.2,120.6 421.4,105.9 437.6,102.1 429.8,87.4 	"/>
	
		<polyline clip-path="url(#SVGID_2_)" fill="none" stroke="#FFFB78" stroke-width="6" stroke-linecap="round" stroke-linejoin="round" stroke-miterlimit="10" points="
		423,-69 404.9,-86.7 386.7,-69 	"/>
	
		<line clip-path="url(#SVGID_2_)" fill="none" stroke="#FF3642" stroke-width="6" stroke-linecap="round" stroke-linejoin="round" stroke-miterlimit="10" x1="417.1" y1="21.6" x2="405" y2="6.9"/>
</g>
</svg>
