<?xml version="1.0" encoding="utf-8"?>
<!-- Generator: Adobe Illustrator 18.1.0, SVG Export Plug-In . SVG Version: 6.00 Build 0)  -->
<svg version="1.1" id="Games" xmlns="http://www.w3.org/2000/svg" xmlns:xlink="http://www.w3.org/1999/xlink" x="0px" y="0px"
	 viewBox="0 0 600 200" enable-background="new 0 0 600 200" xml:space="preserve">
<rect fill="#00C9AB" width="600" height="200"/>
<g>
	<defs>
		<polyline id="SVGID_1_" points="0,200 0,0 600,0 600,200 		"/>
	</defs>
	<clipPath id="SVGID_2_">
		<use xlink:href="#SVGID_1_"  overflow="visible"/>
	</clipPath>
	<g id="nMyEoX_1_" clip-path="url(#SVGID_2_)">
		<g>
			<path fill="none" stroke="#279C89" stroke-width="4" stroke-miterlimit="10" d="M424.2-69.4c0,8.6,0,17.2,0,26.2
				c-4.6,0-8.3,0-12.9,0c0-8.5,0-16.6,0-25c-17.5,0-34.2,0-51.6,0c0,30,0,59.6,0,90c-30.4,0-60,0-90,0c0,34.7,0,68.6,0,103.3
				c21.4,0,42.4,0,64.1,0c0,13.2,0,25.6,0,38.3c13.2,0,25.5,0,38.3,0c0-12.8,0-25.1,0-37.9c-8.5,0-16.5,0-25,0c0,8.5,0,16.5,0,25
				c4.2,0,7.9,0,12.5,0c0-4.7,0-9,0-13.3"/>
			<path fill="none" stroke="#279C89" stroke-width="4" stroke-miterlimit="10" d="M-14.7,214.6c0,25.8,0,51.6,0,77.9
				c21.8,0,42.8,0,64.5,0c0-12.8,0-25.2,0-38.3c13.2,0,25.6,0,38.3,0c0-4.6,0-8.3,0-12.9c-29.7,0-59,0-88.3,0"/>
			<path fill="none" stroke="#279C89" stroke-width="4" stroke-miterlimit="10" d="M256.4-3.3c0-21.5,0-43,0-64.9
				c-8.9,0-16.9,0-25.4,0c0,4.2,0,7.9,0,12.5c4.2,0,7.9,0,12.1,0c0,30.4,0,60,0,90c-73,0-145.6,0-219,0c0-3.9,0-7.4,0-10.9"/>
			<path fill="none" stroke="#279C89" stroke-width="4" stroke-miterlimit="10" d="M540.4,278.3c0-12.1,0-24.2,0-37.1
				c21.8,0,42.8,0,64.1,0c0-77.7,0-154.6,0-232.4c-73,0-145.6,0-218.6,0c0,4.6,0,8.3,0,12.9c8.5,0,16.6,0,25.4,0
				c0,43.8,0,86.9,0,129.9"/>
			<path fill="none" stroke="#279C89" stroke-width="4" stroke-miterlimit="10" d="M308,150c0,4.3,0,8.6,0,13.7
				c-39,0-77.2,0-116.2,0c0,39,0,77.2,0,116.2c-4.6,0-8.3,0-12.5,0c0,4.6,0,8.3,0,12.5c30,0,59.6,0,90,0c0-30,0-59.6,0-89.6
				c4.6,0,8.3,0,12.9,0c0,13.3,0,26.2,0,39.1"/>
			<path fill="none" stroke="#279C89" stroke-width="4" stroke-miterlimit="10" d="M294.3,99.2c17.2,0,34.4,0,52.4,0
				c0-8.9,0-17,0-25.8c13.2,0,25.6,0,38.3,0c0-8.9,0-16.9,0-25.4c-4.2,0-7.9,0-12.5,0c0,4.2,0,7.9,0,12.5c-26.1,0-51.4,0-77.5,0
				c0,8.6,0,16.4,0,24.2"/>
			<path fill="none" stroke="#279C89" stroke-width="4" stroke-miterlimit="10" d="M101.5,216.2c0-4.3,0-8.6,0-13.7
				c8.9,0,17,0,25.4,0c0-8.9,0-16.9,0-25.4c-34.3,0-68.2,0-102.5,0c0,12.8,0,25.1,0,37.9c4.2,0,7.9,0,12.5,0c0-9,0-17.6,0-26.2"/>
			<path fill="none" stroke="#279C89" stroke-width="4" stroke-miterlimit="10" d="M295.1-3.3c0-21.5,0-43,0-64.9
				c-4.6,0-8.3,0-12.5,0c0,25.7,0,51,0,76.6c21.4,0,42.4,0,64.1,0c0-29.7,0-59,0-88.3"/>
			<path fill="none" stroke="#279C89" stroke-width="4" stroke-miterlimit="10" d="M551.7,137.9c-12.1,0-24.2,0-37.1,0
				c0-13.2,0-25.6,0-38.3c-4.6,0-8.3,0-12.5,0c0,30,0,59.6,0,89.6c4.2,0,7.9,0,12.5,0c0-13.3,0-26.2,0-39.1"/>
			<path fill="none" stroke="#279C89" stroke-width="4" stroke-miterlimit="10" d="M36.9,100.8c0,7.8,0,15.6,0,24.2
				c-4.6,0-8.3,0-12.5,0c0,13.2,0,25.5,0,38.7c38.6,0,76.8,0,115.8,0c0,26.6,0,52.4,0,78.3"/>
			<path fill="none" stroke="#279C89" stroke-width="4" stroke-miterlimit="10" d="M450.8,137.9c-4.3,0-8.6,0-13.7,0
				c0,13.2,0,25.6,0,38.3c-4.6,0-8.3,0-12.5,0c0-51.5,0-102.6,0-154.1c21.4,0,42.4,0,64.1,0c0,12.8,0,25.2,0,38.3
				c21.8,0,42.8,0,64.1,0c0,56.2,0,111.6,0,167.8c-64.4,0-128.4,0-193.2,0c0,17.2,0,33.6,0,50"/>
			<path fill="none" stroke="#279C89" stroke-width="4" stroke-miterlimit="10" d="M36.1,150.8c21.5,0,43,0,64.9,0c0-30.4,0-60,0-90
				c-4.2,0-7.9,0-12.5,0c0,4.2,0,7.9,0,12.5c-9.4,0-18,0-26.6,0"/>
			<path fill="none" stroke="#279C89" stroke-width="4" stroke-miterlimit="10" d="M308-79.9c0,25,0,50,0,75.4c4.6,0,8.3,0,12.9,0
				c0-12.8,0-25.2,0-38.3c4.6,0,8.3,0,12.5,0c0-8.9,0-16.9,0-25.4c-4.2,0-7.9,0-12.5,0c0,4.7,0,9,0,13.3"/>
			<path fill="none" stroke="#279C89" stroke-width="4" stroke-miterlimit="10" d="M616.2-29.9c-29.3,0-58.6,0-88.3,0
				c0,8.9,0,16.9,0,25.4c25.7,0,51,0,76.6,0c0-4.2,0-7.9,0-12.5c-9,0-17.6,0-26.2,0"/>
			<path fill="none" stroke="#279C89" stroke-width="4" stroke-miterlimit="10" d="M541.2-55.7c-4.3,0-8.6,0-13.3,0
				c0,4.6,0,8.3,0,12.5c25.7,0,51,0,76.6,0c0-8.5,0-16.5,0-25c-38.6,0-76.8,0-115.4,0c0,4.2,0,7.9,0,12.5c8.5,0,16.6,0,25.4,0
				c0,21.5,0,42.2,0,62.9"/>
			<path fill="none" stroke="#279C89" stroke-width="4" stroke-miterlimit="10" d="M603.3,73.4c-7.8,0-15.6,0-23.8,0
				c0,26.1,0,51.4,0,77c4.2,0,7.9,0,12.5,0c0-17.6,0-34.8,0-52"/>
			<path fill="none" stroke="#279C89" stroke-width="4" stroke-miterlimit="10" d="M241.9,8.8c-12.1,0-24.2,0-37.1,0
				c0-26.1,0-51.4,0-77c-43.3,0-85.8,0-129.1,0c0,12.8,0,25.2,0,37.9c-4.6,0-8.3,0-12.9,0c0-4.7,0-9,0-13.3"/>
			<path fill="none" stroke="#279C89" stroke-width="4" stroke-miterlimit="10" d="M462.9-56.5c0,4.3,0,8.6,0,13.7
				c13.2,0,25.6,0,38.3,0c0,13.2,0,25.5,0,38.7c-42.9,0-85.4,0-128.3,0c0,13.2,0,25.5,0,38.7c8.5,0,16.6,0,25,0
				c0,17.5,0,34.2,0,51.6c-12.8,0-25.2,0-37.9,0c0,4.6,0,8.3,0,12.9c4.7,0,9,0,13.3,0"/>
			<path fill="none" stroke="#279C89" stroke-width="4" stroke-miterlimit="10" d="M177.3,176.7c-3.5,0-7,0-10.9,0
				c0,21.8,0,42.8,0,64.5c4.2,0,7.9,0,12.1,0c0,8.9,0,16.9,0,25.8c-4.2,0-7.9,0-12.5,0c0,12.9,0,25,0,37.1"/>
			<path fill="none" stroke="#279C89" stroke-width="4" stroke-miterlimit="10" d="M11.1,33.9c0,64.5,0,129.1,0,194.4
				c30.4,0,60,0,90.4,0c0,13.2,0,25.5,0,38.7c-13.2,0-25.6,0-38.3,0c0,8.9,0,16.9,0,25.4c4.2,0,7.9,0,12.5,0c0-4.7,0-9,0-13.3"/>
			<path fill="none" stroke="#279C89" stroke-width="4" stroke-miterlimit="10" d="M268.5,176.7c34.4,0,68.9,0,103.7,0
				c0,8.9,0,16.9,0,25.8c-12.8,0-25.2,0-38.3,0c0,13.2,0,25.6,0,38.3c-8.9,0-16.9,0-25.4,0c0-12.8,0-25.1,0-37.9c4.2,0,7.9,0,12.5,0
				c0,9,0,17.6,0,26.2"/>
			<path fill="none" stroke="#279C89" stroke-width="4" stroke-miterlimit="10" d="M269.3-79.9c0,29.3,0,58.6,0,88.7
				c-4.6,0-8.3,0-12.9,0c0,39.5,0,78.3,0,117"/>
			<path fill="none" stroke="#279C89" stroke-width="4" stroke-miterlimit="10" d="M140.2,20.1c0-25,0-50,0-75.4
				c-13.2,0-25.5,0-38.7,0c0,17.1,0,33.8,0,51.2c-21.8,0-42.8,0-64.5,0c0-5.1,0-9.4,0-13.7"/>
			<path fill="none" stroke="#279C89" stroke-width="4" stroke-miterlimit="10" d="M513.8,34.7c4.3,0,8.6,0,13.3,0
				c0-4.6,0-8.3,0-12.5c-8.5,0-16.5,0-25,0c0,8.5,0,16.5,0,25.4c25.7,0,51,0,77,0c0-4.6,0-8.3,0-12.5c4.6,0,8.3,0,12.5,0
				c0,8.5,0,16.5,0,25.4c-4.7,0-9,0-13.3,0"/>
			<path fill="none" stroke="#279C89" stroke-width="4" stroke-miterlimit="10" d="M307.2,73.4c4.3,0,8.6,0,13.3,0
				c0,4.6,0,8.3,0,12.9c-12.8,0-25.2,0-37.9,0c0,8.9,0,16.9,0,25.8c34,0,67.6,0,101.3,0"/>
			<path fill="none" stroke="#279C89" stroke-width="4" stroke-miterlimit="10" d="M462.9,75c0,7.8,0,15.6,0,24.2c8.9,0,17,0,25.4,0
				c0,30.4,0,60,0,90c-8.5,0-16.5,0-25,0c0-8.5,0-16.5,0-25c4.2,0,7.9,0,12.5,0c0,4.7,0,9,0,13.3"/>
			<path fill="none" stroke="#279C89" stroke-width="4" stroke-miterlimit="10" d="M437.1-79.9c0,20.7,0,41.4,0,62.5
				c-4.6,0-8.3,0-12.9,0c0-4.2,0-7.9,0-12.5c-8.9,0-17,0-25.8,0c0-9.4,0-18,0-26.6"/>
			<path fill="none" stroke="#279C89" stroke-width="4" stroke-miterlimit="10" d="M409.7,99.2c-3.5,0-7,0-10.9,0
				c0,21.8,0,42.8,0,64.5c4.2,0,7.9,0,12.5,0c0,8.9,0,17,0,25.8c13.2,0,25.5,0,38.7,0c0-13.2,0-25.6,0-38.7c8.9,0,17,0,25.8,0
				c0-5.1,0-9.4,0-13.7"/>
			<path fill="none" stroke="#279C89" stroke-width="4" stroke-miterlimit="10" d="M616.2,254.1c-20.7,0-41.4,0-62.5,0
				c0,4.6,0,8.3,0,12.9c17.6,0,34.8,0,52,0"/>
			<path fill="none" stroke="#279C89" stroke-width="4" stroke-miterlimit="10" d="M217.7-79.9c0,25,0,50,0,75.4c4.6,0,8.3,0,12.9,0
				c0-13.3,0-26.2,0-39.1"/>
			<path fill="none" stroke="#279C89" stroke-width="4" stroke-miterlimit="10" d="M475,86.3c21.5,0,43,0,64.9,0
				c0,13.2,0,25.5,0,38.3c-4.2,0-7.9,0-12.5,0c0-9,0-17.6,0-26.2"/>
			<path fill="none" stroke="#279C89" stroke-width="4" stroke-miterlimit="10" d="M231.4,21.8c-12.9,0-25.8,0-39.5,0
				c0-26.1,0-51.4,0-77c-8.9,0-16.9,0-25.4,0c0,17.1,0,33.8,0,50.8c4.2,0,7.9,0,12.5,0c0-4.7,0-9,0-13.3"/>
			<path fill="none" stroke="#279C89" stroke-width="4" stroke-miterlimit="10" d="M256.4,175.9c0,25.8,0,51.6,0,78.3
				c-4.6,0-8.3,0-12.5,0c0,8.9,0,16.9,0,25.4c4.2,0,7.9,0,12.5,0c0-4.7,0-9,0-13.3"/>
			<path fill="none" stroke="#279C89" stroke-width="4" stroke-miterlimit="10" d="M475.8-44.4c0-7.8,0-15.6,0-23.8
				c-8.9,0-16.9,0-25.4,0c0,17.1,0,33.8,0,50.8c4.2,0,7.9,0,12.5,0c0-4.7,0-9,0-13.3"/>
			<path fill="none" stroke="#279C89" stroke-width="4" stroke-miterlimit="10" d="M75.7-2.5c0,7.8,0,15.6,0,24.2
				c-26.1,0-51.4,0-77.5,0c0,77.7,0,154.6,0,232.4c13.7,0,26.6,0,39.5,0"/>
			<path fill="none" stroke="#279C89" stroke-width="4" stroke-miterlimit="10" d="M566.2,49.2c0,63.5,0,126.9,0,190.4"/>
			<path fill="none" stroke="#279C89" stroke-width="4" stroke-miterlimit="10" d="M489.6,215.4c-47.3,0-94.7,0-142.8,0
				c0,17.5,0,34.2,0,51.6c-25.8,0-50.8,0-75.8,0"/>
			<path fill="none" stroke="#279C89" stroke-width="4" stroke-miterlimit="10" d="M88.6,85.5c0,17.2,0,34.4,0,52.4
				c-21.5,0-42.2,0-62.9,0"/>
			<path fill="none" stroke="#279C89" stroke-width="4" stroke-miterlimit="10" d="M153.1-67c0,25,0,50,0,75.8c12.9,0,25,0,37.1,0"
				/>
			<path fill="none" stroke="#279C89" stroke-width="4" stroke-miterlimit="10" d="M528.3,241.2c-25.8,0-51.6,0-77.9,0
				c0,17.5,0,34.2,0,51.2c25.7,0,51,0,77,0c0-9,0-17.6,0-26.2"/>
			<path fill="none" stroke="#279C89" stroke-width="4" stroke-miterlimit="10" d="M603.3,176.7c-7.8,0-15.6,0-23.8,0
				c0,17.5,0,34.2,0,51.2c4.2,0,7.9,0,12.5,0c0-9,0-17.6,0-26.2"/>
			<path fill="none" stroke="#279C89" stroke-width="4" stroke-miterlimit="10" d="M-14.7-79.9c0,12.1,0,24.2,0,36.7
				c17.5,0,34.2,0,51.6,0c0-8.2,0-16,0-23.8"/>
			<path fill="none" stroke="#279C89" stroke-width="4" stroke-miterlimit="10" d="M450,23.4c0,12.1,0,24.2,0,36.7
				c8.9,0,16.9,0,25.4,0c0-8.5,0-16.5,0-25c-4.2,0-7.9,0-12.5,0c0,4.7,0,9,0,13.3"/>
			<path fill="none" stroke="#279C89" stroke-width="4" stroke-miterlimit="10" d="M257.2,150.8c-25.8,0-51.6,0-78.3,0
				c0,26.6,0,52.4,0,78.3"/>
			<path fill="none" stroke="#279C89" stroke-width="4" stroke-miterlimit="10" d="M254.8,47.6c-80.7,0-161.4,0-242,0"/>
			<path fill="none" stroke="#279C89" stroke-width="4" stroke-miterlimit="10" d="M270.9,73.4c3.5,0,7,0,11.3,0c0-8.9,0-17,0-25.8
				c26.1,0,51.4,0,77,0c0-4.6,0-8.3,0-12.9c-9,0-17.6,0-26.2,0"/>
			<path fill="none" stroke="#279C89" stroke-width="4" stroke-miterlimit="10" d="M-2.6,279.9c12.9,0,25.8,0,39.1,0
				c0-4.6,0-8.3,0-12.9c-16.8,0-33.2,0-49.6,0"/>
			<path fill="none" stroke="#279C89" stroke-width="4" stroke-miterlimit="10" d="M217.7,291.2c0-16.4,0-32.8,0-49.6
				c-4.6,0-8.3,0-12.9,0c0,13.3,0,26.2,0,39.1"/>
			<path fill="none" stroke="#279C89" stroke-width="4" stroke-miterlimit="10" d="M513.8,215.4c8.6,0,17.2,0,26.2,0
				c0-8.9,0-16.9,0-25.4c-4.2,0-7.9,0-12.5,0c0,4.2,0,7.9,0,12.5c-30.4,0-60,0-90.4,0c0-4.3,0-7.8,0-11.3"/>
			<path fill="none" stroke="#279C89" stroke-width="4" stroke-miterlimit="10" d="M217.7,201.7c0,4.3,0,8.6,0,13.3
				c4.6,0,8.3,0,12.5,0c0-12.8,0-25.1,0-37.9c-8.5,0-16.5,0-25,0c0,17.1,0,33.8,0,51.2c8.5,0,16.6,0,25.4,0c0,18,0,35.2,0,52.4"/>
			<path fill="none" stroke="#279C89" stroke-width="4" stroke-miterlimit="10" d="M126.5,137.9c8.6,0,17.2,0,26.2,0
				c0-8.9,0-16.9,0-25.4c-4.2,0-7.9,0-12.5,0c0,4.2,0,7.9,0,12.5c-8.6,0-16.4,0-24.2,0"/>
			<path fill="none" stroke="#279C89" stroke-width="4" stroke-miterlimit="10" d="M114.4,49.2c0,33.6,0,67.2,0,101.7
				c13.2,0,25.6,0,38.7,0c0,34.4,0,68,0,101.7"/>
			<path fill="none" stroke="#279C89" stroke-width="4" stroke-miterlimit="10" d="M88.6-56.5c0,12.9,0,25.8,0,39.1
				c-13.2,0-25.5,0-38.7,0c0-12.8,0-25.1,0-38.3c8.6,0,16.4,0,24.2,0"/>
			<path fill="none" stroke="#279C89" stroke-width="4" stroke-miterlimit="10" d="M243.5,165.4c0,25,0,50,0,75.8
				c-4.3,0-7.8,0-11.3,0"/>
			<path fill="none" stroke="#279C89" stroke-width="4" stroke-miterlimit="10" d="M128.1-42.8c-4.3,0-8.6,0-13.3,0
				c0,8.9,0,16.9,0,25.8c4.2,0,7.9,0,12.5,0c0,12.9,0,25,0,37.1"/>
			<path fill="none" stroke="#279C89" stroke-width="4" stroke-miterlimit="10" d="M540.4,10.5c0,7.8,0,15.6,0,23.8
				c8.9,0,16.9,0,25.8,0c0-4.2,0-7.9,0-12.5c9.4,0,18,0,26.6,0"/>
			<path fill="none" stroke="#279C89" stroke-width="4" stroke-miterlimit="10" d="M385.5-67c0,16.4,0,32.8,0,50c8.9,0,17,0,25.8,0
				c0,4.3,0,7.8,0,11.3"/>
			<path fill="none" stroke="#279C89" stroke-width="4" stroke-miterlimit="10" d="M138.6,215.4c-3.5,0-7,0-11.3,0
				c0,13.2,0,25.6,0,38.7c-4.6,0-8.3,0-12.9,0c0,13.2,0,25.6,0,38.7c-5.1,0-9.4,0-13.7,0"/>
			<path fill="none" stroke="#279C89" stroke-width="4" stroke-miterlimit="10" d="M616.2,292.8c-25.5,0-51.1,0-76.6,0"/>
			<path fill="none" stroke="#279C89" stroke-width="4" stroke-miterlimit="10" d="M437.1,304.1c0-20.7,0-41.4,0-62.5
				c-21.8,0-42.8,0-64.5,0c0,9,0,17.6,0,26.2"/>
			<path fill="none" stroke="#279C89" stroke-width="4" stroke-miterlimit="10" d="M63.6-68.6c-21.5,0-43,0-64.9,0
				c0,4.6,0,8.3,0,12.9c9,0,17.6,0,26.2,0"/>
			<path fill="none" stroke="#279C89" stroke-width="4" stroke-miterlimit="10" d="M115.2,189.6c-21.5,0-43,0-65.4,0
				c0,12.9,0,25,0,37.1"/>
			<path fill="none" stroke="#279C89" stroke-width="4" stroke-miterlimit="10" d="M462.1,279.9c8.6,0,17.2,0,26.2,0
				c0-4.6,0-8.3,0-12.9c-12.5,0-24.6,0-36.7,0"/>
			<path fill="none" stroke="#279C89" stroke-width="4" stroke-miterlimit="10" d="M75.7,75c0,16.4,0,32.8,0,49.6
				c-8.9,0-16.9,0-25.4,0c0-4.2,0-7.9,0-12.5c4.7,0,9,0,13.3,0"/>
			<path fill="none" stroke="#279C89" stroke-width="4" stroke-miterlimit="10" d="M178.9,49.2c0,7.8,0,15.6,0,23.8
				c8.9,0,16.9,0,25.4,0c0-4.2,0-7.9,0-12.5c-4.7,0-9,0-13.3,0"/>
			<path fill="none" stroke="#279C89" stroke-width="4" stroke-miterlimit="10" d="M88.6,191.2c0,7.8,0,15.6,0,23.8
				c-8.9,0-16.9,0-25.4,0c0-4.2,0-7.9,0-12.5c4.7,0,9,0,13.3,0"/>
			<path fill="none" stroke="#279C89" stroke-width="4" stroke-miterlimit="10" d="M424.2,213.8c0-3.5,0-7,0-11.3
				c-8.9,0-17,0-25.8,0c0-8.9,0-17,0-25.8c-4.3,0-7.8,0-11.3,0"/>
			<path fill="none" stroke="#279C89" stroke-width="4" stroke-miterlimit="10" d="M529.1,279.9c25.5,0,51.1,0,76.6,0"/>
			<path fill="none" stroke="#279C89" stroke-width="4" stroke-miterlimit="10" d="M127.3,59.7c0,8.6,0,17.2,0,26.6
				c43,0,85.3,0,127.5,0"/>
			<path fill="none" stroke="#279C89" stroke-width="4" stroke-miterlimit="10" d="M437.1,33.9c0,12.9,0,25.8,0,39.5
				c17.5,0,34.2,0,51.6,0c0,4.3,0,7.8,0,11.3"/>
			<path fill="none" stroke="#279C89" stroke-width="4" stroke-miterlimit="10" d="M385.5,87.9c0,38.5,0,76.9,0,115.4"/>
			<path fill="none" stroke="#279C89" stroke-width="4" stroke-miterlimit="10" d="M385.5,278.3c0-7.8,0-15.6,0-23.8
				c8.9,0,16.9,0,25.4,0c0,12.8,0,25.1,0,38.3c-13.3,0-26.2,0-39.1,0"/>
			<path fill="none" stroke="#279C89" stroke-width="4" stroke-miterlimit="10" d="M-14.7,98.4c0,17.2,0,34.4,0,52.4
				c4.3,0,7.8,0,11.3,0"/>
			<path fill="none" stroke="#279C89" stroke-width="4" stroke-miterlimit="10" d="M295.1,191.2c0,20.4,0,40.9,0,61.3"/>
			<path fill="none" stroke="#279C89" stroke-width="4" stroke-miterlimit="10" d="M320.9,175c0-12.1,0-24.2,0-37.1
				c-51.9,0-103,0-154.9,0c0,8.9,0,17,0,25.8c-4.3,0-7.8,0-11.3,0"/>
			<path fill="none" stroke="#279C89" stroke-width="4" stroke-miterlimit="10" d="M243.5,136.3c0-12.1,0-24.2,0-36.7
				c-39,0-77.2,0-116.2,0c0,4.7,0,9,0,13.3"/>
			<path fill="none" stroke="#279C89" stroke-width="4" stroke-miterlimit="10" d="M424.2,242.8c0,16.9,0,33.9,0,50.8"/>
			<path fill="none" stroke="#279C89" stroke-width="4" stroke-miterlimit="10" d="M10.3-17c4.3,0,8.6,0,13.7,0c0,8.9,0,17,0,25.8
				c13.7,0,26.6,0,39.5,0"/>
			<path fill="none" stroke="#279C89" stroke-width="4" stroke-miterlimit="10" d="M48.2-29.9c-24.7,0-49.5,0-74.2,0"/>
			<path fill="none" stroke="#279C89" stroke-width="4" stroke-miterlimit="10" d="M501.7,62.1c0,3.5,0,7,0,11.3
				c13.7,0,26.6,0,39.5,0"/>
			<path fill="none" stroke="#279C89" stroke-width="4" stroke-miterlimit="10" d="M114.4-4.9c0,4.3,0,8.6,0,13.7
				c-12.9,0-25,0-37.1,0"/>
			<path fill="none" stroke="#279C89" stroke-width="4" stroke-miterlimit="10" d="M-14.7,162.9c0,12.9,0,25.8,0,39.5
				c-4.3,0-7.8,0-11.3,0"/>
			<path fill="none" stroke="#279C89" stroke-width="4" stroke-miterlimit="10" d="M-14.7,46.8c0,12.9,0,25.8,0,39.5
				c-4.3,0-7.8,0-11.3,0"/>
			<path fill="none" stroke="#279C89" stroke-width="4" stroke-miterlimit="10" d="M244.3,60.5c-8.6,0-17.2,0-26.6,0
				c0,8.6,0,16.4,0,24.2"/>
			<path fill="none" stroke="#279C89" stroke-width="4" stroke-miterlimit="10" d="M372.6-56.5c0,12.9,0,25.8,0,39.5
				c-4.3,0-7.8,0-11.3,0"/>
			<path fill="none" stroke="#279C89" stroke-width="4" stroke-miterlimit="10" d="M333.8,281.5c0,3.5,0,7,0,11.3
				c-13.7,0-26.6,0-39.5,0"/>
			<path fill="none" stroke="#279C89" stroke-width="4" stroke-miterlimit="10" d="M553.3-67c0,3.5,0,7,0,11.3c13.7,0,26.6,0,39.5,0
				"/>
			<path fill="none" stroke="#279C89" stroke-width="4" stroke-miterlimit="10" d="M281.4,254.1c21.2,0,42.5,0,63.7,0"/>
			<path fill="none" stroke="#279C89" stroke-width="4" stroke-miterlimit="10" d="M204.8,125.8c0-4.3,0-8.6,0-13.3
				c-4.6,0-8.3,0-12.9,0c0,8.2,0,16,0,23.8"/>
			<path fill="none" stroke="#279C89" stroke-width="4" stroke-miterlimit="10" d="M217.7,100.8c0,7.8,0,15.6,0,23.8
				c4.6,0,8.3,0,12.9,0c0-4.7,0-9,0-13.3"/>
			<path fill="none" stroke="#279C89" stroke-width="4" stroke-miterlimit="10" d="M166,100.8c0,7.8,0,15.6,0,23.8
				c4.6,0,8.3,0,12.9,0c0-4.7,0-9,0-13.3"/>
			<path fill="none" stroke="#279C89" stroke-width="4" stroke-miterlimit="10" d="M501.7,255.7c0,7.8,0,15.6,0,23.8
				c4.6,0,8.3,0,12.9,0c0-4.7,0-9,0-13.3"/>
			<path fill="none" stroke="#279C89" stroke-width="4" stroke-miterlimit="10" d="M541.2,150.8c-4.3,0-8.6,0-13.3,0
				c0,4.6,0,8.3,0,12.9c8.2,0,16,0,23.8,0"/>
			<path fill="none" stroke="#279C89" stroke-width="4" stroke-miterlimit="10" d="M140.2,49.2c0,7.8,0,15.6,0,23.8
				c4.6,0,8.3,0,12.9,0c0-4.7,0-9,0-13.3"/>
			<path fill="none" stroke="#279C89" stroke-width="4" stroke-miterlimit="10" d="M112.8,279.9c-7.8,0-15.6,0-24.2,0
				c0,8.6,0,16.4,0,24.2"/>
			<path fill="none" stroke="#279C89" stroke-width="4" stroke-miterlimit="10" d="M-1.8-28.3c0,7.8,0,15.6,0,24.2
				c8.6,0,16.4,0,24.2,0"/>
			<path fill="none" stroke="#279C89" stroke-width="4" stroke-miterlimit="10" d="M114.4,204.1c0,12.1,0,24.2,0,37.1
				c-4.3,0-7.8,0-11.3,0"/>
			<path fill="none" stroke="#279C89" stroke-width="4" stroke-miterlimit="10" d="M538.8,254.1c-25.5,0-51.1,0-76.6,0"/>
			<path fill="none" stroke="#279C89" stroke-width="4" stroke-miterlimit="10" d="M179.7,21.8c-30.7,0-61.3,0-92,0"/>
			<path fill="none" stroke="#279C89" stroke-width="4" stroke-miterlimit="10" d="M334.6,189.6c-25.5,0-51.1,0-76.6,0"/>
			<path fill="none" stroke="#279C89" stroke-width="4" stroke-miterlimit="10" d="M437.1,111.3c0,4.3,0,8.6,0,13.7
				c17.2,0,33.6,0,50,0"/>
			<path fill="none" stroke="#279C89" stroke-width="4" stroke-miterlimit="10" d="M153.1,293.6c0-8.6,0-17.2,0-26.6
				c-8.9,0-16.9,0-25.8,0c0,9.4,0,18,0,26.6"/>
			<path fill="none" stroke="#279C89" stroke-width="4" stroke-miterlimit="10" d="M333.8-30.7c0,12.6,0,25.3,0,37.9"/>
			<path fill="none" stroke="#279C89" stroke-width="4" stroke-miterlimit="10" d="M436.3,86.3c4.3,0,8.6,0,13.7,0
				c0,8.9,0,17,0,25.8c9.4,0,18,0,26.6,0"/>
			<path fill="none" stroke="#279C89" stroke-width="4" stroke-miterlimit="10" d="M74,99.2c-16.4,0-32.8,0-49.6,0
				c0-4.6,0-8.3,0-12.9c4.7,0,9,0,13.3,0"/>
			<path fill="none" stroke="#279C89" stroke-width="4" stroke-miterlimit="10" d="M566.2-28.3c0,3.5,0,7,0,11.3c-9.4,0-18,0-26.6,0
				"/>
			<path fill="none" stroke="#279C89" stroke-width="4" stroke-miterlimit="10" d="M48.2,73.4c-11.8,0-23.7,0-35.5,0"/>
			<path fill="none" stroke="#279C89" stroke-width="4" stroke-miterlimit="10" d="M-14.7-17.8c0,17.2,0,34.4,0,52.4
				c4.3,0,7.8,0,11.3,0"/>
			<path fill="none" stroke="#279C89" stroke-width="4" stroke-miterlimit="10" d="M76.5,60.5c-17.7,0-35.5,0-53.2,0"/>
			<path fill="none" stroke="#279C89" stroke-width="4" stroke-miterlimit="10" d="M166,59.7c0,8.3,0,16.7,0,25"/>
			<path fill="none" stroke="#279C89" stroke-width="4" stroke-miterlimit="10" d="M475.8-30.7c0,8.3,0,16.7,0,25"/>
			<path fill="none" stroke="#279C89" stroke-width="4" stroke-miterlimit="10" d="M254.8,73.4c-8.3,0-16.7,0-25,0"/>
			<path fill="none" stroke="#279C89" stroke-width="4" stroke-miterlimit="10" d="M333.8,72.6c0,8.3,0,16.7,0,25"/>
			<path fill="none" stroke="#279C89" stroke-width="4" stroke-miterlimit="10" d="M140.2,279.1c0,8.3,0,16.7,0,25"/>
			<path fill="none" stroke="#279C89" stroke-width="4" stroke-miterlimit="10" d="M11.9,8.8c-8.3,0-16.7,0-25,0"/>
			<path fill="none" stroke="#279C89" stroke-width="4" stroke-miterlimit="10" d="M488.7-41.2c0,8.3,0,16.7,0,25"/>
			<path fill="none" stroke="#279C89" stroke-width="4" stroke-miterlimit="10" d="M592.8,163.7c-8.3,0-16.7,0-25,0"/>
			<path fill="none" stroke="#279C89" stroke-width="4" stroke-miterlimit="10" d="M541.2,176.7c-8.3,0-16.7,0-25,0"/>
			<path fill="none" stroke="#279C89" stroke-width="4" stroke-miterlimit="10" d="M49.8,62.1c0,7.8,0,15.6,0,24.2
				c5.1,0,9.4,0,13.7,0"/>
			<path fill="none" stroke="#279C89" stroke-width="4" stroke-miterlimit="10" d="M178.9-43.6c0,4.3,0,8.6,0,13.7
				c4.3,0,7.8,0,11.3,0"/>
			<path fill="none" stroke="#279C89" stroke-width="4" stroke-miterlimit="10" d="M360.5,189.6c-4.3,0-8.6,0-13.7,0
				c0,4.3,0,7.8,0,11.3"/>
			<path fill="none" stroke="#279C89" stroke-width="4" stroke-miterlimit="10" d="M359.7,304.1c0-3.5,0-7,0-11.3
				c-5.1,0-9.4,0-13.7,0"/>
			<path fill="none" stroke="#279C89" stroke-width="4" stroke-miterlimit="10" d="M320.9,23.4c0,3.5,0,7,0,11.3
				c-5.1,0-9.4,0-13.7,0"/>
			<path fill="none" stroke="#279C89" stroke-width="4" stroke-miterlimit="10" d="M295.1,46c0-3.5,0-7,0-11.3c-5.1,0-9.4,0-13.7,0"
				/>
			<path fill="none" stroke="#279C89" stroke-width="4" stroke-miterlimit="10" d="M295.1,139.5c0,3.5,0,7,0,11.3
				c-5.1,0-9.4,0-13.7,0"/>
			<path fill="none" stroke="#279C89" stroke-width="4" stroke-miterlimit="10" d="M448.4,99.2c-7.5,0-15.1,0-22.6,0"/>
			<path fill="none" stroke="#279C89" stroke-width="4" stroke-miterlimit="10" d="M462.9,126.6c0,7.5,0,15.1,0,22.6"/>
			<path fill="none" stroke="#279C89" stroke-width="4" stroke-miterlimit="10" d="M269.3,139.5c0,7.5,0,15.1,0,22.6"/>
			<path fill="none" stroke="#279C89" stroke-width="4" stroke-miterlimit="10" d="M501.7,204.1c0,7.5,0,15.1,0,22.6"/>
			<path fill="none" stroke="#279C89" stroke-width="4" stroke-miterlimit="10" d="M166.8,254.1c-8.6,0-17.2,0-26.6,0
				c0,4.3,0,7.8,0,11.3"/>
			<path fill="none" stroke="#279C89" stroke-width="4" stroke-miterlimit="10" d="M24.8,112.1c-4,0-8.1,0-12.1,0"/>
			<path fill="none" stroke="#279C89" stroke-width="4" stroke-miterlimit="10" d="M603.3,189.6c-4,0-8.1,0-12.1,0"/>
			<path fill="none" stroke="#279C89" stroke-width="4" stroke-miterlimit="10" d="M138.6-29.9c-4,0-8.1,0-12.1,0"/>
			<path fill="none" stroke="#279C89" stroke-width="4" stroke-miterlimit="10" d="M218.5,189.6c-4,0-8.1,0-12.1,0"/>
			<path fill="none" stroke="#279C89" stroke-width="4" stroke-miterlimit="10" d="M553.3,10.5c0,4,0,8.1,0,12.1"/>
			<path fill="none" stroke="#279C89" stroke-width="4" stroke-miterlimit="10" d="M603.3,86.3c-4,0-8.1,0-12.1,0"/>
			<path fill="none" stroke="#279C89" stroke-width="4" stroke-miterlimit="10" d="M409.7,267c-4,0-8.1,0-12.1,0"/>
		</g>
	</g>
</g>
</svg>
