<?xml version="1.0" encoding="utf-8"?>
<!-- Generator: Adobe Illustrator 18.1.0, SVG Export Plug-In . SVG Version: 6.00 Build 0)  -->
<svg version="1.1" id="Art" xmlns="http://www.w3.org/2000/svg" xmlns:xlink="http://www.w3.org/1999/xlink" x="0px" y="0px"
	 viewBox="0 0 600 200" enable-background="new 0 0 600 200" xml:space="preserve">
<rect fill="#FFBDAB" width="600" height="200"/>
<g>
	<defs>
		<rect id="SVGID_1_" y="1" width="600" height="200"/>
	</defs>
	<clipPath id="SVGID_2_">
		<use xlink:href="#SVGID_1_"  overflow="visible"/>
	</clipPath>
	<path clip-path="url(#SVGID_2_)" fill="#FF3642" d="M324,181.8c0-8.3,6.8-15.1,15.1-15.1c8.3,0,15.1,6.8,15.1,15.1"/>
	
		<rect x="331" y="10.3" transform="matrix(-0.7071 -0.7071 0.7071 -0.7071 592.766 277.5653)" clip-path="url(#SVGID_2_)" fill="#FF9FD6" width="45.8" height="11.5"/>
	<polygon clip-path="url(#SVGID_2_)" fill="#DEF7E0" points="464.2,61 451.5,68.6 438.9,76.1 438.9,61 438.9,46 451.5,53.5 	"/>
	<path clip-path="url(#SVGID_2_)" fill="#FF3642" d="M609.4,159.3c8.3,0,15.1,6.8,15.1,15.1c0,8.3-6.8,15.1-15.1,15.1"/>
	<g clip-path="url(#SVGID_2_)">
		
			<rect x="594.1" y="75.3" transform="matrix(0.7071 -0.7071 0.7071 0.7071 123.4182 459.9797)" fill="#FF9FD6" width="45.8" height="11.5"/>
	</g>
	<g clip-path="url(#SVGID_2_)">
		
			<rect x="-50.8" y="5.6" transform="matrix(0.7071 -0.7071 0.7071 0.7071 -16.2127 -16.4346)" fill="#FF9FD6" width="45.8" height="11.5"/>
	</g>
	
		<rect x="480.2" y="100.3" transform="matrix(0.4107 -0.9118 0.9118 0.4107 188.1336 512.9863)" clip-path="url(#SVGID_2_)" fill="#081245" width="21.4" height="21.4"/>
	<g clip-path="url(#SVGID_2_)">
		
			<rect x="476.7" y="196.2" transform="matrix(0.9544 -0.2985 0.2985 0.9544 -38.4031 153.3686)" fill="#3E59F8" width="12.4" height="12.4"/>
		
			<rect x="460.9" y="187.9" transform="matrix(0.9544 -0.2985 0.2985 0.9544 -36.655 148.2849)" fill="#3E59F8" width="12.4" height="12.4"/>
		
			<rect x="445.1" y="179.7" transform="matrix(0.9544 -0.2985 0.2985 0.9544 -34.9069 143.201)" fill="#3E59F8" width="12.4" height="12.4"/>
	</g>
	<g clip-path="url(#SVGID_2_)">
		
			<rect x="581.6" y="39.8" transform="matrix(0.34 0.9404 -0.9404 0.34 431.252 -522.431)" fill="#3E59F8" width="12.4" height="12.4"/>
		
			<rect x="589.2" y="23.7" transform="matrix(0.34 0.9404 -0.9404 0.34 421.1373 -540.1486)" fill="#3E59F8" width="12.4" height="12.4"/>
		
			<rect x="596.7" y="7.6" transform="matrix(0.34 0.9404 -0.9404 0.34 410.8927 -557.9013)" fill="#3E59F8" width="12.4" height="12.4"/>
	</g>
	<path clip-path="url(#SVGID_2_)" fill="#FF3642" d="M-2,131.1c0,8.3-6.8,15.1-15.1,15.1s-15.1-6.8-15.1-15.1"/>
	<g clip-path="url(#SVGID_2_)">
		<line fill="none" stroke="#FF7D5F" stroke-width="5" stroke-miterlimit="10" x1="530.6" y1="194.4" x2="554.1" y2="170.9"/>
		<line fill="none" stroke="#FF7D5F" stroke-width="5" stroke-miterlimit="10" x1="554.1" y1="194.4" x2="530.6" y2="170.9"/>
	</g>
	<g clip-path="url(#SVGID_2_)">
		<line fill="none" stroke="#FF7D5F" stroke-width="5" stroke-miterlimit="10" x1="-7.1" y1="61.7" x2="16.3" y2="38.2"/>
		<line fill="none" stroke="#FF7D5F" stroke-width="5" stroke-miterlimit="10" x1="16.3" y1="61.7" x2="-7.1" y2="38.2"/>
	</g>
	
		<rect x="32.9" y="104.8" transform="matrix(0.7071 0.7071 -0.7071 0.7071 94.5467 -7.0787)" clip-path="url(#SVGID_2_)" fill="#FF9FD6" width="45.8" height="11.5"/>
	<path clip-path="url(#SVGID_2_)" fill="#FF3642" d="M83.6,63.9c-8.3,0-15.1-6.8-15.1-15.1s6.8-15.1,15.1-15.1"/>
	
		<rect x="178.7" y="41.2" transform="matrix(-0.4107 0.9118 -0.9118 -0.4107 314.4527 -99.5597)" clip-path="url(#SVGID_2_)" fill="#081245" width="21.4" height="21.4"/>
	<g clip-path="url(#SVGID_2_)">
		
			<rect x="267.4" y="24" transform="matrix(-0.9544 0.2985 -0.2985 -0.9544 543.709 -22.5799)" fill="#3E59F8" width="12.4" height="12.4"/>
		
			<rect x="283.1" y="32.3" transform="matrix(-0.9544 0.2985 -0.2985 -0.9544 577.0016 -10.9928)" fill="#3E59F8" width="12.4" height="12.4"/>
		
			<rect x="298.8" y="40.6" transform="matrix(-0.9544 0.2985 -0.2985 -0.9544 610.1921 0.3859)" fill="#3E59F8" width="12.4" height="12.4"/>
	</g>
	<polygon clip-path="url(#SVGID_2_)" fill="#DEF7E0" points="136.6,26.4 122,23.5 107.5,20.6 117.6,9.3 127.7,-1.9 132.1,12.3 	"/>
	<polygon clip-path="url(#SVGID_2_)" fill="#DEF7E0" points="189.4,211.7 182,198.8 174.5,186 189.6,186.2 204.8,186.3 197.2,199.1 
			"/>
	
		<rect x="17.4" y="178.5" transform="matrix(0.8024 -0.5968 0.5968 0.8024 -107.3753 54.1277)" clip-path="url(#SVGID_2_)" fill="#081245" width="21.4" height="21.4"/>
	
		<rect x="448.7" y="-9.9" transform="matrix(0.8024 -0.5968 0.5968 0.8024 90.276 274.295)" clip-path="url(#SVGID_2_)" fill="#081245" width="21.4" height="21.4"/>
	<g clip-path="url(#SVGID_2_)">
		<line fill="none" stroke="#FF7D5F" stroke-width="5" stroke-miterlimit="10" x1="248.8" y1="186.2" x2="272.3" y2="162.7"/>
		<line fill="none" stroke="#FF7D5F" stroke-width="5" stroke-miterlimit="10" x1="272.3" y1="186.2" x2="248.8" y2="162.7"/>
	</g>
</g>
</svg>
