<?xml version="1.0" encoding="utf-8"?>
<!-- Generator: Adobe Illustrator 18.1.0, SVG Export Plug-In . SVG Version: 6.00 Build 0)  -->
<svg version="1.1" xmlns="http://www.w3.org/2000/svg" xmlns:xlink="http://www.w3.org/1999/xlink" x="0px" y="0px"
	 viewBox="0 0 1500 450" enable-background="new 0 0 1500 450" xml:space="preserve">
<g id="Layer_1">
	<rect fill="#2652FF" width="1500" height="450"/>
	<line fill="#FFFFFF" stroke="#FFFFFF" stroke-miterlimit="10" x1="139.5" y1="162" x2="50" y2="328.5"/>
	<line fill="none" stroke="#FFFFFF" stroke-miterlimit="10" x1="139.5" y1="162" x2="221.3" y2="273.7"/>
	<line fill="none" stroke="#FFFFFF" stroke-miterlimit="10" x1="221.3" y1="273.7" x2="305.7" y2="340.3"/>
	<line fill="none" stroke="#FFFFFF" stroke-miterlimit="10" x1="305.7" y1="340.3" x2="416.7" y2="325"/>
	<line fill="none" stroke="#FFFFFF" stroke-miterlimit="10" x1="51.5" y1="329" x2="221.3" y2="273.7"/>
	<line fill="none" stroke="#FFFFFF" stroke-miterlimit="10" x1="221.3" y1="273.7" x2="416.7" y2="325"/>
	<line fill="none" stroke="#FFFFFF" stroke-miterlimit="10" x1="416.7" y1="325" x2="332.3" y2="157"/>
	<line fill="none" stroke="#FFFFFF" stroke-miterlimit="10" x1="332.3" y1="157" x2="139.5" y2="162"/>
	<line fill="none" stroke="#FFFFFF" stroke-miterlimit="10" x1="332.3" y1="157" x2="521.3" y2="80.3"/>
	<line fill="none" stroke="#FFFFFF" stroke-miterlimit="10" x1="521.3" y1="80.3" x2="416.7" y2="325"/>
	<line fill="none" stroke="#FFFFFF" stroke-miterlimit="10" x1="416.7" y1="325" x2="527" y2="288.3"/>
	<line fill="none" stroke="#FFFFFF" stroke-miterlimit="10" x1="527" y1="288.3" x2="653" y2="278.7"/>
	<line fill="none" stroke="#FFFFFF" stroke-miterlimit="10" x1="653" y1="278.7" x2="607.2" y2="366.3"/>
	<line fill="none" stroke="#FFFFFF" stroke-miterlimit="10" x1="607.2" y1="366.3" x2="527" y2="288.3"/>
	<line fill="none" stroke="#FFFFFF" stroke-miterlimit="10" x1="607.2" y1="366.3" x2="416.7" y2="325"/>
	<line fill="none" stroke="#FFFFFF" stroke-miterlimit="10" x1="521.3" y1="80.3" x2="745.7" y2="132.2"/>
	<line fill="none" stroke="#FFFFFF" stroke-miterlimit="10" x1="745.7" y1="132.2" x2="1160.4" y2="86.5"/>
	<line fill="none" stroke="#FFFFFF" stroke-miterlimit="10" x1="1160.4" y1="86.5" x2="1051.3" y2="303.3"/>
	<line fill="none" stroke="#FFFFFF" stroke-miterlimit="10" x1="1051.3" y1="303.3" x2="745.7" y2="132.2"/>
	<line fill="none" stroke="#FFFFFF" stroke-miterlimit="10" x1="1160.4" y1="86.5" x2="1412.7" y2="106.3"/>
	<line fill="none" stroke="#FFFFFF" stroke-miterlimit="10" x1="1051.3" y1="303.3" x2="1277.2" y2="278.3"/>
	<line fill="none" stroke="#FFFFFF" stroke-miterlimit="10" x1="1277.2" y1="278.3" x2="1412.7" y2="106.3"/>
	<line fill="none" stroke="#FFFFFF" stroke-miterlimit="10" x1="1412.7" y1="106.3" x2="1450" y2="219.5"/>
	<line fill="none" stroke="#FFFFFF" stroke-miterlimit="10" x1="1450" y1="219.5" x2="1277.2" y2="278.3"/>
	<line fill="none" stroke="#FFFFFF" stroke-miterlimit="10" x1="1277.2" y1="278.3" x2="1406.3" y2="368.3"/>
	<line fill="none" stroke="#FFFFFF" stroke-miterlimit="10" x1="1406.3" y1="368.3" x2="1450" y2="219.5"/>
</g>
<g id="Layer_2">
	<g>
		<path fill="#FFFFFF" d="M139.5,166.5c-2.5,0-4.5-2-4.5-4.5s2-4.5,4.5-4.5s4.5,2,4.5,4.5S142,166.5,139.5,166.5z"/>
		<path fill="#2652FF" d="M139.5,159.5c1.4,0,2.5,1.1,2.5,2.5s-1.1,2.5-2.5,2.5s-2.5-1.1-2.5-2.5S138.1,159.5,139.5,159.5
			 M139.5,155.5c-3.6,0-6.5,2.9-6.5,6.5s2.9,6.5,6.5,6.5s6.5-2.9,6.5-6.5S143.1,155.5,139.5,155.5L139.5,155.5z"/>
	</g>
	<g>
		<path fill="#FFFFFF" d="M221.3,278.2c-2.5,0-4.5-2-4.5-4.5s2-4.5,4.5-4.5s4.5,2,4.5,4.5S223.8,278.2,221.3,278.2z"/>
		<path fill="#2652FF" d="M221.3,271.2c1.4,0,2.5,1.1,2.5,2.5s-1.1,2.5-2.5,2.5s-2.5-1.1-2.5-2.5S220,271.2,221.3,271.2
			 M221.3,267.2c-3.6,0-6.5,2.9-6.5,6.5s2.9,6.5,6.5,6.5s6.5-2.9,6.5-6.5S224.9,267.2,221.3,267.2L221.3,267.2z"/>
	</g>
	<g>
		<path fill="#FFFFFF" d="M305.7,344.8c-2.5,0-4.5-2-4.5-4.5s2-4.5,4.5-4.5s4.5,2,4.5,4.5S308.1,344.8,305.7,344.8z"/>
		<path fill="#2652FF" d="M305.7,337.8c1.4,0,2.5,1.1,2.5,2.5s-1.1,2.5-2.5,2.5c-1.4,0-2.5-1.1-2.5-2.5S304.3,337.8,305.7,337.8
			 M305.7,333.8c-3.6,0-6.5,2.9-6.5,6.5s2.9,6.5,6.5,6.5s6.5-2.9,6.5-6.5S309.3,333.8,305.7,333.8L305.7,333.8z"/>
	</g>
	<g>
		<path fill="#FFFFFF" d="M416.7,329.5c-2.5,0-4.5-2-4.5-4.5s2-4.5,4.5-4.5s4.5,2,4.5,4.5S419.1,329.5,416.7,329.5z"/>
		<path fill="#2652FF" d="M416.7,322.5c1.4,0,2.5,1.1,2.5,2.5s-1.1,2.5-2.5,2.5s-2.5-1.1-2.5-2.5S415.3,322.5,416.7,322.5
			 M416.7,318.5c-3.6,0-6.5,2.9-6.5,6.5s2.9,6.5,6.5,6.5s6.5-2.9,6.5-6.5S420.3,318.5,416.7,318.5L416.7,318.5z"/>
	</g>
	<g>
		<path fill="#FFFFFF" d="M332.3,161.5c-2.5,0-4.5-2-4.5-4.5s2-4.5,4.5-4.5s4.5,2,4.5,4.5S334.8,161.5,332.3,161.5z"/>
		<path fill="#2652FF" d="M332.3,154.5c1.4,0,2.5,1.1,2.5,2.5s-1.1,2.5-2.5,2.5c-1.4,0-2.5-1.1-2.5-2.5S331,154.5,332.3,154.5
			 M332.3,150.5c-3.6,0-6.5,2.9-6.5,6.5s2.9,6.5,6.5,6.5s6.5-2.9,6.5-6.5S335.9,150.5,332.3,150.5L332.3,150.5z"/>
	</g>
	<g>
		<path fill="#FFFFFF" d="M521.3,84.8c-2.5,0-4.5-2-4.5-4.5s2-4.5,4.5-4.5s4.5,2,4.5,4.5S523.8,84.8,521.3,84.8z"/>
		<path fill="#2652FF" d="M521.3,77.8c1.4,0,2.5,1.1,2.5,2.5s-1.1,2.5-2.5,2.5c-1.4,0-2.5-1.1-2.5-2.5S520,77.8,521.3,77.8
			 M521.3,73.8c-3.6,0-6.5,2.9-6.5,6.5s2.9,6.5,6.5,6.5s6.5-2.9,6.5-6.5S524.9,73.8,521.3,73.8L521.3,73.8z"/>
	</g>
	<g>
		<path fill="#FFFFFF" d="M527,292.8c-2.5,0-4.5-2-4.5-4.5s2-4.5,4.5-4.5s4.5,2,4.5,4.5S529.5,292.8,527,292.8z"/>
		<path fill="#2652FF" d="M527,285.8c1.4,0,2.5,1.1,2.5,2.5c0,1.4-1.1,2.5-2.5,2.5c-1.4,0-2.5-1.1-2.5-2.5
			C524.5,287,525.6,285.8,527,285.8 M527,281.8c-3.6,0-6.5,2.9-6.5,6.5c0,3.6,2.9,6.5,6.5,6.5s6.5-2.9,6.5-6.5
			C533.5,284.7,530.6,281.8,527,281.8L527,281.8z"/>
	</g>
	<g>
		<path fill="#FFFFFF" d="M607.2,370.8c-2.5,0-4.5-2-4.5-4.5s2-4.5,4.5-4.5s4.5,2,4.5,4.5S609.6,370.8,607.2,370.8z"/>
		<path fill="#2652FF" d="M607.2,363.8c1.4,0,2.5,1.1,2.5,2.5c0,1.4-1.1,2.5-2.5,2.5s-2.5-1.1-2.5-2.5
			C604.7,365,605.8,363.8,607.2,363.8 M607.2,359.8c-3.6,0-6.5,2.9-6.5,6.5s2.9,6.5,6.5,6.5s6.5-2.9,6.5-6.5
			S610.8,359.8,607.2,359.8L607.2,359.8z"/>
	</g>
	<g>
		<path fill="#FFFFFF" d="M653,283.2c-2.5,0-4.5-2-4.5-4.5s2-4.5,4.5-4.5s4.5,2,4.5,4.5S655.5,283.2,653,283.2z"/>
		<path fill="#2652FF" d="M653,276.2c1.4,0,2.5,1.1,2.5,2.5c0,1.4-1.1,2.5-2.5,2.5c-1.4,0-2.5-1.1-2.5-2.5
			C650.5,277.3,651.6,276.2,653,276.2 M653,272.2c-3.6,0-6.5,2.9-6.5,6.5s2.9,6.5,6.5,6.5s6.5-2.9,6.5-6.5S656.6,272.2,653,272.2
			L653,272.2z"/>
	</g>
	<g>
		<path fill="#FFFFFF" d="M745.7,136.7c-2.5,0-4.5-2-4.5-4.5s2-4.5,4.5-4.5s4.5,2,4.5,4.5S748.1,136.7,745.7,136.7z"/>
		<path fill="#2652FF" d="M745.7,129.7c1.4,0,2.5,1.1,2.5,2.5s-1.1,2.5-2.5,2.5s-2.5-1.1-2.5-2.5S744.3,129.7,745.7,129.7
			 M745.7,125.7c-3.6,0-6.5,2.9-6.5,6.5s2.9,6.5,6.5,6.5s6.5-2.9,6.5-6.5S749.3,125.7,745.7,125.7L745.7,125.7z"/>
	</g>
	<g>
		<path fill="#FFFFFF" d="M1051.3,307.8c-2.5,0-4.5-2-4.5-4.5s2-4.5,4.5-4.5s4.5,2,4.5,4.5S1053.8,307.8,1051.3,307.8z"/>
		<path fill="#2652FF" d="M1051.3,300.8c1.4,0,2.5,1.1,2.5,2.5s-1.1,2.5-2.5,2.5c-1.4,0-2.5-1.1-2.5-2.5S1050,300.8,1051.3,300.8
			 M1051.3,296.8c-3.6,0-6.5,2.9-6.5,6.5s2.9,6.5,6.5,6.5s6.5-2.9,6.5-6.5S1054.9,296.8,1051.3,296.8L1051.3,296.8z"/>
	</g>
	<g>
		<path fill="#FFFFFF" d="M1160.4,91c-2.5,0-4.5-2-4.5-4.5s2-4.5,4.5-4.5s4.5,2,4.5,4.5S1162.8,91,1160.4,91z"/>
		<path fill="#2652FF" d="M1160.4,84c1.4,0,2.5,1.1,2.5,2.5s-1.1,2.5-2.5,2.5c-1.4,0-2.5-1.1-2.5-2.5S1159,84,1160.4,84 M1160.4,80
			c-3.6,0-6.5,2.9-6.5,6.5s2.9,6.5,6.5,6.5s6.5-2.9,6.5-6.5S1163.9,80,1160.4,80L1160.4,80z"/>
	</g>
	<g>
		<path fill="#FFFFFF" d="M1277.2,282.8c-2.5,0-4.5-2-4.5-4.5s2-4.5,4.5-4.5s4.5,2,4.5,4.5S1279.7,282.8,1277.2,282.8z"/>
		<path fill="#2652FF" d="M1277.2,275.8c1.4,0,2.5,1.1,2.5,2.5c0,1.4-1.1,2.5-2.5,2.5s-2.5-1.1-2.5-2.5
			C1274.7,276.9,1275.8,275.8,1277.2,275.8 M1277.2,271.8c-3.6,0-6.5,2.9-6.5,6.5s2.9,6.5,6.5,6.5s6.5-2.9,6.5-6.5
			S1280.8,271.8,1277.2,271.8L1277.2,271.8z"/>
	</g>
	<g>
		<path fill="#FFFFFF" d="M1412.7,110.8c-2.5,0-4.5-2-4.5-4.5s2-4.5,4.5-4.5s4.5,2,4.5,4.5S1415.1,110.8,1412.7,110.8z"/>
		<path fill="#2652FF" d="M1412.7,103.8c1.4,0,2.5,1.1,2.5,2.5s-1.1,2.5-2.5,2.5c-1.4,0-2.5-1.1-2.5-2.5S1411.3,103.8,1412.7,103.8
			 M1412.7,99.8c-3.6,0-6.5,2.9-6.5,6.5s2.9,6.5,6.5,6.5c3.6,0,6.5-2.9,6.5-6.5S1416.3,99.8,1412.7,99.8L1412.7,99.8z"/>
	</g>
	<g>
		<path fill="#FFFFFF" d="M1450,224c-2.5,0-4.5-2-4.5-4.5s2-4.5,4.5-4.5s4.5,2,4.5,4.5S1452.5,224,1450,224z"/>
		<path fill="#2652FF" d="M1450,217c1.4,0,2.5,1.1,2.5,2.5s-1.1,2.5-2.5,2.5c-1.4,0-2.5-1.1-2.5-2.5S1448.6,217,1450,217 M1450,213
			c-3.6,0-6.5,2.9-6.5,6.5s2.9,6.5,6.5,6.5s6.5-2.9,6.5-6.5S1453.6,213,1450,213L1450,213z"/>
	</g>
	<g>
		<path fill="#FFFFFF" d="M1406.3,372.8c-2.5,0-4.5-2-4.5-4.5s2-4.5,4.5-4.5s4.5,2,4.5,4.5S1408.8,372.8,1406.3,372.8z"/>
		<path fill="#2652FF" d="M1406.3,365.8c1.4,0,2.5,1.1,2.5,2.5c0,1.4-1.1,2.5-2.5,2.5c-1.4,0-2.5-1.1-2.5-2.5
			C1403.8,367,1405,365.8,1406.3,365.8 M1406.3,361.8c-3.6,0-6.5,2.9-6.5,6.5s2.9,6.5,6.5,6.5s6.5-2.9,6.5-6.5
			S1409.9,361.8,1406.3,361.8L1406.3,361.8z"/>
	</g>
	<g>
		<path fill="#FFFFFF" d="M51.5,333.5c-2.5,0-4.5-2-4.5-4.5s2-4.5,4.5-4.5s4.5,2,4.5,4.5S54,333.5,51.5,333.5z"/>
		<path fill="#2652FF" d="M51.5,326.5c1.4,0,2.5,1.1,2.5,2.5s-1.1,2.5-2.5,2.5S49,330.4,49,329S50.1,326.5,51.5,326.5 M51.5,322.5
			c-3.6,0-6.5,2.9-6.5,6.5s2.9,6.5,6.5,6.5s6.5-2.9,6.5-6.5S55.1,322.5,51.5,322.5L51.5,322.5z"/>
	</g>
</g>
</svg>
