<?xml version="1.0" encoding="utf-8"?>
<!-- Generator: Adobe Illustrator 18.1.0, SVG Export Plug-In . SVG Version: 6.00 Build 0)  -->
<svg version="1.1" id="Music" xmlns="http://www.w3.org/2000/svg" xmlns:xlink="http://www.w3.org/1999/xlink" x="0px" y="0px"
	 viewBox="0 0 600 200" enable-background="new 0 0 600 200" xml:space="preserve">
<rect fill="#A5FFD3" width="600" height="200"/>
<g>
	<defs>
		<rect id="SVGID_1_" width="600" height="200"/>
	</defs>
	<clipPath id="SVGID_2_">
		<use xlink:href="#SVGID_1_"  overflow="visible"/>
	</clipPath>
	<g clip-path="url(#SVGID_2_)">
		<path fill="none" stroke="#FFFFFF" stroke-width="6" stroke-linecap="round" stroke-linejoin="round" stroke-miterlimit="10" d="
			M394,240.6c-7.3-9.7,8.1-21.2,0.8-30.9c-7.3-9.7-22.6,1.9-29.9-7.8s8.1-21.2,0.8-30.9c-7.3-9.7-22.6,1.9-29.9-7.8
			s8.1-21.2,0.8-30.9c-7.3-9.7-22.6,1.9-29.9-7.8"/>
		<path fill="none" stroke="#FFFFFF" stroke-width="6" stroke-linecap="round" stroke-linejoin="round" stroke-miterlimit="10" d="
			M-15.8,201.3c4.8,3,9.6,6,15.1,3.4c10.9-5.3,2.5-22.6,13.4-27.8c10.9-5.3,19.2,12,30.1,6.8c10.9-5.3,2.5-22.6,13.4-27.8
			c10.9-5.3,19.2,12,30.1,6.8c12.1-5.9,3.7-23.1,13.4-27.8"/>
		<path fill="none" stroke="#FFFFFF" stroke-width="6" stroke-linecap="round" stroke-linejoin="round" stroke-miterlimit="10" d="
			M60.4-122.5c7.8-9.3,22.5,3.1,30.3-6.1c7.8-9.3-6.9-21.6,0.9-30.9c7.8-9.3,22.5,3.1,30.3-6.1c7.8-9.3-6.9-21.6,0.9-30.9
			c7.8-9.3,22.5,3.1,30.3-6.1c7.8-9.3-6.9-21.6,0.9-30.9"/>
		<path fill="none" stroke="#FFFFFF" stroke-width="6" stroke-linecap="round" stroke-linejoin="round" stroke-miterlimit="10" d="
			M364.9-227.5c-5.8,10.6-22.6,1.5-28.4,12.1s11.1,19.8,5.4,30.4c-5.8,10.6-22.6,1.5-28.4,12.1s11.1,19.8,5.4,30.4
			c-5.8,10.6-22.6,1.5-28.4,12.1s11.1,19.8,5.4,30.4"/>
		<path fill="none" stroke="#FFFFFF" stroke-width="6" stroke-linecap="round" stroke-linejoin="round" stroke-miterlimit="10" d="
			M170,98.3c-5.7-10.6,11.2-19.7,5.5-30.4c-5.7-10.6-22.6-1.6-28.4-12.2c-5.7-10.6,11.2-19.7,5.5-30.4c-5.8-10.6-22.7-1.5-28.4-12.2
			c-5.7-10.6,11.2-19.7,5.5-30.4c-5.7-10.7-22.6-1.6-28.4-12.2"/>
	</g>
	<g clip-path="url(#SVGID_2_)">
		<path fill="none" stroke="#FFFFFF" stroke-width="6" stroke-linecap="round" stroke-linejoin="round" stroke-miterlimit="10" d="
			M552.1,38.2c-5.8,10.6-22.6,1.5-28.4,12.1c-5.8,10.6,11.1,19.8,5.4,30.4c-5.8,10.6-22.6,1.5-28.4,12.1s11.1,19.8,5.4,30.4
			c-5.8,10.6-22.6,1.5-28.4,12.1c-5.8,10.6,11.1,19.8,5.4,30.4"/>
		<path fill="none" stroke="#FFFFFF" stroke-width="6" stroke-linecap="round" stroke-linejoin="round" stroke-miterlimit="10" d="
			M470,1.6c-5.7-10.6,11.2-19.7,5.5-30.4c-5.7-10.6-22.6-1.6-28.4-12.2c-5.7-10.6,11.2-19.7,5.5-30.4C446.9-82,430-73,424.2-83.6
			c-5.7-10.6,11.2-19.7,5.5-30.4s-22.6-1.6-28.4-12.2"/>
		<path fill="none" stroke="#FFFFFF" stroke-width="6" stroke-linecap="round" stroke-linejoin="round" stroke-miterlimit="10" d="
			M560.8-249.3c5.6,10.7-11.4,19.6-5.9,30.3c5.6,10.7,22.6,1.8,28.2,12.6c5.6,10.7-11.4,19.6-5.9,30.3c5.6,10.7,22.6,1.8,28.2,12.6
			c5.6,10.7-11.4,19.6-5.9,30.3c2,3.9,5.6,5.2,9.5,5.8"/>
	</g>
	<circle clip-path="url(#SVGID_2_)" fill="#081245" cx="212.5" cy="172.7" r="5.1"/>
	<circle clip-path="url(#SVGID_2_)" fill="#081245" cx="271.1" cy="6.7" r="5.1"/>
	<circle clip-path="url(#SVGID_2_)" fill="#081245" cx="56.2" cy="16.5" r="5.1"/>
	<circle clip-path="url(#SVGID_2_)" fill="#081245" cx="420.9" cy="63.2" r="5.1"/>
	<circle clip-path="url(#SVGID_2_)" fill="#081245" cx="481.8" cy="-240.5" r="5.1"/>
	<circle clip-path="url(#SVGID_2_)" fill="#081245" cx="61.1" cy="-226.8" r="5.1"/>
	<circle clip-path="url(#SVGID_2_)" fill="#081245" cx="555.8" cy="172.4" r="5.1"/>
	<circle clip-path="url(#SVGID_2_)" fill="#081245" cx="535.6" cy="-62.2" r="5.1"/>
	<circle clip-path="url(#SVGID_2_)" fill="#081245" cx="245.2" cy="-169.3" r="5.1"/>
	
		<circle clip-path="url(#SVGID_2_)" fill="none" stroke="#FFFB78" stroke-width="6" stroke-miterlimit="10" cx="293.3" cy="177.8" r="13.6"/>
	
		<circle clip-path="url(#SVGID_2_)" fill="none" stroke="#FFFB78" stroke-width="6" stroke-miterlimit="10" cx="370.5" cy="40.5" r="13.6"/>
	
		<circle clip-path="url(#SVGID_2_)" fill="none" stroke="#FFFB78" stroke-width="6" stroke-miterlimit="10" cx="37.6" cy="-96.2" r="13.6"/>
	<circle clip-path="url(#SVGID_2_)" fill="#081245" cx="318.5" cy="-101.3" r="5.1"/>
	
		<circle clip-path="url(#SVGID_2_)" fill="none" stroke="#FFFB78" stroke-width="6" stroke-miterlimit="10" cx="516.7" cy="-155.3" r="13.6"/>
	
		<circle clip-path="url(#SVGID_2_)" fill="none" stroke="#FFFB78" stroke-width="6" stroke-miterlimit="10" cx="579.9" cy="99.9" r="13.6"/>
	<path clip-path="url(#SVGID_2_)" fill="none" stroke="#FFFB78" stroke-width="6" stroke-miterlimit="10" d="M284.7-287.2
		c0,7.5-6.1,13.6-13.6,13.6s-13.6-6.1-13.6-13.6"/>
	<path clip-path="url(#SVGID_2_)" fill="none" stroke="#FFFB78" stroke-width="6" stroke-miterlimit="10" d="M65.9,217.7
		c0-7.5,6.1-13.6,13.6-13.6s13.6,6.1,13.6,13.6"/>
	
		<circle clip-path="url(#SVGID_2_)" fill="none" stroke="#FFFB78" stroke-width="6" stroke-miterlimit="10" cx="236.5" cy="65.1" r="13.6"/>
</g>
<g display="none">
	<defs>
		<rect id="SVGID_3_" width="600" height="200"/>
	</defs>
	<clipPath id="SVGID_4_" display="inline">
		<use xlink:href="#SVGID_3_"  overflow="visible"/>
	</clipPath>
	
		<line display="inline" clip-path="url(#SVGID_4_)" fill="none" stroke="#FF3642" stroke-width="3" stroke-miterlimit="10" x1="-12.4" y1="92.5" x2="525.4" y2="263.9"/>
	
		<line display="inline" clip-path="url(#SVGID_4_)" fill="none" stroke="#FF3642" stroke-width="3" stroke-miterlimit="10" x1="-12.4" y1="79.8" x2="525.4" y2="251.2"/>
	
		<line display="inline" clip-path="url(#SVGID_4_)" fill="none" stroke="#FF3642" stroke-width="3" stroke-miterlimit="10" x1="-12.4" y1="67" x2="525.4" y2="238.4"/>
	
		<line display="inline" clip-path="url(#SVGID_4_)" fill="none" stroke="#FF3642" stroke-width="3" stroke-miterlimit="10" x1="-12.4" y1="54.3" x2="525.4" y2="225.7"/>
	
		<line display="inline" clip-path="url(#SVGID_4_)" fill="none" stroke="#FF3642" stroke-width="3" stroke-miterlimit="10" x1="-12.4" y1="41.6" x2="525.4" y2="213"/>
	
		<line display="inline" clip-path="url(#SVGID_4_)" fill="none" stroke="#FF3642" stroke-width="3" stroke-miterlimit="10" x1="70.5" y1="-0.8" x2="608.3" y2="170.6"/>
	
		<line display="inline" clip-path="url(#SVGID_4_)" fill="none" stroke="#FF3642" stroke-width="3" stroke-miterlimit="10" x1="70.5" y1="-13.6" x2="608.3" y2="157.8"/>
	
		<line display="inline" clip-path="url(#SVGID_4_)" fill="none" stroke="#FF3642" stroke-width="3" stroke-miterlimit="10" x1="70.5" y1="-26.3" x2="608.3" y2="145.1"/>
	
		<line display="inline" clip-path="url(#SVGID_4_)" fill="none" stroke="#FF3642" stroke-width="3" stroke-miterlimit="10" x1="70.5" y1="-39" x2="608.3" y2="132.4"/>
	
		<line display="inline" clip-path="url(#SVGID_4_)" fill="none" stroke="#FF3642" stroke-width="3" stroke-miterlimit="10" x1="70.5" y1="-51.7" x2="608.3" y2="119.7"/>
	
		<line display="inline" clip-path="url(#SVGID_4_)" fill="none" stroke="#FF3642" stroke-width="3" stroke-miterlimit="10" x1="296" y1="-49.5" x2="833.8" y2="121.9"/>
	
		<line display="inline" clip-path="url(#SVGID_4_)" fill="none" stroke="#FF3642" stroke-width="3" stroke-miterlimit="10" x1="296" y1="-62.2" x2="833.8" y2="109.2"/>
	
		<line display="inline" clip-path="url(#SVGID_4_)" fill="none" stroke="#FF3642" stroke-width="3" stroke-miterlimit="10" x1="296" y1="-75" x2="833.8" y2="96.4"/>
	
		<line display="inline" clip-path="url(#SVGID_4_)" fill="none" stroke="#FF3642" stroke-width="3" stroke-miterlimit="10" x1="296" y1="-87.7" x2="833.8" y2="83.7"/>
	
		<line display="inline" clip-path="url(#SVGID_4_)" fill="none" stroke="#FF3642" stroke-width="3" stroke-miterlimit="10" x1="296" y1="-100.4" x2="833.8" y2="71"/>
</g>
</svg>
