<?xml version="1.0" encoding="utf-8"?>
<!-- Generator: Adobe Illustrator 18.1.0, SVG Export Plug-In . SVG Version: 6.00 Build 0)  -->
<svg version="1.1" id="Food" xmlns="http://www.w3.org/2000/svg" xmlns:xlink="http://www.w3.org/1999/xlink" x="0px" y="0px"
	 viewBox="0 0 600 200" enable-background="new 0 0 600 200" xml:space="preserve">
<rect x="-1" fill="#FF3642" width="601" height="200"/>
<circle fill="#081245" cx="516.3" cy="159.7" r="2.7"/>
<circle fill="#FF9FD6" cx="565.4" cy="114.7" r="2.7"/>
<circle fill="#00A0FF" cx="593.6" cy="128.3" r="2.7"/>
<circle fill="#DEF7E0" cx="536" cy="136.7" r="2.7"/>
<circle fill="#A5FFD3" cx="597.4" cy="167.9" r="2.7"/>
<circle fill="#DEF7E0" cx="575.6" cy="142.7" r="2.7"/>
<circle fill="#081245" cx="577.8" cy="87.5" r="2.7"/>
<circle fill="#DEF7E0" cx="555" cy="166.8" r="2.7"/>
<circle fill="#DEF7E0" cx="519.5" cy="185.1" r="2.7"/>
<circle fill="#DEF7E0" cx="597.7" cy="71" r="2.7"/>
<circle fill="#DEF7E0" cx="574.9" cy="194.1" r="2.7"/>
<circle fill="#DEF7E0" cx="52.9" cy="143.3" r="2.7"/>
<circle fill="#081245" cx="22.6" cy="113.1" r="2.7"/>
<circle fill="#A5FFD3" cx="50.1" cy="111.6" r="2.7"/>
<circle fill="#081245" cx="31.5" cy="153" r="2.7"/>
<circle fill="#A5FFD3" cx="82.6" cy="151.6" r="2.7"/>
<circle fill="#081245" cx="149.7" cy="106.4" r="2.7"/>
<circle fill="#00A0FF" cx="182.5" cy="82.1" r="2.7"/>
<circle fill="#DEF7E0" cx="121.8" cy="140.6" r="2.7"/>
<circle fill="#081245" cx="89.6" cy="117.4" r="2.7"/>
<circle fill="#A5FFD3" cx="89.7" cy="6.2" r="2.7"/>
<circle fill="#00A0FF" cx="132.7" cy="8.7" r="2.7"/>
<circle fill="#DEF7E0" cx="19.9" cy="15.2" r="2.7"/>
<circle fill="#081245" cx="157.2" cy="38" r="2.7"/>
<circle fill="#DEF7E0" cx="151.4" cy="67.6" r="2.7"/>
<circle fill="#00A0FF" cx="89.5" cy="58.6" r="2.7"/>
<circle fill="#081245" cx="116.4" cy="28.8" r="2.7"/>
<circle fill="#DEF7E0" cx="161.9" cy="10.4" r="2.7"/>
<circle fill="#00A0FF" cx="41.9" cy="45.9" r="2.7"/>
<circle fill="#DEF7E0" cx="191.1" cy="31.9" r="2.7"/>
<circle fill="#DEF7E0" cx="67.2" cy="32.5" r="2.7"/>
<circle fill="#00A0FF" cx="188.3" cy="-1.7" r="2.7"/>
<circle fill="#A5FFD3" cx="68" cy="84.7" r="2.7"/>
<circle fill="#FF9FD6" cx="57.7" cy="183.9" r="2.7"/>
<circle fill="#DEF7E0" cx="109" cy="79.4" r="2.7"/>
<circle fill="#00A0FF" cx="111" cy="177.2" r="2.7"/>
<circle fill="#A5FFD3" cx="19.7" cy="70.4" r="2.7"/>
<circle fill="#081245" cx="92.3" cy="196.6" r="2.7"/>
<circle fill="#DEF7E0" cx="460.9" cy="190.2" r="2.7"/>
<circle fill="#A5FFD3" cx="385.2" cy="133.9" r="2.7"/>
<circle fill="#DEF7E0" cx="414.7" cy="165.2" r="2.7"/>
<circle fill="#DEF7E0" cx="445.5" cy="156" r="2.7"/>
<circle fill="#081245" cx="113.5" cy="101.7" r="2.7"/>
<circle fill="#DEF7E0" cx="471.4" cy="137.6" r="2.7"/>
<circle fill="#00A0FF" cx="352" cy="72.6" r="2.7"/>
<circle fill="#081245" cx="445.6" cy="70.8" r="2.7"/>
<circle fill="#00A0FF" cx="441.3" cy="115.1" r="2.7"/>
<circle fill="#DEF7E0" cx="431.6" cy="23.6" r="2.7"/>
<circle fill="#00A0FF" cx="51.5" cy="7.8" r="2.7"/>
<circle fill="#00A0FF" cx="468.5" cy="3.6" r="2.7"/>
<circle fill="#A5FFD3" cx="533.2" cy="114.4" r="2.7"/>
<circle fill="#00A0FF" cx="388.9" cy="12.4" r="2.7"/>
<circle fill="#081245" cx="385.5" cy="50.4" r="2.7"/>
<circle fill="#A5FFD3" cx="338.4" cy="2.8" r="2.7"/>
<circle fill="#081245" cx="559.8" cy="63.6" r="2.7"/>
<circle fill="#081245" cx="363.1" cy="15" r="2.7"/>
<circle fill="#DEF7E0" cx="408.4" cy="34.2" r="2.7"/>
<circle fill="#081245" cx="413.9" cy="70.1" r="2.7"/>
<circle fill="#00A0FF" cx="455.9" cy="46.8" r="2.7"/>
<circle fill="#DEF7E0" cx="254.6" cy="7.8" r="2.7"/>
<circle fill="#00A0FF" cx="296.2" cy="13.2" r="2.7"/>
<circle fill="#081245" cx="284.9" cy="38" r="2.7"/>
<circle fill="#081245" cx="261" cy="65.4" r="2.7"/>
<circle fill="#081245" cx="377.5" cy="186.4" r="2.7"/>
<circle fill="#A5FFD3" cx="257.4" cy="39.5" r="2.7"/>
<circle fill="#DEF7E0" cx="314.1" cy="-1.1" r="2.7"/>
<circle fill="#00A0FF" cx="524.3" cy="84" r="2.7"/>
<circle fill="#081245" cx="332.9" cy="37.9" r="2.7"/>
<circle fill="#081245" cx="276" cy="-1.9" r="2.7"/>
<circle fill="#A5FFD3" cx="499.9" cy="112.3" r="2.7"/>
<circle fill="#081245" cx="492.2" cy="26.1" r="2.7"/>
<circle fill="#DEF7E0" cx="292" cy="70.5" r="2.7"/>
<circle fill="#00A0FF" cx="546.1" cy="31.1" r="2.7"/>
<circle fill="#081245" cx="524.6" cy="56.1" r="2.7"/>
<circle fill="#DEF7E0" cx="495.1" cy="82.3" r="2.7"/>
<circle fill="#00A0FF" cx="13.8" cy="186.3" r="2.7"/>
<circle fill="#DEF7E0" cx="303.5" cy="143.3" r="2.7"/>
<circle fill="#081245" cx="282" cy="153" r="2.7"/>
<circle fill="#A5FFD3" cx="333.2" cy="151.6" r="2.7"/>
<circle fill="#DEF7E0" cx="343.8" cy="128.1" r="2.7"/>
<circle fill="#FF9FD6" cx="308.3" cy="190.4" r="2.7"/>
<circle fill="#00A0FF" cx="361.5" cy="177.2" r="2.7"/>
<circle fill="#DEF7E0" cx="196.2" cy="115.2" r="2.7"/>
<circle fill="#081245" cx="342.9" cy="196.6" r="2.7"/>
<circle fill="#081245" cx="275.9" cy="183.8" r="2.7"/>
<circle fill="#DEF7E0" cx="283.5" cy="98.6" r="2.7"/>
<circle fill="#DEF7E0" cx="340.1" cy="98.9" r="2.7"/>
<circle fill="#00A0FF" cx="241.1" cy="101.6" r="2.7"/>
<circle fill="#081245" cx="406.4" cy="104.3" r="2.7"/>
<circle fill="#00A0FF" cx="463.4" cy="87.3" r="2.7"/>
<circle fill="#DEF7E0" cx="113.1" cy="-0.2" r="2.7"/>
<circle fill="#DEF7E0" cx="570.6" cy="30.1" r="2.7"/>
<circle fill="#081245" cx="534.3" cy="-1.1" r="2.7"/>
<circle fill="#081245" cx="587.7" cy="1.7" r="2.7"/>
<circle fill="#081245" cx="215.4" cy="44.3" r="2.7"/>
<circle fill="#DEF7E0" cx="180.6" cy="152.2" r="2.7"/>
<circle fill="#081245" cx="159.1" cy="162" r="2.7"/>
<circle fill="#A5FFD3" cx="210.3" cy="160.6" r="2.7"/>
<circle fill="#DEF7E0" cx="249.5" cy="135.2" r="2.7"/>
<circle fill="#FF9FD6" cx="185.4" cy="192.8" r="2.7"/>
<circle fill="#00A0FF" cx="238.6" cy="186.2" r="2.7"/>
<circle fill="#00A0FF" cx="224.5" cy="66.4" r="2.7"/>
<circle fill="#00A0FF" cx="141.5" cy="195.3" r="2.7"/>
</svg>
