<?xml version="1.0" encoding="utf-8"?>
<!-- Generator: Adobe Illustrator 18.1.0, SVG Export Plug-In . SVG Version: 6.00 Build 0)  -->
<svg version="1.1" id="Fashion" xmlns="http://www.w3.org/2000/svg" xmlns:xlink="http://www.w3.org/1999/xlink" x="0px" y="0px"
	 viewBox="0 0 600 200" enable-background="new 0 0 600 200" xml:space="preserve">
<rect x="0.5" fill="#FF9FD6" width="600" height="200"/>
<g>
	<defs>
		<rect id="SVGID_1_" x="0.5" width="600" height="200"/>
	</defs>
	<clipPath id="SVGID_2_">
		<use xlink:href="#SVGID_1_"  overflow="visible"/>
	</clipPath>
	<g clip-path="url(#SVGID_2_)">
		<g>
			<path fill="none" stroke="#FFFFFF" stroke-width="3" stroke-miterlimit="10" d="M190.1,496.7c12.6-10,24.1-19.4,30.7-25.5
				c20.1-18.5,343.7-319.8,347-322.8c0.3-0.2,0.4-0.6,0.4-0.9c0-0.3-0.1-0.6-0.3-0.8l0,0c0,0,0-0.1-0.1-0.1L491,47.9
				c-0.4-0.5-1.1-0.6-1.6-0.3l0,0c-2.6,1.7-260.8,168.3-300,194.3c-24.4,16.3-94.9,52.4-95.6,52.8l0,0c-0.1,0.1-0.3,0.2-0.4,0.3
				c-0.4,0.5-0.3,1.3,0.2,1.7c26.2,21.6,25.6,36.6,15.5,55.1C94.9,378.2,75,400,54,423.1c-6.8,7.5-13.9,15.3-20.8,23.2l-0.8,0.9
				l52.7,49.5"/>
		</g>
		<g>
			<path fill="none" stroke="#081245" stroke-width="3" stroke-miterlimit="10" d="M28.1-14.3V85.8v2.5v18.6h104.2V95.2v-7
				c9.2,0,15,0,15.2,0c13,1.2,20.5,15.4,21.2,40c0,0.4,0.3,0.8,0.6,1c0.3,0.4,0.7,0.6,1.2,0.5c0.8-0.2,78.2-15.2,107.4-17.4
				c38.4-2.8,250.4-21.5,327.8-28.3"/>
		</g>
	</g>
	<g clip-path="url(#SVGID_2_)">
		<g>
			<path fill="none" stroke="#FF596E" stroke-width="2" stroke-miterlimit="10" d="M605.8,291c-0.6,0.4-1.2,0.9-1.7,1.3"/>
			<path fill="none" stroke="#FF596E" stroke-width="2" stroke-miterlimit="10" stroke-dasharray="4.4621,4.4621,4.4621,4.4621" d="
				M600.5,295c-4.2,3.1-8.5,6-12.9,8.7"/>
			
				<path fill="none" stroke="#FF596E" stroke-width="2" stroke-miterlimit="10" stroke-dasharray="4.4621,4.4621,4.4621,4.4621,4.4621,4.4621" d="
				M585.6,304.9c-35,21.5-76.2,33.9-120.4,33.9c-127.3,0-230.5-103.2-230.5-230.5c0-43.5,12-84.2,33-118.9"/>
			<path fill="none" stroke="#FF596E" stroke-width="2" stroke-miterlimit="10" d="M268.9-12.4c0.4-0.6,0.8-1.2,1.2-1.9"/>
		</g>
	</g>
	<path clip-path="url(#SVGID_2_)" fill="#F7FAFA" stroke="#F7FAFA" stroke-width="3" stroke-miterlimit="10" d="M368,391.8
		c-0.5,1.6-1.3,2.9-2.5,4l-51.9,46.6l-49.4-55.1l51.8-46.6c4.2-3.7,11.2-2.8,19.9,2.8C353,354.3,371.6,379.7,368,391.8z"/>
	<g clip-path="url(#SVGID_2_)">
		<g>
			<g>
				<polyline fill="none" stroke="#FFFB78" stroke-width="3" stroke-miterlimit="10" points="298.1,440.9 296.4,442.4 295,440.7 
									"/>
				
					<line fill="none" stroke="#FFFB78" stroke-width="3" stroke-miterlimit="10" stroke-dasharray="4.0964,4.0964,4.0964,4.0964" x1="292.2" y1="437.7" x2="282.7" y2="427"/>
				
					<line fill="none" stroke="#FFFB78" stroke-width="3" stroke-miterlimit="10" stroke-dasharray="4.0964,4.0964,4.0964,4.0964,4.0964,4.0964" x1="281.3" y1="425.5" x2="249.9" y2="390.4"/>
				<polyline fill="none" stroke="#FFFB78" stroke-width="3" stroke-miterlimit="10" points="248.5,388.9 247,387.2 248.7,385.8 
									"/>
				
					<line fill="none" stroke="#FFFB78" stroke-width="3" stroke-miterlimit="10" stroke-dasharray="4.1871,4.1871,4.1871,4.1871" x1="251.8" y1="383" x2="262.7" y2="373.2"/>
				
					<path fill="none" stroke="#FFFB78" stroke-width="3" stroke-miterlimit="10" stroke-dasharray="4.1871,4.1871,4.1871,4.1871,4.1871,4.1871" d="
					M264.2,371.8l34.8-31.1c4.2-3.7,11.2-2.8,19.9,2.8c17.1,10.9,35.7,36.3,32,48.4c-0.5,1.6-1.3,2.9-2.5,4l-48.8,43.7"/>
			</g>
		</g>
	</g>
</g>
</svg>
