<?xml version="1.0" encoding="utf-8"?>
<!-- Generator: Adobe Illustrator 18.1.0, SVG Export Plug-In . SVG Version: 6.00 Build 0)  -->
<svg version="1.1" id="Journalism" xmlns="http://www.w3.org/2000/svg" xmlns:xlink="http://www.w3.org/1999/xlink" x="0px" y="0px"
	 viewBox="0 0 600 200" enable-background="new 0 0 600 200" xml:space="preserve">
<rect fill="#12BCEA" stroke="#231F20" stroke-miterlimit="10" width="600" height="200"/>
<line fill="none" stroke="#FFBDAB" stroke-width="2" stroke-miterlimit="10" x1="0" y1="20" x2="600" y2="20"/>
<line fill="none" stroke="#FFBDAB" stroke-width="2" stroke-miterlimit="10" x1="0" y1="40" x2="600" y2="40"/>
<line fill="none" stroke="#FFBDAB" stroke-width="2" stroke-miterlimit="10" x1="0" y1="60" x2="600" y2="60"/>
<line fill="none" stroke="#FFBDAB" stroke-width="2" stroke-miterlimit="10" x1="0" y1="120" x2="600" y2="120"/>
<line fill="none" stroke="#FFBDAB" stroke-width="2" stroke-miterlimit="10" x1="0" y1="80" x2="600" y2="80"/>
<line fill="none" stroke="#FFBDAB" stroke-width="2" stroke-miterlimit="10" x1="0" y1="140" x2="600" y2="140"/>
<line fill="none" stroke="#FFBDAB" stroke-width="2" stroke-miterlimit="10" x1="0" y1="180" x2="600" y2="180"/>
<line fill="none" stroke="#FFBDAB" stroke-width="2" stroke-miterlimit="10" x1="0" y1="100" x2="600" y2="100"/>
<line fill="none" stroke="#FFBDAB" stroke-width="2" stroke-miterlimit="10" x1="0" y1="160" x2="600" y2="160"/>
<g display="none">
	<rect y="475" display="inline" fill="#12BCEA" stroke="#231F20" stroke-miterlimit="10" width="600" height="200"/>
	
		<rect y="728" display="inline" fill="#12BCEA" stroke="#231F20" stroke-width="0.75" stroke-miterlimit="10" width="600" height="200"/>
	<rect y="974.5" display="inline" fill="#12BCEA" stroke="#231F20" stroke-miterlimit="10" width="600" height="200"/>
	<rect y="240" display="inline" fill="#12BCEA" stroke="#231F20" stroke-miterlimit="10" width="600" height="200"/>
	<rect y="240" display="inline" fill="#081245" width="600" height="10"/>
	<rect y="250" display="inline" fill="#A5FFD3" width="600" height="10"/>
	<rect y="258.8" display="inline" fill="#00C9AB" width="600" height="10"/>
	<rect y="268.8" display="inline" fill="#00E3E5" width="600" height="10"/>
	<rect y="366.8" display="inline" opacity="0.51" fill="#E8F6FF" width="600" height="7.2"/>
	<rect y="322.8" display="inline" opacity="0.51" fill="#E8F6FF" width="600" height="7.2"/>
	<rect y="300.8" display="inline" opacity="0.51" fill="#E8F6FF" width="600" height="7.2"/>
	<rect y="410.8" display="inline" opacity="0.51" fill="#E8F6FF" width="600" height="7.2"/>
	<rect y="278.8" display="inline" opacity="0.51" fill="#E8F6FF" width="600" height="7.2"/>
	<rect y="388.8" display="inline" opacity="0.51" fill="#E8F6FF" width="600" height="7.2"/>
	<rect y="344.8" display="inline" opacity="0.51" fill="#E8F6FF" width="600" height="7.2"/>
	<rect y="432.8" display="inline" opacity="0.51" fill="#E8F6FF" width="600" height="7.2"/>
	<line display="inline" fill="none" stroke="#FF9FD6" stroke-miterlimit="10" x1="485.2" y1="475" x2="601.2" y2="591"/>
	<line display="inline" fill="none" stroke="#FF9FD6" stroke-miterlimit="10" x1="457.6" y1="475.7" x2="600.2" y2="618.3"/>
	<line display="inline" fill="none" stroke="#FF9FD6" stroke-miterlimit="10" x1="371.2" y1="474.1" x2="572.2" y2="675.1"/>
	<line display="inline" fill="none" stroke="#FF9FD6" stroke-miterlimit="10" x1="428.4" y1="474.8" x2="601.2" y2="647.5"/>
	<line display="inline" fill="none" stroke="#FF9FD6" stroke-miterlimit="10" x1="344.6" y1="475.8" x2="541.2" y2="672.4"/>
	<line display="inline" fill="none" stroke="#FF9FD6" stroke-miterlimit="10" x1="287.9" y1="475.7" x2="486.1" y2="673.9"/>
	<line display="inline" fill="none" stroke="#FF9FD6" stroke-miterlimit="10" x1="400.3" y1="475" x2="600.2" y2="674.8"/>
	<line display="inline" fill="none" stroke="#FF9FD6" stroke-miterlimit="10" x1="315.4" y1="474.9" x2="514.9" y2="674.4"/>
	<line display="inline" fill="none" stroke="#DEF7E0" stroke-miterlimit="10" x1="251.5" y1="474.3" x2="369.4" y2="592.1"/>
	<line display="inline" fill="none" stroke="#DEF7E0" stroke-miterlimit="10" x1="223.2" y1="474.3" x2="355.2" y2="606.3"/>
	<line display="inline" fill="none" stroke="#DEF7E0" stroke-miterlimit="10" x1="195.5" y1="474.8" x2="341.1" y2="620.4"/>
	<line display="inline" fill="none" stroke="#DEF7E0" stroke-miterlimit="10" x1="146.5" y1="510.7" x2="298.6" y2="662.9"/>
	<line display="inline" fill="none" stroke="#DEF7E0" stroke-miterlimit="10" x1="174.8" y1="482.4" x2="326.9" y2="634.6"/>
	<line display="inline" fill="none" stroke="#DEF7E0" stroke-miterlimit="10" x1="132.4" y1="524.9" x2="284.5" y2="677"/>
	<line display="inline" fill="none" stroke="#DEF7E0" stroke-miterlimit="10" x1="104.1" y1="553.1" x2="224.7" y2="673.8"/>
	<line display="inline" fill="none" stroke="#DEF7E0" stroke-miterlimit="10" x1="160.6" y1="496.6" x2="312.8" y2="648.7"/>
	<line display="inline" fill="none" stroke="#DEF7E0" stroke-miterlimit="10" x1="118.2" y1="539" x2="252" y2="672.8"/>
	<line display="inline" fill="#FF9FD6" stroke="#FFFB78" stroke-miterlimit="10" x1="22.8" y1="677.4" x2="0.1" y2="654.7"/>
	<line display="inline" fill="#FF9FD6" stroke="#FFFB78" stroke-miterlimit="10" x1="106.5" y1="676.4" x2="0.1" y2="569.9"/>
	<line display="inline" fill="#FF9FD6" stroke="#FFFB78" stroke-miterlimit="10" x1="49.3" y1="675.7" x2="-1.3" y2="625.1"/>
	<line display="inline" fill="#FF9FD6" stroke="#FFFB78" stroke-miterlimit="10" x1="135.3" y1="676.8" x2="-1.3" y2="540.3"/>
	<line display="inline" fill="#FF9FD6" stroke="#FFFB78" stroke-miterlimit="10" x1="193.2" y1="678.2" x2="-1.3" y2="483.7"/>
	<line display="inline" fill="#FF9FD6" stroke="#FFFB78" stroke-miterlimit="10" x1="77.4" y1="675.5" x2="0.1" y2="598.2"/>
	<line display="inline" fill="#FF9FD6" stroke="#FFFB78" stroke-miterlimit="10" x1="162.3" y1="675.6" x2="-1.3" y2="512"/>
	
		<line display="inline" fill="#DEF7E0" stroke="#F7FAFA" stroke-width="0.75" stroke-miterlimit="10" x1="-1" y1="808" x2="601.2" y2="808"/>
	
		<line display="inline" fill="#DEF7E0" stroke="#F7FAFA" stroke-width="0.75" stroke-miterlimit="10" x1="-1" y1="888" x2="601.2" y2="888"/>
	
		<line display="inline" fill="#DEF7E0" stroke="#F7FAFA" stroke-width="0.75" stroke-miterlimit="10" x1="-1" y1="848" x2="601.2" y2="848"/>
	
		<line display="inline" fill="#DEF7E0" stroke="#F7FAFA" stroke-width="0.75" stroke-miterlimit="10" x1="-1" y1="788" x2="601.2" y2="788"/>
	
		<line display="inline" fill="#DEF7E0" stroke="#F7FAFA" stroke-width="0.75" stroke-miterlimit="10" x1="-1" y1="908" x2="601.2" y2="908"/>
	
		<line display="inline" fill="#DEF7E0" stroke="#F7FAFA" stroke-width="0.75" stroke-miterlimit="10" x1="-1" y1="868" x2="601.2" y2="868"/>
	
		<line display="inline" fill="#DEF7E0" stroke="#F7FAFA" stroke-width="0.75" stroke-miterlimit="10" x1="-1" y1="768" x2="601.2" y2="768"/>
	
		<line display="inline" fill="#DEF7E0" stroke="#F7FAFA" stroke-width="0.75" stroke-miterlimit="10" x1="-1" y1="828" x2="601.2" y2="828"/>
	
		<line display="inline" fill="#F7FAFA" stroke="#FF3642" stroke-width="0.75" stroke-miterlimit="10" x1="44" y1="728" x2="44" y2="928"/>
	
		<line display="inline" fill="#F7FAFA" stroke="#E8F6FF" stroke-width="0.75" stroke-miterlimit="10" x1="21.4" y1="1175.5" x2="21.4" y2="974.3"/>
	
		<line display="inline" fill="#F7FAFA" stroke="#E8F6FF" stroke-width="0.75" stroke-miterlimit="10" x1="43.8" y1="1175.5" x2="43.8" y2="974.3"/>
	
		<line display="inline" fill="#F7FAFA" stroke="#E8F6FF" stroke-width="0.75" stroke-miterlimit="10" x1="63.8" y1="1175.5" x2="63.8" y2="974.3"/>
	
		<line display="inline" fill="#F7FAFA" stroke="#3E59F8" stroke-width="2" stroke-miterlimit="10" x1="85.8" y1="1175.5" x2="85.8" y2="974.3"/>
	
		<line display="inline" fill="#F7FAFA" stroke="#E8F6FF" stroke-width="0.75" stroke-miterlimit="10" x1="108.2" y1="1175.5" x2="108.2" y2="974.3"/>
	
		<line display="inline" fill="#F7FAFA" stroke="#E8F6FF" stroke-width="0.75" stroke-miterlimit="10" x1="130.6" y1="1175.5" x2="130.6" y2="974.3"/>
	
		<line display="inline" fill="#F7FAFA" stroke="#E8F6FF" stroke-width="0.75" stroke-miterlimit="10" x1="150.6" y1="1175.5" x2="150.6" y2="974.3"/>
	
		<line display="inline" fill="#F7FAFA" stroke="#E8F6FF" stroke-width="0.75" stroke-miterlimit="10" x1="171.2" y1="1175.5" x2="171.2" y2="974.3"/>
	
		<line display="inline" fill="#F7FAFA" stroke="#E8F6FF" stroke-width="0.75" stroke-miterlimit="10" x1="193.6" y1="1175.5" x2="193.6" y2="974.3"/>
	
		<line display="inline" fill="#F7FAFA" stroke="#E8F6FF" stroke-width="0.75" stroke-miterlimit="10" x1="216" y1="1175.5" x2="216" y2="974.3"/>
	
		<line display="inline" fill="#F7FAFA" stroke="#E8F6FF" stroke-width="0.75" stroke-miterlimit="10" x1="236.1" y1="1175.5" x2="236.1" y2="974.3"/>
	
		<line display="inline" fill="#F7FAFA" stroke="#E8F6FF" stroke-width="0.75" stroke-miterlimit="10" x1="256.4" y1="1175.5" x2="256.4" y2="974.3"/>
	
		<line display="inline" fill="#F7FAFA" stroke="#E8F6FF" stroke-width="0.75" stroke-miterlimit="10" x1="278.8" y1="1175.5" x2="278.8" y2="974.3"/>
	
		<line display="inline" fill="#F7FAFA" stroke="#E8F6FF" stroke-width="0.75" stroke-miterlimit="10" x1="301.2" y1="1175.5" x2="301.2" y2="974.3"/>
	
		<line display="inline" fill="#F7FAFA" stroke="#E8F6FF" stroke-width="0.75" stroke-miterlimit="10" x1="321.2" y1="1175.5" x2="321.2" y2="974.3"/>
	
		<line display="inline" fill="#F7FAFA" stroke="#E8F6FF" stroke-width="0.75" stroke-miterlimit="10" x1="343.6" y1="1175.5" x2="343.6" y2="974.3"/>
	
		<line display="inline" fill="#F7FAFA" stroke="#E8F6FF" stroke-width="0.75" stroke-miterlimit="10" x1="366" y1="1175.5" x2="366" y2="974.3"/>
	
		<line display="inline" fill="#F7FAFA" stroke="#E8F6FF" stroke-width="0.75" stroke-miterlimit="10" x1="388.4" y1="1175.5" x2="388.4" y2="974.3"/>
	
		<line display="inline" fill="#F7FAFA" stroke="#E8F6FF" stroke-width="0.75" stroke-miterlimit="10" x1="408.4" y1="1175.5" x2="408.4" y2="974.3"/>
	
		<line display="inline" fill="#F7FAFA" stroke="#E8F6FF" stroke-width="0.75" stroke-miterlimit="10" x1="430.4" y1="1175.5" x2="430.4" y2="974.3"/>
	
		<line display="inline" fill="#F7FAFA" stroke="#E8F6FF" stroke-width="0.75" stroke-miterlimit="10" x1="452.8" y1="1175.5" x2="452.8" y2="974.3"/>
	
		<line display="inline" fill="#F7FAFA" stroke="#E8F6FF" stroke-width="0.75" stroke-miterlimit="10" x1="475.2" y1="1175.5" x2="475.2" y2="974.3"/>
	
		<line display="inline" fill="#F7FAFA" stroke="#E8F6FF" stroke-width="0.75" stroke-miterlimit="10" x1="495.2" y1="1175.5" x2="495.2" y2="974.3"/>
	
		<line display="inline" fill="#F7FAFA" stroke="#E8F6FF" stroke-width="0.75" stroke-miterlimit="10" x1="515.8" y1="1175.5" x2="515.8" y2="974.3"/>
	
		<line display="inline" fill="#F7FAFA" stroke="#E8F6FF" stroke-width="0.75" stroke-miterlimit="10" x1="538.2" y1="1175.5" x2="538.2" y2="974.3"/>
	
		<line display="inline" fill="#F7FAFA" stroke="#E8F6FF" stroke-width="0.75" stroke-miterlimit="10" x1="560.6" y1="1175.5" x2="560.6" y2="974.3"/>
	
		<line display="inline" fill="#F7FAFA" stroke="#E8F6FF" stroke-width="0.75" stroke-miterlimit="10" x1="601" y1="1161" x2="-1" y2="1161"/>
	
		<line display="inline" fill="#F7FAFA" stroke="#E8F6FF" stroke-width="0.75" stroke-miterlimit="10" x1="601" y1="1141.9" x2="-1" y2="1141.9"/>
	
		<line display="inline" fill="#F7FAFA" stroke="#E8F6FF" stroke-width="0.75" stroke-miterlimit="10" x1="601" y1="1122.5" x2="-1" y2="1122.5"/>
	
		<line display="inline" fill="#F7FAFA" stroke="#E8F6FF" stroke-width="0.75" stroke-miterlimit="10" x1="601" y1="1103" x2="-1" y2="1103"/>
	
		<line display="inline" fill="#F7FAFA" stroke="#E8F6FF" stroke-width="0.75" stroke-miterlimit="10" x1="601" y1="1085.6" x2="-1" y2="1085.6"/>
	
		<line display="inline" fill="#F7FAFA" stroke="#E8F6FF" stroke-width="0.75" stroke-miterlimit="10" x1="601" y1="1067.7" x2="-1" y2="1067.7"/>
	
		<line display="inline" fill="#F7FAFA" stroke="#3E59F8" stroke-width="2" stroke-miterlimit="10" x1="601" y1="1048.3" x2="-1" y2="1048.3"/>
	
		<line display="inline" fill="#F7FAFA" stroke="#E8F6FF" stroke-width="0.75" stroke-miterlimit="10" x1="601" y1="1028.8" x2="-1" y2="1028.8"/>
	
		<line display="inline" fill="#F7FAFA" stroke="#E8F6FF" stroke-width="0.75" stroke-miterlimit="10" x1="601" y1="1011.4" x2="-1" y2="1011.4"/>
	
		<line display="inline" fill="#F7FAFA" stroke="#E8F6FF" stroke-width="0.75" stroke-miterlimit="10" x1="601" y1="993.8" x2="-1" y2="993.8"/>
</g>
</svg>
